SplineFontDB: 3.2
FontName: SeriousShannsBold
FullName: Serious Shanns Bold
FamilyName: Serious Shanns
Weight: Bold
Copyright: https://github.com/kaBeech/serious-shanns/blob/main/LICENSE
Version: 6.0.0
ItalicAngle: 0
UnderlinePosition: 0
UnderlineWidth: 0
Ascent: 800
Descent: 200
InvalidEm: 0
sfntRevision: 0x00003333
LayerCount: 2
Layer: 0 0 "Back" 1
Layer: 1 0 "Fore" 0
XUID: [1021 45 630387186 1689187]
StyleMap: 0x0040
FSType: 0
OS2Version: 3
OS2_WeightWidthSlopeOnly: 0
OS2_UseTypoMetrics: 0
CreationTime: 1532631502
ModificationTime: 315532800
PfmFamily: 49
TTFWeight: 700
TTFWidth: 5
LineGap: 0
VLineGap: 0
Panose: 0 0 0 0 0 0 0 0 0 0
OS2TypoAscent: 613
OS2TypoAOffset: 0
OS2TypoDescent: -188
OS2TypoDOffset: 0
OS2TypoLinegap: 98
OS2WinAscent: 778
OS2WinAOffset: 0
OS2WinDescent: 308
OS2WinDOffset: 0
HheadAscent: 796
HheadAOffset: 0
HheadDescent: -317
HheadDOffset: 0
OS2SubXSize: 317
OS2SubYSize: 293
OS2SubXOff: 0
OS2SubYOff: 37
OS2SupXSize: 317
OS2SupYSize: 293
OS2SupXOff: 0
OS2SupYOff: 171
OS2StrikeYSize: 0
OS2StrikeYPos: 132
OS2CapHeight: 576
OS2XHeight: 485
OS2Vendor: 'NONE'
OS2CodePages: 00000001.00000000
OS2UnicodeRanges: 00000001.00000000.00000000.00000000
MarkAttachClasses: 1
DEI: 91125
LangName: 1033 "" "" "Normal" "" "" "Version 0.2.0"
Encoding: UnicodeBmp
Compacted: 1
UnicodeInterp: none
NameList: AGL For New Fonts
DisplaySize: -48
AntiAlias: 1
FitToEm: 0
WinInfo: 0 16 9
BeginPrivate: 9
BlueValues 32 [-39 -6 502 523 708 718 765 769]
OtherBlues 11 [-297 -287]
BlueScale 9 0.0291667
BlueShift 1 2
StdHW 5 [110]
StdVW 5 [128]
StemSnapH 5 [110]
StemSnapV 9 [128 134]
ForceBold 4 true
EndPrivate
BeginChars: 65537 107

StartChar: .notdef
Encoding: 65536 -1 0
Width: 570
VWidth: 886
GlyphClass: 1
Flags: W
HStem: -201.925 66.2998<182.2 433.8> 616.625 66.2998<182.2 433.8>
VStem: 115.9 66.2998<-135.625 616.625> 433.8 66.2998<-135.625 616.625>
LayerCount: 2
Fore
SplineSet
115.900390625 -201.924804688 m 1
 115.900390625 682.924804688 l 1
 500.099609375 682.924804688 l 1
 500.099609375 -201.924804688 l 1
 115.900390625 -201.924804688 l 1
182.200195312 616.625 m 1
 182.200195312 -135.625 l 1
 433.799804688 -135.625 l 1
 433.799804688 616.625 l 1
 182.200195312 616.625 l 1
EndSplineSet
Validated: 524289
EndChar

StartChar: exclam
Encoding: 33 33 1
Width: 570
VWidth: 907
GlyphClass: 2
Flags: W
HStem: 25.9229 152.151<255.182 362.342>
VStem: 228.029 158.981<52.3986 151.517> 263.728 97.751<287.195 724.144>
LayerCount: 2
Fore
SplineSet
367.427734375 684.674804688 m 0xa0
 367.427734375 679.575195312 366.295898438 647.83984375 364.029296875 589.473632812 c 0
 362.329101562 531.106445312 361.478515625 484.356445312 361.478515625 449.223632812 c 0
 361.478515625 432.790039062 361.76171875 415.506835938 362.329101562 397.374023438 c 0
 362.895507812 379.806640625 363.178710938 364.506835938 363.178710938 351.473632812 c 0
 363.178710938 338.44140625 362.612304688 329.658203125 361.478515625 325.125 c 0
 360.912109375 320.591796875 360.62890625 314.641601562 360.62890625 307.274414062 c 0
 360.62890625 299.908203125 360.912109375 293.107421875 361.478515625 286.875 c 0
 359.779296875 271.0078125 353.545898438 258.825195312 342.779296875 250.325195312 c 0
 333.145507812 242.391601562 321.529296875 238.141601562 307.928710938 237.575195312 c 2
 304.529296875 237.575195312 l 2
 290.362304688 237.575195312 278.745117188 242.674804688 269.677734375 252.875 c 0
 261.177734375 261.375 256.927734375 272.708007812 256.927734375 286.875 c 0
 256.927734375 293.674804688 258.061523438 302.458007812 260.328125 313.224609375 c 0
 262.028320312 324.557617188 263.161132812 332.774414062 263.727539062 337.875 c 0
 264.294921875 342.974609375 264.578125 351.7578125 264.578125 364.224609375 c 2
 264.578125 399.075195312 l 2
 264.578125 410.408203125 264.294921875 427.69140625 263.727539062 450.923828125 c 0
 262.594726562 478.124023438 262.028320312 504.19140625 262.028320312 529.124023438 c 2
 262.028320312 587.774414062 l 2
 262.594726562 601.94140625 263.162109375 619.5078125 263.728515625 640.474609375 c 0
 264.295898438 661.44140625 264.579101562 675.325195312 264.579101562 682.125 c 1
 265.145507812 700.2578125 270.529296875 714.424804688 280.728515625 724.625 c 0
 290.362304688 734.2578125 302.544921875 739.075195312 317.278320312 739.075195312 c 2
 319.828125 739.075195312 l 2
 333.427734375 739.075195312 344.760742188 734.541992188 353.828125 725.474609375 c 0
 362.89453125 716.408203125 367.427734375 702.807617188 367.427734375 684.674804688 c 0xa0
301.12890625 25.9228515625 m 2
 281.295898438 25.9228515625 264.580078125 32.7236328125 250.979492188 46.32421875 c 0
 235.6796875 62.19140625 228.029296875 81.173828125 228.029296875 103.274414062 c 0
 228.029296875 123.673828125 236.529296875 140.95703125 253.529296875 155.124023438 c 0
 271.096679688 170.423828125 290.646484375 178.07421875 312.1796875 178.07421875 c 0
 333.712890625 178.07421875 351.5625 171.274414062 365.729492188 157.673828125 c 0
 379.916992188 143.487304688 387.010742188 126.409179688 387.010742188 106.442382812 c 0xc0
 387.010742188 95.34765625 386.526367188 72.2021484375 366.579101562 51.4228515625 c 0
 352.412109375 37.255859375 333.711914062 28.755859375 310.478515625 25.9228515625 c 2
 301.12890625 25.9228515625 l 2
EndSplineSet
Validated: 524289
EndChar

StartChar: quotedbl
Encoding: 34 34 2
Width: 570
VWidth: 941
GlyphClass: 2
Flags: W
HStem: 450.974 317.052<201.384 280.786 338.208 417.251>
VStem: 187.225 107.95<464.098 759.08> 320.676 110.5<464.098 759.436>
LayerCount: 2
Fore
SplineSet
431.17578125 718.724609375 m 2
 431.17578125 702.575195312 l 2
 431.17578125 673.674804688 430.89453125 636.841796875 430.327148438 592.075195312 c 0
 429.194335938 545.041992188 427.494140625 512.174804688 425.227539062 493.474609375 c 0
 422.9609375 479.307617188 416.443359375 468.541015625 405.676757812 461.173828125 c 0
 396.609375 454.374023438 386.692382812 450.973632812 375.92578125 450.973632812 c 0
 361.758789062 450.973632812 349.008789062 455.223632812 337.67578125 463.723632812 c 0
 326.909179688 471.657226562 321.526367188 482.423828125 321.526367188 496.024414062 c 2
 321.526367188 501.124023438 l 2
 322.659179688 520.390625 323.225585938 543.624023438 323.225585938 570.82421875 c 0
 323.225585938 628.057617188 322.375976562 678.774414062 320.67578125 722.973632812 c 2
 320.67578125 725.524414062 l 2
 320.67578125 733.45703125 322.659179688 740.682617188 326.625976562 747.19921875 c 0
 330.592773438 753.715820312 336.259765625 758.390625 343.626953125 761.223632812 c 0
 353.827148438 765.19140625 364.026367188 767.458007812 374.2265625 768.025390625 c 0
 382.7265625 768.025390625 389.668945312 767.174804688 395.051757812 765.474609375 c 0
 400.434570312 763.775390625 405.676757812 761.5078125 410.776367188 758.674804688 c 0
 417.009765625 755.275390625 421.967773438 750.033203125 425.651367188 742.950195312 c 0
 429.333984375 735.8671875 431.17578125 727.791992188 431.17578125 718.724609375 c 2
295.174804688 719.575195312 m 2
 295.174804688 683.875 l 2
 295.174804688 667.44140625 294.609375 636.841796875 293.475585938 592.075195312 c 0
 292.342773438 545.041992188 290.642578125 512.174804688 288.375976562 493.474609375 c 0
 286.109375 479.307617188 279.875976562 468.541015625 269.67578125 461.173828125 c 0
 260.609375 454.374023438 250.692382812 450.973632812 239.924804688 450.973632812 c 0
 225.7578125 450.973632812 212.724609375 455.223632812 200.825195312 463.723632812 c 0
 190.05859375 471.657226562 184.674804688 482.423828125 184.674804688 496.024414062 c 0
 184.674804688 497.723632812 184.958007812 499.70703125 185.525390625 501.973632812 c 0
 186.799804688 518.548828125 187.4375 537.83203125 187.4375 559.825195312 c 0
 187.4375 567.157226562 187.3671875 574.790039062 187.224609375 582.723632812 c 2
 187.224609375 611.624023438 l 2
 186.658203125 668.857421875 185.525390625 707.107421875 183.825195312 726.374023438 c 0
 183.825195312 733.741210938 185.80859375 740.541015625 189.775390625 746.774414062 c 0
 194.30859375 753.57421875 199.974609375 758.390625 206.775390625 761.223632812 c 0
 216.974609375 765.19140625 227.458007812 767.458007812 238.224609375 768.025390625 c 0
 246.724609375 768.025390625 253.666992188 767.174804688 259.049804688 765.474609375 c 0
 264.43359375 763.775390625 269.958007812 761.224609375 275.625 757.825195312 c 0
 281.291992188 754.424804688 285.825195312 749.325195312 289.224609375 742.525390625 c 0
 292.625 735.724609375 294.608398438 728.075195312 295.174804688 719.575195312 c 2
EndSplineSet
Validated: 524289
EndChar

StartChar: numbersign
Encoding: 35 35 3
Width: 570
VWidth: 904
GlyphClass: 2
Flags: W
HStem: 206.368 90.9531<80.8242 138 263.803 325.85 449.1 512.641> 422.271 92.6494<113.94 181.35 306.299 364.952 487.35 535.197>
VStem: 113.35 107.1<56.8193 184.967> 302.899 107.101<54.3361 196.002> 402.352 107.099<592.441 664.382>
LayerCount: 2
Fore
SplineSet
364.952148438 422.271484375 m 1xe0
 288.452148438 422.271484375 l 1
 263.802734375 297.321289062 l 1
 284.202148438 297.887695312 310.26953125 298.169921875 342.002929688 298.169921875 c 1
 349.935546875 338.40234375 357.5859375 379.771484375 364.952148438 422.271484375 c 1xe0
71.7001953125 248.017578125 m 2
 71.7001953125 258.19921875 75.4228515625 290.767578125 122.700195312 293.91796875 c 0
 127.233398438 293.91796875 133.182617188 294.201171875 140.549804688 294.767578125 c 2
 156.700195312 294.767578125 l 1
 181.349609375 420.567382812 l 1
 166.049804688 420.000976562 157.552734375 420.000976562 155.852539062 420.567382812 c 0
 146.626953125 420.567382812 106.63671875 422.9375 104.852539062 463.919921875 c 1
 104.852539062 466.469726562 l 2
 104.852539062 482.284179688 115.303710938 510.962890625 157.552734375 512.370117188 c 0
 167.185546875 512.9375 181.068359375 513.220703125 199.201171875 513.220703125 c 1
 222.151367188 637.3203125 l 1
 226.868164062 653.565429688 239.677734375 678.525390625 274.001953125 680.669921875 c 0
 292.453125 680.669921875 328.401367188 667.962890625 328.401367188 629.670898438 c 0
 328.401367188 624.571289062 327.834960938 619.470703125 326.701171875 614.37109375 c 2
 306.298828125 514.920898438 l 1
 381.1015625 514.920898438 l 1
 402.3515625 630.521484375 l 1
 406.522460938 645.352539062 419.201171875 674.720703125 454.201171875 674.720703125 c 0
 470.421875 674.720703125 507.223632812 665.453125 509.450195312 625.421875 c 0xe8
 509.450195312 608.797851562 504.690429688 610.47265625 487.349609375 515.771484375 c 1
 522.836914062 514.458007812 543.297851562 490.9140625 544.299804688 469.872070312 c 0
 544.299804688 460.206054688 541.111328125 423.864257812 493.299804688 422.271484375 c 1
 470.349609375 422.271484375 l 1
 449.099609375 297.321289062 l 1
 472.049804688 297.321289062 l 2
 482.41015625 297.321289062 514.834960938 297.321289062 518.799804688 255.670898438 c 1
 518.799804688 254.821289062 l 2
 518.799804688 235.208984375 511.831054688 207.220703125 472.049804688 207.220703125 c 2
 433.799804688 207.220703125 l 1
 423.033203125 147.154296875 415.099609375 105.787109375 410 83.1201171875 c 0
 398.666015625 52.5205078125 370.653320312 42.2333984375 355.767578125 42.2333984375 c 2
 353.048828125 42.318359375 l 1
 311.146484375 42.318359375 303.836914062 81.0400390625 302.899414062 94.1689453125 c 0xf0
 302.899414062 98.9052734375 325.627929688 205.244140625 325.849609375 206.368164062 c 1
 285.899414062 206.368164062 l 2
 269.465820312 206.368164062 256.149414062 206.0859375 245.94921875 205.518554688 c 1
 230.649414062 129.018554688 222.149414062 89.068359375 220.44921875 85.6689453125 c 0
 210.056640625 56.796875 180.068359375 42.318359375 162.649414062 42.318359375 c 0
 118.543945312 42.318359375 113.349609375 86.6064453125 113.349609375 95.0185546875 c 0
 113.349609375 110.939453125 113.875 95.3935546875 138 204.66796875 c 1
 125.25 204.66796875 l 2
 112.859375 204.66796875 71.7001953125 207.5234375 71.7001953125 245.467773438 c 2
 71.7001953125 248.017578125 l 2
EndSplineSet
Validated: 524289
EndChar

StartChar: dollar
Encoding: 36 36 4
Width: 570
VWidth: 901
GlyphClass: 2
Flags: W
HStem: 23.9473 90.9482<201.933 255.301>
VStem: 94.6514 100.3<460.688 548.901> 259.551 99.4512<-23.1391 23.9473 130.197 321.447 439.598 574.747> 436.378 100.272<172.193 287.919>
LayerCount: 2
Fore
SplineSet
338.174804688 -59.3505859375 m 0
 327.125 -67.8505859375 314.234375 -72.1025390625 299.500976562 -72.1025390625 c 2
 297.80078125 -72.1025390625 l 2
 282.500976562 -72.1025390625 270.883789062 -67.0029296875 262.951171875 -56.802734375 c 0
 256.717773438 -49.435546875 253.600585938 -39.5185546875 253.600585938 -27.0517578125 c 0
 253.600585938 -24.21875 253.883789062 -19.2607421875 254.451171875 -12.177734375 c 0
 255.017578125 -5.0947265625 255.30078125 6.947265625 255.30078125 23.947265625 c 1
 234.901367188 24.513671875 215.350585938 27.34765625 196.651367188 32.447265625 c 0
 177.951171875 37.546875 161.80078125 44.34765625 148.201171875 52.84765625 c 0
 121.000976562 69.84765625 100.883789062 90.2470703125 87.8505859375 114.046875 c 0
 82.18359375 126.513671875 79.3505859375 137.84765625 79.3505859375 148.046875 c 0
 79.3505859375 151.447265625 79.6337890625 154.564453125 80.201171875 157.397460938 c 0
 83.0341796875 170.430664062 90.966796875 179.780273438 104 185.447265625 c 0
 111.3671875 188.84765625 117.034179688 190.97265625 121.000976562 191.822265625 c 0
 124.967773438 192.671875 128.368164062 193.09765625 131.201171875 193.09765625 c 0
 134.034179688 193.09765625 136.583984375 192.814453125 138.850585938 192.247070312 c 0
 145.651367188 191.680664062 151.883789062 188.98828125 157.55078125 184.170898438 c 0
 163.217773438 179.354492188 169.16796875 172.979492188 175.401367188 165.046875 c 0
 186.734375 149.1796875 199.484375 136.712890625 213.651367188 127.645507812 c 0
 225.55078125 120.278320312 240.284179688 116.028320312 257.850585938 114.895507812 c 1
 258.984375 199.328125 259.55078125 275.26171875 259.55078125 342.694335938 c 1
 257.850585938 342.694335938 254.734375 343.26171875 250.201171875 344.39453125 c 0
 246.80078125 344.961914062 242.267578125 345.245117188 236.600585938 345.245117188 c 0
 213.368164062 347.51171875 192.118164062 353.178710938 172.850585938 362.245117188 c 0
 155.284179688 371.3125 140.833984375 382.079101562 129.500976562 394.546875 c 0
 118.16796875 407.013671875 109.526367188 420.330078125 103.576171875 434.497070312 c 0
 97.6259765625 448.6640625 94.6513671875 463.114257812 94.6513671875 477.84765625 c 0
 94.6513671875 498.814453125 97.9091796875 518.930664062 104.42578125 538.198242188 c 0
 110.942382812 557.46484375 121.000976562 575.45703125 134.600585938 592.173828125 c 0
 148.201171875 608.890625 166.333984375 623.19921875 189.000976562 635.098632812 c 0
 210.534179688 645.866210938 234.6171875 653.798828125 261.25 658.8984375 c 1
 261.817382812 670.232421875 262.099609375 683.548828125 262.099609375 698.848632812 c 1
 262.666992188 726.048828125 272.016601562 743.33203125 290.150390625 750.69921875 c 0
 296.3828125 752.965820312 304.033203125 754.098632812 313.099609375 754.098632812 c 0
 331.799804688 754.098632812 345.400390625 748.1484375 353.900390625 736.249023438 c 0
 360.1328125 727.749023438 363.533203125 716.131835938 364.099609375 701.3984375 c 2
 364.099609375 666.548828125 l 1
 377.1328125 665.416015625 394.416015625 662.298828125 415.94921875 657.19921875 c 0
 437.482421875 652.666015625 453.915039062 648.416015625 465.248046875 644.44921875 c 0
 478.28125 639.916015625 487.9140625 632.265625 494.147460938 621.499023438 c 0
 498.680664062 613.565429688 500.947265625 605.348632812 500.947265625 596.848632812 c 0
 500.947265625 594.015625 500.6640625 591.182617188 500.09765625 588.349609375 c 0
 498.96484375 579.849609375 495.706054688 572.908203125 490.323242188 567.524414062 c 0
 484.940429688 562.141601562 478.282226562 558.883789062 470.349609375 557.750976562 c 0
 466.381835938 557.18359375 462.982421875 556.900390625 460.149414062 556.900390625 c 0
 457.31640625 556.900390625 454.05859375 557.04296875 450.375 557.325195312 c 0
 446.692382812 557.608398438 442.016601562 558.600585938 436.349609375 560.30078125 c 0
 430.1171875 561.43359375 422.75 563.983398438 414.25 567.950195312 c 0
 397.25 575.317382812 379.966796875 579.567382812 362.400390625 580.700195312 c 1
 361.266601562 525.733398438 360.416992188 473.600585938 359.849609375 424.30078125 c 1
 385.349609375 420.333984375 408.8671875 414.383789062 430.400390625 406.450195312 c 0
 450.799804688 397.950195312 467.658203125 387.750976562 480.974609375 375.850585938 c 0
 494.291992188 363.950195312 505.341796875 350.350585938 514.125 335.05078125 c 0
 522.908203125 319.750976562 528.858398438 304.733398438 531.974609375 290.000976562 c 0
 535.091796875 275.267578125 536.650390625 259.967773438 536.650390625 244.100585938 c 0
 536.650390625 217.467773438 531.974609375 192.392578125 522.625 168.875976562 c 0
 513.275390625 145.358398438 500.2421875 124.81640625 483.525390625 107.25 c 0
 466.80859375 89.6826171875 447.400390625 74.666015625 425.299804688 62.19921875 c 0
 404.333007812 50.8662109375 381.3828125 42.0830078125 356.450195312 35.849609375 c 1
 356.450195312 6.94921875 357.016601562 -12.8837890625 358.150390625 -23.650390625 c 0
 355.8828125 -38.9501953125 349.224609375 -50.8505859375 338.174804688 -59.3505859375 c 0
216.201171875 548.397460938 m 0
 202.034179688 535.364257812 194.951171875 520.064453125 194.951171875 502.497070312 c 0
 194.951171875 487.197265625 201.467773438 473.879882812 214.500976562 462.546875 c 0
 225.833984375 452.34765625 240.850585938 444.697265625 259.55078125 439.59765625 c 1
 260.118164062 474.73046875 260.401367188 519.780273438 260.401367188 574.747070312 c 1
 242.833984375 567.947265625 228.100585938 559.1640625 216.201171875 548.397460938 c 0
410.850585938 167.59765625 m 0
 427.869140625 184.615234375 436.377929688 204.026367188 436.377929688 225.830078125 c 0
 436.377929688 233.450195312 436.05859375 243.42578125 432.952148438 254.297851562 c 0
 430.684570312 262.231445312 426.434570312 271.013671875 420.202148438 280.647460938 c 0
 409.434570312 296.513671875 389.03515625 310.114257812 359.001953125 321.447265625 c 1
 358.434570312 256.280273438 358.009765625 213.780273438 357.7265625 193.947265625 c 0
 357.443359375 174.114257812 357.018554688 152.864257812 356.452148438 130.197265625 c 1
 377.984375 140.397460938 396.118164062 152.864257812 410.850585938 167.59765625 c 0
EndSplineSet
Validated: 524289
EndChar

StartChar: percent
Encoding: 37 37 5
Width: 570
VWidth: 899
GlyphClass: 2
Flags: W
HStem: 15.0469 85.8506<401.302 456.535> 184.197 83.2998<403.119 462.507> 406.05 84.1465<156.065 212.531> 565.847 82.4531<156.881 217.263>
VStem: 67.4482 81.6006<499.788 556.149> 223.848 87.5508<499.017 556.64> 304.598 89.25<110.954 172.747> 467.799 80.749<109.745 171.977>
LayerCount: 2
Fore
SplineSet
79.7744140625 466.825195312 m 0xfd
 71.5576171875 484.108398438 67.4482421875 502.3828125 67.4482421875 521.650390625 c 2
 67.4482421875 523.349609375 l 2
 67.4482421875 559.049804688 78.0732421875 588.799804688 99.3232421875 612.599609375 c 0
 120.573242188 636.400390625 151.315429688 648.299804688 191.547851562 648.299804688 c 0
 226.115234375 648.299804688 254.732421875 638.099609375 277.3984375 617.700195312 c 0
 289.298828125 606.932617188 298.366210938 593.049804688 304.598632812 576.049804688 c 0
 309.131835938 562.450195312 311.3984375 547.150390625 311.3984375 530.150390625 c 0
 311.3984375 487.650390625 299.215820312 455.6328125 274.848632812 434.099609375 c 0
 253.315429688 415.400390625 221.298828125 406.049804688 178.798828125 406.049804688 c 0
 155.565429688 406.049804688 135.307617188 411.858398438 118.024414062 423.474609375 c 0
 100.741210938 435.091796875 87.9912109375 449.541992188 79.7744140625 466.825195312 c 0xfd
108.248046875 10.7998046875 m 0
 100.880859375 14.2001953125 94.9306640625 18.4462890625 90.3984375 23.546875 c 0
 84.1650390625 30.3466796875 81.0478515625 38.421875 81.0478515625 47.771484375 c 0
 81.0478515625 57.1220703125 83.880859375 67.1796875 89.5478515625 77.9462890625 c 0
 101.448242188 101.747070312 129.78125 151.330078125 174.547851562 226.696289062 c 0
 270.880859375 378.563476562 319.047851562 454.780273438 319.047851562 455.34765625 c 0
 367.21484375 531.84765625 399.514648438 586.814453125 415.948242188 620.247070312 c 1
 415.948242188 614.014648438 416.231445312 614.297851562 416.797851562 621.09765625 c 1
 425.865234375 633.564453125 437.482421875 640.931640625 451.6484375 643.198242188 c 0
 455.616210938 644.331054688 459.583007812 644.8984375 463.549804688 644.8984375 c 0
 472.616210938 644.8984375 481.399414062 642.631835938 489.899414062 638.098632812 c 0
 502.932617188 631.865234375 510.299804688 623.08203125 512 611.749023438 c 0
 512.56640625 609.482421875 512.849609375 607.21484375 512.849609375 604.948242188 c 0
 512.849609375 595.315429688 509.166992188 584.83203125 501.799804688 573.499023438 c 0
 480.833007812 540.06640625 428.416015625 454.783203125 344.548828125 317.650390625 c 0
 258.982421875 180.516601562 202.315429688 87.8671875 174.547851562 39.7001953125 c 0
 161.514648438 17.033203125 146.21484375 5.7001953125 128.6484375 5.7001953125 c 0
 122.415039062 5.7001953125 115.615234375 7.400390625 108.248046875 10.7998046875 c 0
214.073242188 556.921875 m 0
 207.555664062 562.872070312 197.498046875 565.846679688 183.8984375 565.846679688 c 0
 173.130859375 565.846679688 165.198242188 562.729492188 160.09765625 556.497070312 c 0
 153.865234375 549.129882812 150.181640625 538.646484375 149.048828125 525.046875 c 2
 149.048828125 522.497070312 l 2
 149.048828125 512.296875 151.315429688 504.646484375 155.848632812 499.546875 c 0
 160.381835938 494.446289062 170.865234375 491.330078125 187.297851562 490.196289062 c 2
 188.1484375 490.196289062 l 2
 198.915039062 490.196289062 207.131835938 493.029296875 212.798828125 498.696289062 c 0
 219.032226562 505.497070312 222.71484375 514.563476562 223.84765625 525.896484375 c 2
 223.84765625 528.446289062 l 2
 223.84765625 541.479492188 220.58984375 550.971679688 214.073242188 556.921875 c 0
317.7734375 78.3720703125 m 0
 308.990234375 96.2216796875 304.59765625 115.34765625 304.59765625 135.747070312 c 2
 304.59765625 137.447265625 l 2xfb
 304.59765625 174.84765625 316.21484375 205.872070312 339.448242188 230.522460938 c 0
 362.680664062 255.172851562 394.981445312 267.497070312 436.34765625 267.497070312 c 0
 468.6484375 267.497070312 495.84765625 257.014648438 517.948242188 236.047851562 c 0
 529.28125 225.280273438 537.498046875 210.547851562 542.59765625 191.84765625 c 0
 546.565429688 178.247070312 548.547851562 163.23046875 548.547851562 146.797851562 c 0
 548.547851562 141.130859375 548.264648438 135.463867188 547.698242188 129.796875 c 0
 545.998046875 92.396484375 535.231445312 63.921875 515.3984375 44.3720703125 c 0
 495.565429688 24.8212890625 465.815429688 15.046875 426.1484375 15.046875 c 2
 421.8984375 15.046875 l 2
 398.09765625 15.61328125 376.990234375 21.8466796875 358.573242188 33.7470703125 c 0
 340.15625 45.646484375 326.555664062 60.521484375 317.7734375 78.3720703125 c 0
432.09765625 100.897460938 m 0
 432.665039062 100.897460938 433.516601562 100.614257812 434.649414062 100.047851562 c 0
 444.849609375 100.047851562 452.216796875 103.1640625 456.75 109.397460938 c 0
 462.982421875 116.764648438 466.666015625 126.96484375 467.798828125 139.997070312 c 2
 467.798828125 141.697265625 l 2
 467.798828125 155.297851562 465.249023438 165.497070312 460.1484375 172.297851562 c 0
 454.482421875 180.23046875 444.565429688 184.197265625 430.3984375 184.197265625 c 0
 419.630859375 184.197265625 411.4140625 180.514648438 405.747070312 173.147460938 c 0
 398.947265625 164.647460938 394.98046875 153.314453125 393.84765625 139.147460938 c 2
 393.84765625 136.59765625 l 2
 393.84765625 125.264648438 396.254882812 116.622070312 401.072265625 110.672851562 c 0
 405.888671875 104.72265625 416.231445312 101.46484375 432.09765625 100.897460938 c 0
EndSplineSet
Validated: 524289
EndChar

StartChar: ampersand
Encoding: 38 38 6
Width: 570
VWidth: 901
GlyphClass: 2
Flags: W
HStem: 5.25684 100.3<209.114 324.256> 589.205 87.5498<259.473 337.326>
VStem: 77.6484 105.4<132.585 288.834> 151.599 101.15<474.607 579.961> 350.499 91.7998<480.245 577.151>
LayerCount: 2
Fore
SplineSet
526.450195312 60.5009765625 m 0xd8
 526.450195312 57.66796875 526.166015625 54.5546875 525.598632812 51.1552734375 c 0
 523.33203125 31.322265625 516.532226562 18.2890625 505.19921875 12.0556640625 c 0
 494.432617188 8.0888671875 487.631835938 6.10546875 484.798828125 6.10546875 c 2
 483.94921875 6.10546875 l 2
 476.58203125 6.10546875 468.649414062 8.0888671875 460.149414062 12.0556640625 c 0
 445.416015625 19.4228515625 432.94921875 32.1728515625 422.749023438 50.3056640625 c 0
 421.048828125 53.138671875 418.357421875 59.513671875 414.673828125 69.4306640625 c 0
 410.991210938 79.34765625 408.298828125 86.5732421875 406.598632812 91.10546875 c 1
 393.848632812 74.53125 l 2
 391.015625 70.84765625 386.19921875 65.46484375 379.399414062 58.3818359375 c 0
 372.598632812 51.298828125 366.791015625 45.7734375 361.973632812 41.806640625 c 0
 357.157226562 37.83984375 350.640625 33.1650390625 342.422851562 27.78125 c 0
 334.206054688 22.3984375 326.130859375 18.431640625 318.198242188 15.8818359375 c 0
 310.265625 13.33203125 301.198242188 10.923828125 290.998046875 8.65625 c 0
 280.797851562 6.3896484375 270.315429688 5.2568359375 259.547851562 5.2568359375 c 0
 225.547851562 5.2568359375 194.5234375 13.8984375 166.473632812 31.181640625 c 0
 138.422851562 48.46484375 116.606445312 71.2724609375 101.0234375 99.60546875 c 0
 85.4404296875 127.938476562 77.6484375 158.5390625 77.6484375 191.40625 c 0xe8
 77.6484375 240.706054688 86.71484375 282.922851562 104.848632812 318.055664062 c 0
 126.380859375 359.422851562 160.098632812 391.72265625 205.998046875 414.956054688 c 1
 191.123046875 438.331054688 l 2
 185.172851562 447.680664062 180.640625 454.90625 177.5234375 460.005859375 c 0
 174.40625 465.10546875 170.723632812 471.763671875 166.473632812 479.98046875 c 0
 162.223632812 488.198242188 159.248046875 495.422851562 157.547851562 501.65625 c 0
 153.581054688 518.65625 151.598632812 535.373046875 151.598632812 551.805664062 c 0
 151.598632812 562.573242188 153.015625 573.48046875 155.848632812 584.53125 c 0
 158.681640625 595.581054688 163.78125 606.772460938 171.1484375 618.10546875 c 0
 178.515625 629.438476562 187.58203125 639.497070312 198.348632812 648.280273438 c 0
 209.116210938 657.063476562 222.999023438 664.004882812 239.999023438 669.10546875 c 0
 256.999023438 674.205078125 275.982421875 676.754882812 296.94921875 676.754882812 c 0
 314.515625 676.754882812 331.798828125 674.063476562 348.798828125 668.6796875 c 0
 365.798828125 663.296875 381.381835938 655.221679688 395.548828125 644.455078125 c 0
 409.715820312 633.688476562 421.048828125 619.521484375 429.548828125 601.954101562 c 0
 438.048828125 584.387695312 442.298828125 564.836914062 442.298828125 543.303710938 c 0
 442.298828125 524.037109375 439.749023438 506.044921875 434.649414062 489.328125 c 0
 429.548828125 472.611328125 423.173828125 458.5859375 415.524414062 447.252929688 c 0
 407.874023438 435.919921875 398.381835938 425.294921875 387.048828125 415.377929688 c 0
 375.715820312 405.4609375 366.083007812 397.953125 358.150390625 392.853515625 c 0
 350.216796875 387.752929688 342 383.220703125 333.5 379.252929688 c 1
 343.700195312 362.252929688 358.0078125 340.861328125 376.424804688 315.078125 c 0
 394.841796875 289.294921875 408.299804688 270.169921875 416.799804688 257.703125 c 1
 418.5 261.103515625 420.908203125 266.345703125 424.025390625 273.428710938 c 0
 427.141601562 280.51171875 430.258789062 287.453125 433.375976562 294.252929688 c 0
 436.493164062 301.053710938 439.184570312 306.153320312 441.451171875 309.553710938 c 0
 452.784179688 326.553710938 464.118164062 337.036132812 475.451171875 341.002929688 c 0
 479.983398438 342.703125 484.80078125 343.553710938 489.900390625 343.553710938 c 0
 497.833984375 343.553710938 505.766601562 341.5703125 513.700195312 337.603515625 c 0
 526.733398438 331.370117188 534.3828125 320.603515625 536.650390625 305.303710938 c 0
 537.216796875 301.903320312 537.784179688 298.220703125 538.350585938 294.252929688 c 0
 538.350585938 282.353515625 534.951171875 269.88671875 528.150390625 256.853515625 c 0
 525.317382812 251.186523438 517.100585938 239.994140625 503.500976562 223.27734375 c 0
 489.900390625 206.560546875 478.850585938 191.96875 470.350585938 179.501953125 c 1
 476.583984375 169.301757812 484.94140625 154.993164062 495.424804688 136.577148438 c 0
 505.908203125 118.16015625 512.283203125 106.967773438 514.549804688 103.000976562 c 0
 522.483398438 89.400390625 526.450195312 75.234375 526.450195312 60.5009765625 c 0xd8
252.749023438 537.35546875 m 0xd8
 252.749023438 524.887695312 256.149414062 511.2890625 262.94921875 496.555664062 c 0
 269.749023438 481.823242188 277.399414062 469.073242188 285.899414062 458.305664062 c 1
 294.965820312 461.138671875 303.041015625 464.396484375 310.124023438 468.080078125 c 0
 317.20703125 471.762695312 324.149414062 476.438476562 330.94921875 482.10546875 c 0
 337.749023438 487.771484375 342.70703125 494.85546875 345.82421875 503.35546875 c 0
 348.94140625 511.85546875 350.499023438 522.337890625 350.499023438 534.8046875 c 0
 350.499023438 552.372070312 345.116210938 565.830078125 334.348632812 575.1796875 c 0
 323.58203125 584.530273438 310.407226562 589.205078125 294.82421875 589.205078125 c 0
 279.241210938 589.205078125 268.048828125 584.387695312 261.249023438 574.754882812 c 0
 255.58203125 566.254882812 252.749023438 553.788085938 252.749023438 537.35546875 c 0xd8
183.048828125 199.055664062 m 0xe8
 183.048828125 171.85546875 190.278320312 149.473632812 204.728515625 131.90625 c 0
 219.178710938 114.33984375 237.736328125 105.556640625 260.403320312 105.556640625 c 0
 272.870117188 105.556640625 285.903320312 107.823242188 299.502929688 112.356445312 c 0
 304.036132812 114.056640625 308.994140625 116.749023438 314.376953125 120.431640625 c 0
 319.760742188 124.114257812 323.868164062 127.08984375 326.701171875 129.356445312 c 0
 329.534179688 131.624023438 333.217773438 135.306640625 337.750976562 140.40625 c 0
 342.284179688 145.506835938 345.400390625 149.048828125 347.100585938 151.03125 c 0
 348.80078125 153.014648438 351.067382812 156.131835938 353.900390625 160.381835938 c 0
 356.733398438 164.631835938 358.716796875 167.323242188 359.849609375 168.45703125 c 0
 351.916992188 185.45703125 344.266601562 200.756835938 336.900390625 214.356445312 c 0
 330.099609375 227.389648438 317.349609375 247.22265625 298.650390625 273.85546875 c 0
 279.950195312 300.489257812 266.06640625 320.888671875 257 335.055664062 c 1
 244.533203125 328.823242188 233.765625 321.456054688 224.69921875 312.956054688 c 0
 213.932617188 302.755859375 205.57421875 291.706054688 199.624023438 279.805664062 c 0
 193.673828125 267.90625 189.423828125 255.438476562 186.874023438 242.40625 c 0
 184.32421875 229.373046875 183.048828125 214.922851562 183.048828125 199.055664062 c 0xe8
EndSplineSet
Validated: 524289
EndChar

StartChar: quotesingle
Encoding: 39 39 7
Width: 570
VWidth: 941
GlyphClass: 2
Flags: W
HStem: 460.326 298.349<269.432 337.323>
VStem: 252.749 110.501<473.45 750.054>
LayerCount: 2
Fore
SplineSet
363.25 710.224609375 m 2
 363.25 675.375976562 l 2
 363.25 660.076171875 362.96484375 636.55859375 362.3984375 604.826171875 c 0
 361.265625 555.526367188 359.282226562 521.526367188 356.44921875 502.826171875 c 0
 354.182617188 488.092773438 347.94921875 477.04296875 337.749023438 469.67578125 c 0
 328.682617188 463.442382812 318.765625 460.326171875 307.998046875 460.326171875 c 0
 293.265625 460.326171875 280.232421875 464.576171875 268.899414062 473.076171875 c 0
 258.131835938 481.008789062 252.749023438 492.05859375 252.749023438 506.225585938 c 0
 252.749023438 507.92578125 253.032226562 509.342773438 253.598632812 510.475585938 c 0
 254.732421875 533.142578125 255.298828125 558.642578125 255.298828125 586.975585938 c 0
 255.298828125 627.208984375 254.44921875 669.42578125 252.749023438 713.625976562 c 2
 252.749023438 716.17578125 l 2
 252.749023438 724.109375 254.44921875 731.192382812 257.848632812 737.424804688 c 0
 261.81640625 744.224609375 267.483398438 749.325195312 274.849609375 752.724609375 c 0
 285.049804688 756.692382812 295.533203125 758.674804688 306.299804688 758.674804688 c 0
 314.799804688 758.674804688 321.599609375 757.825195312 326.700195312 756.125 c 0
 332.3671875 754.424804688 337.75 752.158203125 342.849609375 749.325195312 c 0
 349.083007812 745.924804688 353.900390625 740.541992188 357.299804688 733.174804688 c 0
 360.700195312 726.375 362.682617188 718.724609375 363.25 710.224609375 c 2
EndSplineSet
Validated: 524289
EndChar

StartChar: parenleft
Encoding: 40 40 8
Width: 570
VWidth: 901
GlyphClass: 2
Flags: W
HStem: -71.2461 92.6504<362.792 432.55> 664.004 89.2949<350.671 430.823>
VStem: 170.298 104.338<168.879 531.798>
LayerCount: 2
Fore
SplineSet
444.849609375 -27.896484375 m 0
 444.849609375 -40.36328125 440.030273438 -50.5634765625 430.397460938 -58.49609375 c 0
 420.764648438 -66.4287109375 410.564453125 -70.6787109375 399.796875 -71.24609375 c 0
 358.997070312 -71.24609375 322.447265625 -56.7958984375 290.147460938 -27.896484375 c 0
 257.84765625 1.00390625 231.780273438 40.103515625 211.947265625 89.404296875 c 0
 192.114257812 138.704101562 179.081054688 195.37109375 172.84765625 259.404296875 c 0
 171.1484375 276.970703125 170.297851562 298.788085938 170.297851562 324.854492188 c 0
 170.297851562 350.921875 171.998046875 383.504882812 175.3984375 422.604492188 c 0
 181.065429688 490.038085938 192.3984375 545.571289062 209.3984375 589.204101562 c 0
 216.764648438 609.037109375 226.681640625 628.303710938 239.149414062 647.00390625 c 0
 251.616210938 665.704101562 266.348632812 683.270507812 283.348632812 699.704101562 c 0
 299.782226562 715.571289062 318.19921875 728.603515625 338.598632812 738.803710938 c 0
 358.461914062 748.466796875 378.0703125 753.298828125 397.423828125 753.298828125 c 0
 398.5 753.298828125 399.575195312 753.284179688 400.649414062 753.25390625 c 0
 416.515625 753.25390625 428.416015625 748.436523438 436.348632812 738.803710938 c 0
 442.58203125 731.436523438 445.69921875 721.237304688 445.69921875 708.204101562 c 0
 445.69921875 692.904296875 440.881835938 681.571289062 431.249023438 674.204101562 c 0
 422.181640625 667.404296875 411.415039062 664.00390625 398.948242188 664.00390625 c 0
 386.481445312 664.00390625 374.581054688 660.037109375 363.248046875 652.103515625 c 0
 351.915039062 644.737304688 341.71484375 634.25390625 332.6484375 620.654296875 c 0
 314.514648438 593.454101562 300.915039062 559.454101562 291.84765625 518.654296875 c 0
 284.481445312 488.62109375 279.380859375 448.670898438 276.547851562 398.803710938 c 0
 275.2734375 379.25390625 274.635742188 361.298828125 274.635742188 344.936523438 c 0
 274.635742188 339.482421875 274.706054688 334.204101562 274.84765625 329.103515625 c 0
 274.84765625 308.704101562 275.415039062 290.571289062 276.547851562 274.704101562 c 0
 279.380859375 241.270507812 285.331054688 208.404296875 294.3984375 176.103515625 c 0
 303.46484375 143.803710938 314.232421875 116.603515625 326.69921875 94.50390625 c 0
 338.598632812 71.8369140625 351.348632812 53.7041015625 364.94921875 40.103515625 c 0
 377.416015625 27.63671875 389.033203125 21.404296875 399.799804688 21.404296875 c 0
 413.399414062 21.404296875 424.450195312 17.720703125 432.950195312 10.353515625 c 0
 440.8828125 2.9873046875 444.849609375 -9.7626953125 444.849609375 -27.896484375 c 0
EndSplineSet
Validated: 524289
EndChar

StartChar: parenright
Encoding: 41 41 9
Width: 570
VWidth: 901
GlyphClass: 2
Flags: W
HStem: -71.2422 92.6494<183.4 253.122> 664.009 89.335<185.176 265.895>
VStem: 341.363 104.336<171.545 530.138>
LayerCount: 2
Fore
SplineSet
216.200195312 -71.2421875 m 0
 205.432617188 -71.2421875 195.233398438 -66.9912109375 185.600585938 -58.4912109375 c 0
 175.967773438 -50.55859375 171.150390625 -40.3583984375 171.150390625 -27.8916015625 c 0
 171.150390625 -9.7587890625 175.118164062 2.9912109375 183.05078125 10.3583984375 c 0
 190.455078125 17.7626953125 200.573242188 21.4638671875 213.407226562 21.4638671875 c 0
 214.325195312 21.4638671875 215.255859375 21.4453125 216.201171875 21.4072265625 c 0
 226.400390625 21.4072265625 237.733398438 27.640625 250.201171875 40.107421875 c 0
 264.368164062 53.7080078125 277.400390625 71.8408203125 289.30078125 94.5078125 c 0
 301.201171875 117.174804688 311.967773438 144.375 321.600585938 176.107421875 c 0
 330.66796875 208.407226562 336.618164062 241.274414062 339.451171875 274.708007812 c 0
 340.725585938 287.45703125 341.36328125 301.163085938 341.36328125 315.825195312 c 0
 341.36328125 320.712890625 341.29296875 325.70703125 341.150390625 330.807617188 c 0
 341.150390625 350.640625 340.583984375 373.307617188 339.451171875 398.807617188 c 0
 336.618164062 448.674804688 331.517578125 488.625 324.150390625 518.657226562 c 0
 315.083984375 558.890625 301.483398438 592.890625 283.350585938 620.657226562 c 0
 274.850585938 634.2578125 264.650390625 644.740234375 252.750976562 652.107421875 c 0
 241.41796875 659.474609375 229.517578125 663.44140625 217.05078125 664.008789062 c 0
 204.583984375 664.008789062 193.81640625 667.408203125 184.75 674.208007812 c 0
 175.1171875 681.575195312 170.299804688 692.908203125 170.299804688 708.208007812 c 0
 170.299804688 716.708007812 171.716796875 724.358398438 174.549804688 731.158203125 c 0
 177.3828125 737.391601562 181.6328125 742.491210938 187.299804688 746.458007812 c 0
 194.439453125 751.047851562 202.7265625 753.34375 212.161132812 753.34375 c 0
 213.209960938 753.34375 214.272460938 753.315429688 215.349609375 753.258789062 c 0
 236.31640625 753.258789062 257 748.44140625 277.400390625 738.80859375 c 0
 297.799804688 728.608398438 316.216796875 715.575195312 332.650390625 699.708007812 c 0
 349.083007812 683.841796875 363.533203125 666.274414062 376 647.0078125 c 0
 388.466796875 628.307617188 398.666992188 609.041015625 406.599609375 589.208007812 c 0
 423.033203125 545.57421875 434.366210938 490.041015625 440.598632812 422.608398438 c 0
 443.999023438 383.508789062 445.69921875 350.92578125 445.69921875 324.858398438 c 0
 445.69921875 298.791015625 444.848632812 276.974609375 443.149414062 259.407226562 c 0
 436.916015625 195.375 423.8828125 138.708007812 404.049804688 89.4072265625 c 0
 384.216796875 40.107421875 357.8671875 1.0078125 325 -27.892578125 c 0
 293.266601562 -56.7919921875 257 -71.2421875 216.200195312 -71.2421875 c 0
EndSplineSet
Validated: 524289
EndChar

StartChar: asterisk
Encoding: 42 42 10
Width: 570
VWidth: 902
GlyphClass: 2
Flags: W
HStem: 297.702 101.15<98.5012 220.427 424.809 523.055> 301.951 85.8516<387.05 485.54>
LayerCount: 2
Fore
SplineSet
234.049804688 138.75 m 2x40
 225.546875 138.75 l 2
 221.580078125 138.75 216.622070312 139.3203125 210.671875 140.453125 c 0
 204.72265625 141.586914062 198.9140625 143.850585938 193.247070312 147.25 c 0
 187.580078125 150.650390625 182.48046875 155.75390625 177.947265625 162.553710938 c 0
 173.4140625 169.353515625 170.296875 177.287109375 168.59765625 186.353515625 c 2
 168.59765625 192.303710938 l 2
 168.59765625 200.803710938 170.864257812 209.583984375 175.397460938 218.651367188 c 2
 222.147460938 294.303710938 l 1
 185.314453125 292.037109375 157.264648438 290.903320312 137.997070312 290.903320312 c 0
 120.997070312 290.903320312 107.680664062 296.5703125 98.046875 307.903320312 c 0
 89.546875 318.103515625 85.0146484375 330.00390625 84.447265625 343.603515625 c 2
 84.447265625 346.153320312 l 2
 84.447265625 357.486328125 87.564453125 368.819335938 93.796875 380.15234375 c 0
 97.7646484375 386.953125 103.713867188 392.052734375 111.647460938 395.453125 c 0
 117.879882812 398.286132812 124.680664062 399.703125 132.046875 399.703125 c 2
 136.296875 399.703125 l 2
 158.963867188 398.002929688 190.981445312 395.736328125 232.34765625 392.90234375 c 1
 212.514648438 425.76953125 195.797851562 451.552734375 182.198242188 470.252929688 c 0
 174.264648438 483.286132812 170.297851562 496.036132812 170.297851562 508.502929688 c 0
 170.297851562 510.76953125 170.581054688 513.037109375 171.1484375 515.303710938 c 0
 172.84765625 531.170898438 179.6484375 542.220703125 191.547851562 548.453125 c 0
 198.915039062 552.986328125 207.2734375 555.25390625 216.623046875 555.25390625 c 0
 225.97265625 555.25390625 235.46484375 552.419921875 245.09765625 546.752929688 c 0
 254.731445312 541.0859375 262.380859375 532.870117188 268.047851562 522.102539062 c 0
 273.71484375 510.203125 287.315429688 483.569335938 308.84765625 442.203125 c 1
 325.28125 471.669921875 338.880859375 498.01953125 349.6484375 521.252929688 c 0
 354.748046875 532.01953125 361.831054688 540.094726562 370.8984375 545.477539062 c 0
 379.96484375 550.861328125 388.748046875 553.552734375 397.248046875 553.552734375 c 0
 406.315429688 553.552734375 414.815429688 551.286132812 422.748046875 546.752929688 c 0
 430.115234375 542.786132812 436.065429688 536.977539062 440.59765625 529.328125 c 0
 445.130859375 521.677734375 447.3984375 512.752929688 447.3984375 502.552734375 c 0
 447.3984375 491.219726562 443.998046875 480.736328125 437.198242188 471.103515625 c 0
 421.8984375 448.436523438 404.8984375 420.669921875 386.198242188 387.802734375 c 1x40
 425.297851562 388.370117188 453.630859375 391.203125 471.198242188 396.302734375 c 0
 478.565429688 398.002929688 483.381835938 398.852539062 485.6484375 398.852539062 c 0x80
 496.416015625 398.852539062 505.765625 395.169921875 513.69921875 387.802734375 c 0x40
 525.032226562 377.036132812 530.982421875 365.418945312 531.548828125 352.952148438 c 0
 531.548828125 340.485351562 528.431640625 328.584960938 522.19921875 317.251953125 c 0
 518.232421875 310.452148438 512.848632812 305.069335938 506.048828125 301.1015625 c 0
 500.94921875 298.834960938 495.565429688 297.702148438 489.8984375 297.702148438 c 0x80
 487.065429688 297.702148438 484.232421875 297.985351562 481.399414062 298.551757812 c 0
 469.594726562 300.913085938 450.315429688 302.092773438 423.560546875 302.092773438 c 0
 418.206054688 302.092773438 412.552734375 302.045898438 406.599609375 301.951171875 c 2
 387.049804688 301.951171875 l 1
 435.5 218.651367188 l 2
 441.732421875 206.184570312 444.849609375 194.8515625 444.849609375 184.651367188 c 0
 444.849609375 182.383789062 444.56640625 180.1171875 444 177.850585938 c 0
 442.299804688 164.25 436.349609375 154.6171875 426.149414062 148.950195312 c 0
 418.216796875 143.850585938 408.299804688 141.30078125 396.399414062 141.30078125 c 0
 387.333007812 141.30078125 378.265625 143.283203125 369.19921875 147.25 c 0
 357.866210938 152.350585938 350.215820312 160.850585938 346.249023438 172.75 c 0
 340.015625 191.450195312 328.682617188 217.517578125 312.25 250.950195312 c 1
 291.283203125 209.017578125 277.965820312 180.966796875 272.298828125 166.80078125 c 0
 269.465820312 157.733398438 264.5078125 150.93359375 257.424804688 146.400390625 c 0
 250.341796875 141.8671875 242.549804688 139.317382812 234.049804688 138.75 c 2x40
EndSplineSet
Validated: 524289
EndChar

StartChar: plus
Encoding: 43 43 11
Width: 570
VWidth: 909
GlyphClass: 2
Flags: W
HStem: 354.024 90.0986<148.601 262.099 351.349 469.177>
VStem: 262.099 89.25<237.896 353.173 444.973 564.475>
LayerCount: 2
Fore
SplineSet
350.5 354.875 m 1
 351.348632812 272.423828125 l 2
 351.348632812 255.991210938 347.381835938 244.374023438 339.44921875 237.57421875 c 0
 331.515625 230.20703125 321.598632812 226.240234375 309.69921875 225.672851562 c 2
 308.848632812 225.672851562 l 2
 295.249023438 225.672851562 284.765625 228.790039062 277.399414062 235.0234375 c 0
 267.19921875 242.956054688 262.098632812 255.422851562 262.098632812 272.422851562 c 2
 262.098632812 353.172851562 l 1
 186.44921875 352.323242188 l 2
 169.44921875 352.323242188 156.69921875 356.856445312 148.19921875 365.922851562 c 0
 139.131835938 374.990234375 134.598632812 386.040039062 134.598632812 399.073242188 c 2
 134.598632812 401.623046875 l 2
 134.598632812 413.5234375 138.56640625 424.005859375 146.499023438 433.073242188 c 0
 154.999023438 442.139648438 167.181640625 446.672851562 183.048828125 446.672851562 c 0
 184.181640625 446.672851562 193.249023438 446.389648438 210.249023438 445.823242188 c 0
 227.249023438 445.255859375 244.532226562 444.97265625 262.098632812 444.97265625 c 1
 262.098632812 478.40625 261.249023438 506.739257812 259.548828125 529.97265625 c 0
 259.548828125 545.838867188 264.931640625 557.456054688 275.69921875 564.823242188 c 0
 283.631835938 570.490234375 293.83203125 573.323242188 306.298828125 573.323242188 c 2
 309.69921875 573.323242188 l 2
 321.598632812 573.323242188 331.798828125 570.490234375 340.298828125 564.823242188 c 0
 349.931640625 558.0234375 354.749023438 546.97265625 354.749023438 531.672851562 c 2
 354.749023438 526.573242188 l 2
 353.048828125 497.672851562 351.916015625 470.190429688 351.348632812 444.123046875 c 1
 434.649414062 444.123046875 l 2
 451.08203125 444.123046875 462.69921875 440.15625 469.499023438 432.22265625 c 0
 476.298828125 424.290039062 480.265625 414.373046875 481.399414062 402.47265625 c 2
 481.399414062 401.623046875 l 2
 481.399414062 395.389648438 480.83203125 390.006835938 479.69921875 385.473632812 c 0
 478.56640625 380.374023438 476.298828125 375.2734375 472.899414062 370.173828125 c 0
 468.931640625 363.940429688 463.548828125 359.408203125 456.749023438 356.57421875 c 0
 451.649414062 354.875 445.982421875 354.024414062 439.749023438 354.024414062 c 2
 433.798828125 354.024414062 l 2
 425.298828125 355.158203125 413.116210938 355.724609375 397.249023438 355.724609375 c 0
 380.81640625 355.724609375 365.232421875 355.44140625 350.5 354.875 c 1
EndSplineSet
Validated: 524289
EndChar

StartChar: comma
Encoding: 44 44 12
Width: 570
VWidth: 845
GlyphClass: 2
Flags: W
VStem: 210.253 195.499
LayerCount: 2
Fore
SplineSet
283.350585938 -194.5 m 0
 274.283203125 -197.900390625 266.3515625 -199.598632812 259.551757812 -199.598632812 c 0
 252.751953125 -199.598632812 246.801757812 -198.465820312 241.702148438 -196.19921875 c 0
 234.334960938 -193.932617188 227.53515625 -189.682617188 221.301757812 -183.44921875 c 0
 215.069335938 -177.215820312 211.385742188 -169.283203125 210.252929688 -159.650390625 c 2
 210.252929688 -154.549804688 l 2
 210.252929688 -146.049804688 213.0859375 -137.549804688 218.752929688 -129.049804688 c 0
 230.0859375 -113.182617188 245.953125 -76.6328125 266.352539062 -19.400390625 c 0
 286.752929688 36.7001953125 299.502929688 76.650390625 304.602539062 100.450195312 c 0
 306.870117188 110.650390625 311.969726562 118.583007812 319.903320312 124.25 c 0
 327.8359375 130.483398438 336.619140625 133.599609375 346.251953125 133.599609375 c 2
 347.952148438 133.599609375 l 2
 354.751953125 133.599609375 361.834960938 133.033203125 369.202148438 131.900390625 c 0
 380.53515625 128.5 389.884765625 121.700195312 397.251953125 111.5 c 0
 402.918945312 103.567382812 405.751953125 94.7841796875 405.751953125 85.1513671875 c 0
 405.751953125 81.18359375 405.46875 77.7841796875 404.90234375 74.951171875 c 0
 399.235351562 47.18359375 386.768554688 4.1171875 367.500976562 -54.25 c 0
 348.234375 -113.182617188 333.500976562 -149.733398438 323.30078125 -163.900390625 c 0
 312.534179688 -178.6328125 299.217773438 -188.833007812 283.350585938 -194.5 c 0
EndSplineSet
Validated: 524289
EndChar

StartChar: hyphen
Encoding: 45 45 13
Width: 570
VWidth: 893
GlyphClass: 2
Flags: W
HStem: 238.626 95.1992<181.723 437.728> 246.277 90.0996<319.672 437.728>
VStem: 166.05 283.9<262.774 324.103>
LayerCount: 2
Fore
SplineSet
211.950195312 333.825195312 m 0xa0
 244.25 333.825195312 282.5 334.109375 326.700195312 334.67578125 c 0
 371.466796875 335.243164062 396.966796875 335.809570312 403.200195312 336.376953125 c 0
 419.6328125 336.376953125 431.25 332.41015625 438.049804688 324.4765625 c 0
 444.849609375 316.543945312 448.817382812 306.626953125 449.950195312 294.7265625 c 2
 449.950195312 293.876953125 l 2
 449.950195312 280.27734375 446.833007812 269.793945312 440.599609375 262.426757812 c 0
 432.666992188 252.2265625 420.200195312 246.84375 403.200195312 246.27734375 c 0x60
 395.833007812 246.27734375 367.215820312 245.143554688 317.349609375 242.876953125 c 0
 267.482421875 240.610351562 232.631835938 239.193359375 212.798828125 238.625976562 c 0
 199.765625 238.625976562 189.283203125 242.026367188 181.349609375 248.826171875 c 0
 171.150390625 256.758789062 166.049804688 268.942382812 166.049804688 285.375 c 2
 166.049804688 289.625 l 2
 166.049804688 305.4921875 171.150390625 317.392578125 181.349609375 325.325195312 c 0
 188.716796875 330.9921875 198.916992188 333.825195312 211.950195312 333.825195312 c 0xa0
EndSplineSet
Validated: 524289
EndChar

StartChar: period
Encoding: 46 46 14
Width: 570
VWidth: 859
GlyphClass: 2
Flags: W
HStem: -12.6475 151.331<254.324 362.341>
VStem: 228.028 158.981<13.8255 112.81>
LayerCount: 2
Fore
SplineSet
301.127929688 -12.6474609375 m 2
 281.294921875 -12.6474609375 264.579101562 -5.84765625 250.978515625 7.7529296875 c 0
 235.678710938 23.6201171875 228.028320312 42.037109375 228.028320312 63.00390625 c 0
 228.028320312 83.970703125 236.528320312 101.8203125 253.528320312 116.553710938 c 0
 270.467773438 131.306640625 289.250976562 138.68359375 309.877929688 138.68359375 c 0
 310.642578125 138.68359375 311.409179688 138.673828125 312.178710938 138.653320312 c 0
 333.711914062 138.653320312 351.561523438 131.853515625 365.728515625 118.25390625 c 0
 379.916015625 104.06640625 387.009765625 87.251953125 387.009765625 67.8095703125 c 0
 387.009765625 56.6474609375 386.46875 33.5732421875 366.578125 12.8525390625 c 0
 352.411132812 -1.314453125 333.7109375 -9.814453125 310.477539062 -12.6474609375 c 2
 301.127929688 -12.6474609375 l 2
EndSplineSet
Validated: 524289
EndChar

StartChar: slash
Encoding: 47 47 15
Width: 570
VWidth: 901
GlyphClass: 2
Flags: W
HStem: -10.9971 21G<123.795 131.728>
LayerCount: 2
Fore
SplineSet
151.5625 -5.0498046875 m 0
 143.629882812 -9.0166015625 135.694335938 -10.9970703125 127.76171875 -10.9970703125 c 0
 119.828125 -10.9970703125 112.461914062 -8.73046875 105.662109375 -4.197265625 c 0
 94.328125 2.6025390625 87.5283203125 15.6357421875 85.26171875 34.9033203125 c 0
 84.6943359375 37.736328125 84.6943359375 40.8525390625 85.26171875 44.2529296875 c 0
 85.26171875 59.552734375 89.228515625 73.7197265625 97.162109375 86.7529296875 c 0
 179.89453125 222.752929688 250.727539062 343.453125 309.661132812 448.852539062 c 1
 346.494140625 513.453125 385.59375 587.120117188 426.9609375 669.852539062 c 0
 432.627929688 680.620117188 439.995117188 688.552734375 449.061523438 693.653320312 c 0
 458.12890625 699.3203125 467.1953125 702.436523438 476.262695312 703.00390625 c 0
 485.329101562 703.00390625 494.396484375 701.020507812 503.462890625 697.053710938 c 0
 516.49609375 690.25390625 524.99609375 680.053710938 528.962890625 666.454101562 c 0
 530.096679688 662.487304688 530.663085938 658.51953125 530.663085938 654.552734375 c 0
 530.663085938 644.919921875 527.830078125 634.153320312 522.163085938 622.252929688 c 0
 507.430664062 592.786132812 466.063476562 521.668945312 398.063476562 408.90234375 c 0
 330.063476562 296.134765625 288.696289062 225.868164062 273.962890625 198.1015625 c 0
 264.896484375 180.534179688 250.163085938 150.784179688 229.763671875 108.8515625 c 0
 209.36328125 66.91796875 196.61328125 41.41796875 191.513671875 32.3515625 c 0
 180.74609375 14.7841796875 167.4296875 2.3173828125 151.5625 -5.0498046875 c 0
EndSplineSet
Validated: 524289
EndChar

StartChar: zero
Encoding: 48 48 16
Width: 570
VWidth: 902
GlyphClass: 2
Flags: W
HStem: 31.6494 91.7959<227.997 372.883> 572.246 90.1035<241.319 378.044>
VStem: 87.001 101.151<246.696 504.098> 427.284 101.718<188.819 441.346>
LayerCount: 2
Fore
SplineSet
426.151367188 441.345703125 m 1
 364.383789062 333.112304688 293.268554688 240.74609375 212.801757812 164.24609375 c 1
 228.1015625 137.612304688 253.034179688 124.012695312 287.600585938 123.4453125 c 0
 304.034179688 123.4453125 318.202148438 124.720703125 330.1015625 127.270507812 c 0
 342.001953125 129.8203125 353.334960938 133.928710938 364.1015625 139.595703125 c 0
 385.634765625 150.928710938 402.068359375 173.87890625 413.401367188 208.4453125 c 0
 415.66796875 215.24609375 418.217773438 233.520507812 421.05078125 263.270507812 c 0
 423.883789062 293.020507812 425.8671875 327.4453125 427 366.545898438 c 0
 427.189453125 375.049804688 427.284179688 383.491210938 427.284179688 391.869140625 c 0
 427.284179688 408.61328125 426.90625 425.10546875 426.151367188 441.345703125 c 1
359.8515625 562.047851562 m 0
 345.119140625 568.84765625 328.967773438 572.24609375 311.401367188 572.24609375 c 0
 280.234375 572.24609375 256.008789062 564.454101562 238.725585938 548.87109375 c 0
 221.443359375 533.288085938 207.985351562 506.795898438 198.3515625 469.395507812 c 0
 194.384765625 454.663085938 191.551757812 439.080078125 189.8515625 422.646484375 c 0
 188.71875 405.646484375 188.15234375 386.379882812 188.15234375 364.846679688 c 0
 188.15234375 330.846679688 189.000976562 291.463867188 190.701171875 246.696289062 c 1
 264.368164062 340.763671875 331.801757812 437.380859375 393.001953125 536.547851562 c 1
 383.369140625 547.314453125 372.318359375 555.814453125 359.8515625 562.047851562 c 0
524.75 469.395507812 m 2
 524.75 468.547851562 l 2
 527.583007812 435.115234375 529.001953125 401.112304688 529.001953125 366.545898438 c 0
 529.001953125 331.978515625 527.869140625 297.981445312 525.6015625 264.547851562 c 0
 523.334960938 231.115234375 519.65234375 204.765625 514.551757812 185.498046875 c 0
 504.3515625 149.231445312 491.6015625 119.764648438 476.301757812 97.09765625 c 0
 468.369140625 85.7646484375 459.443359375 76.130859375 449.52734375 68.1982421875 c 0
 439.610351562 60.265625 429.267578125 54.0322265625 418.500976562 49.4990234375 c 0
 407.16796875 44.9658203125 394.41796875 40.9990234375 380.250976562 37.5986328125 c 0
 365.517578125 34.765625 351.068359375 33.06640625 336.901367188 32.4990234375 c 0
 322.734375 31.9326171875 306.30078125 31.6494140625 287.600585938 31.6494140625 c 0
 257.000976562 31.6494140625 228.66796875 36.4658203125 202.600585938 46.0986328125 c 0
 178.234375 55.732421875 157.55078125 69.4736328125 140.55078125 87.32421875 c 0
 123.55078125 105.173828125 110.517578125 126.56640625 101.451171875 151.499023438 c 0
 92.3837890625 176.432617188 87.8505859375 203.348632812 87.8505859375 232.249023438 c 2
 87.8505859375 237.348632812 l 2
 87.8505859375 265.116210938 87.568359375 291.182617188 87.0009765625 315.549804688 c 0
 87.0009765625 333.1171875 87.42578125 354.650390625 88.2763671875 380.150390625 c 0
 89.1259765625 405.650390625 90.54296875 426.7578125 92.5263671875 443.474609375 c 0
 94.5087890625 460.19140625 97.484375 478.18359375 101.451171875 497.451171875 c 0
 105.41796875 517.284179688 110.517578125 534.56640625 116.750976562 549.299804688 c 0
 131.484375 586.1328125 156.133789062 614.182617188 190.701171875 633.450195312 c 0
 228.100585938 652.716796875 273.434570312 662.349609375 326.701171875 662.349609375 c 0
 353.333984375 662.349609375 378.267578125 658.3828125 401.5 650.450195312 c 0
 424.166992188 642.516601562 444.142578125 630.6171875 461.424804688 614.75 c 0
 478.708007812 598.8828125 492.875 578.625 503.924804688 553.974609375 c 0
 514.975585938 529.325195312 521.916992188 501.12890625 524.75 469.395507812 c 2
EndSplineSet
Validated: 524289
EndChar

StartChar: one
Encoding: 49 49 17
Width: 570
VWidth: 904
GlyphClass: 2
Flags: W
HStem: 46.4307 94.3516<91.6209 254.446 365.8 521.824>
VStem: 253.597 109.653<145.032 487.007> 263.797 104.553<380.243 526.682>
LayerCount: 2
Fore
SplineSet
535.799804688 96.5810546875 m 1xc0
 535.799804688 94.03125 l 2
 535.799804688 80.998046875 531.830078125 69.9482421875 523.897460938 60.880859375 c 0
 515.397460938 51.248046875 500.947265625 46.4306640625 480.546875 46.4306640625 c 0
 265.780273438 48.130859375 147.913085938 49.263671875 126.946289062 49.8310546875 c 0
 111.079101562 49.8310546875 99.1796875 54.3642578125 91.24609375 63.4306640625 c 0
 83.8798828125 72.498046875 80.1962890625 83.5478515625 80.1962890625 96.5810546875 c 2
 80.1962890625 99.130859375 l 2
 80.1962890625 111.59765625 83.5966796875 122.365234375 90.396484375 131.431640625 c 0
 98.3291015625 141.631835938 110.796875 146.731445312 127.795898438 146.731445312 c 0
 151.596679688 146.731445312 193.813476562 146.165039062 254.446289062 145.032226562 c 1
 254.446289062 162.032226562 254.163085938 176.198242188 253.596679688 187.532226562 c 0
 253.029296875 192.631835938 252.74609375 207.365234375 252.74609375 231.731445312 c 0
 252.74609375 253.264648438 253.029296875 270.83203125 253.596679688 284.431640625 c 0xc0
 253.596679688 299.731445312 254.729492188 330.33203125 256.99609375 376.231445312 c 0
 260.962890625 462.365234375 263.23046875 512.514648438 263.796875 526.681640625 c 1
 226.963867188 501.181640625 198.9140625 485.032226562 179.647460938 478.231445312 c 0
 172.84765625 476.532226562 168.314453125 475.681640625 166.046875 475.681640625 c 0
 155.84765625 475.681640625 145.647460938 479.931640625 135.447265625 488.431640625 c 0
 121.84765625 499.764648438 115.046875 511.381835938 115.046875 523.282226562 c 0
 115.046875 534.615234375 117.59765625 544.389648438 122.697265625 552.606445312 c 0
 127.796875 560.823242188 136.013671875 569.181640625 147.34765625 577.681640625 c 0
 163.213867188 589.58203125 184.180664062 605.448242188 210.248046875 625.282226562 c 1
 221.014648438 626.981445312 231.782226562 634.631835938 242.548828125 648.231445312 c 0
 252.181640625 655.032226562 262.098632812 661.264648438 272.298828125 666.931640625 c 0
 281.571289062 672.083007812 290.375 674.659179688 298.7109375 674.659179688 c 0
 299.544921875 674.659179688 300.374023438 674.633789062 301.19921875 674.58203125 c 0
 317.065429688 674.58203125 332.932617188 668.915039062 348.799804688 657.58203125 c 0
 357.299804688 651.348632812 363.674804688 645.681640625 367.924804688 640.58203125 c 0
 372.174804688 635.481445312 374.299804688 630.381835938 374.299804688 625.282226562 c 2
 374.299804688 624.431640625 l 2
 373.732421875 611.3984375 371.75 566.7734375 368.349609375 490.556640625 c 0xa0
 364.94921875 414.33984375 363.25 369.71484375 363.25 356.681640625 c 0
 363.25 302.282226562 363.533203125 256.948242188 364.099609375 220.681640625 c 0
 364.099609375 201.981445312 364.666992188 175.631835938 365.799804688 141.631835938 c 1
 396.399414062 141.064453125 415.94921875 140.782226562 424.44921875 140.782226562 c 0
 432.3828125 140.782226562 443.0078125 140.639648438 456.32421875 140.356445312 c 0
 469.641601562 140.073242188 478.283203125 139.931640625 482.250976562 139.931640625 c 0
 500.950195312 139.931640625 514.267578125 135.823242188 522.200195312 127.606445312 c 0
 530.133789062 119.389648438 534.666992188 109.33203125 535.799804688 97.431640625 c 2
 535.799804688 96.5810546875 l 1xc0
EndSplineSet
Validated: 524289
EndChar

StartChar: two
Encoding: 50 50 18
Width: 570
VWidth: 902
GlyphClass: 2
Flags: W
HStem: 37.3477 92.166<196.304 462.793> 42.4473 96.8994<465.516 514.232> 573.698 92.6504<242.574 386.136>
VStem: 407.452 107.1<437.124 554.868>
LayerCount: 2
Fore
SplineSet
465.25 138.5 m 1xb0
 470.916992188 145.866210938 476.870117188 146.146484375 483.102539062 139.346679688 c 0
 484.802734375 139.346679688 488.060546875 139.204101562 492.877929688 138.921875 c 0
 497.694335938 138.638671875 501.51953125 137.788085938 504.352539062 136.37109375 c 0
 507.185546875 134.954101562 510.018554688 133.396484375 512.8515625 131.696289062 c 0
 517.384765625 128.86328125 520.501953125 125.462890625 522.202148438 121.49609375 c 0
 525.6015625 114.696289062 527.301757812 106.763671875 527.301757812 97.6962890625 c 0
 527.301757812 81.263671875 523.051757812 67.3798828125 514.551757812 56.046875 c 0
 507.751953125 46.98046875 498.96875 42.447265625 488.202148438 42.447265625 c 0x70
 447.96875 42.447265625 383.369140625 40.7470703125 294.40234375 37.34765625 c 0
 264.369140625 36.2138671875 233.486328125 35.6474609375 201.752929688 35.6474609375 c 0
 172.286132812 35.6474609375 149.3359375 36.7802734375 132.903320312 39.046875 c 0
 123.8359375 40.1806640625 115.903320312 43.86328125 109.102539062 50.0966796875 c 0
 104.002929688 54.6298828125 100.036132812 60.5791015625 97.203125 67.9462890625 c 0
 91.5361328125 82.6796875 88.703125 103.079101562 88.703125 129.146484375 c 0
 88.703125 155.212890625 94.0859375 181.563476562 104.852539062 208.196289062 c 0
 115.620117188 234.829101562 131.76953125 260.471679688 153.302734375 285.12109375 c 0
 174.8359375 309.771484375 200.619140625 329.74609375 230.65234375 345.046875 c 0
 296.952148438 377.346679688 339.452148438 400.013671875 358.15234375 413.046875 c 0
 380.819335938 428.913085938 395.551757812 445.629882812 402.3515625 463.197265625 c 0
 405.751953125 473.963867188 407.452148438 487.28125 407.452148438 503.1484375 c 0
 407.452148438 528.081054688 399.801757812 545.930664062 384.501953125 556.698242188 c 0
 368.069335938 568.03125 343.418945312 573.698242188 310.551757812 573.698242188 c 0
 288.452148438 573.698242188 267.34375 567.46484375 247.2265625 554.998046875 c 0
 227.110351562 542.53125 211.384765625 528.6484375 200.051757812 513.34765625 c 0
 194.384765625 505.415039062 188.435546875 498.756835938 182.202148438 493.374023438 c 0
 175.96875 487.991210938 169.452148438 485.015625 162.65234375 484.44921875 c 0
 160.384765625 484.44921875 157.834960938 484.166015625 155.001953125 483.598632812 c 0
 149.334960938 483.598632812 139.985351562 486.431640625 126.952148438 492.098632812 c 0
 114.485351562 498.8984375 106.551757812 508.532226562 103.15234375 520.999023438 c 0
 102.584960938 524.3984375 102.301757812 527.515625 102.301757812 530.348632812 c 0
 102.301757812 539.982421875 105.418945312 551.598632812 111.65234375 565.19921875 c 0
 117.884765625 577.098632812 126.952148438 588.857421875 138.8515625 600.473632812 c 0
 150.751953125 612.090820312 164.3515625 622.999023438 179.65234375 633.19921875 c 0
 196.084960938 643.3984375 215.634765625 651.473632812 238.301757812 657.423828125 c 0
 260.96875 663.374023438 283.918945312 666.348632812 307.15234375 666.348632812 c 0
 376.8515625 666.348632812 428.985351562 651.8984375 463.551757812 622.999023438 c 0
 497.551757812 594.098632812 514.551757812 550.749023438 514.551757812 492.94921875 c 0
 514.551757812 445.348632812 501.801757812 406.815429688 476.301757812 377.348632812 c 0
 457.6015625 356.381835938 423.6015625 333.431640625 374.301757812 308.499023438 c 0
 361.834960938 302.265625 340.301757812 292.065429688 309.702148438 277.8984375 c 0
 284.202148438 265.999023438 262.952148438 251.407226562 245.952148438 234.124023438 c 0
 228.952148438 216.840820312 216.485351562 199.1328125 208.551757812 181 c 0
 202.319335938 165.700195312 198.069335938 149.266601562 195.801757812 131.700195312 c 1
 224.4609375 130.2421875 251.87109375 129.513671875 278.032226562 129.513671875 c 0
 282.389648438 129.513671875 286.712890625 129.534179688 291.000976562 129.575195312 c 0
 321.034179688 129.857421875 344.267578125 130.283203125 360.700195312 130.849609375 c 0
 377.700195312 131.982421875 412.55078125 134.533203125 465.25 138.5 c 1xb0
EndSplineSet
Validated: 524289
EndChar

StartChar: three
Encoding: 51 51 19
Width: 570
VWidth: 902
GlyphClass: 2
Flags: W
HStem: 31.9346 91.8145<232.493 378.931> 312.449 106.25<202.537 351.757> 573.399 92.6514<229.583 375.776>
VStem: 395.477 107.947<456.205 555.338> 416.725 105.4<158.827 272.805>
LayerCount: 2
Fore
SplineSet
512.775390625 289.923828125 m 0xf0
 519.0078125 271.506835938 522.125 249.829101562 522.125 224.896484375 c 0
 522.125 165.962890625 503.141601562 118.930664062 465.174804688 83.796875 c 0
 426.696289062 49.2216796875 371.478515625 31.9345703125 299.521484375 31.9345703125 c 0
 298.360351562 31.9345703125 297.1953125 31.939453125 296.025390625 31.9482421875 c 0
 272.791992188 31.9482421875 249.841796875 35.0654296875 227.174804688 41.2978515625 c 0
 204.5078125 47.53125 185.3828125 55.4638671875 169.799804688 65.09765625 c 0
 154.216796875 74.73046875 140.474609375 85.4970703125 128.575195312 97.3974609375 c 0
 116.674804688 109.296875 107.75 121.055664062 101.799804688 132.671875 c 0
 95.849609375 144.2890625 92.875 155.197265625 92.875 165.397460938 c 0
 92.875 168.796875 93.4423828125 172.197265625 94.5751953125 175.59765625 c 0
 97.408203125 189.764648438 105.057617188 199.680664062 117.525390625 205.34765625 c 0
 126.591796875 209.880859375 135.091796875 212.1484375 143.025390625 212.1484375 c 0
 160.025390625 212.1484375 175.325195312 203.081054688 188.924804688 184.948242188 c 0
 201.391601562 168.514648438 217.541992188 154.20703125 237.375 142.0234375 c 0
 257.208007812 129.840820312 278.174804688 123.749023438 300.275390625 123.749023438 c 0
 334.841796875 123.749023438 362.891601562 132.107421875 384.424804688 148.82421875 c 0
 405.958007812 165.541015625 416.724609375 186.6484375 416.724609375 212.1484375 c 0xe8
 416.724609375 228.58203125 413.891601562 242.607421875 408.224609375 254.223632812 c 0
 402.557617188 265.840820312 393.6328125 276.041015625 381.450195312 284.82421875 c 0
 369.266601562 293.607421875 351.984375 300.407226562 329.600585938 305.223632812 c 0
 307.217773438 310.041015625 279.875976562 312.44921875 247.576171875 312.44921875 c 0
 231.142578125 312.44921875 217.54296875 318.116210938 206.775390625 329.44921875 c 0
 195.442382812 340.782226562 189.775390625 353.532226562 189.775390625 367.69921875 c 0
 189.775390625 381.866210938 193.743164062 393.765625 201.67578125 403.3984375 c 0
 210.743164062 413.598632812 223.775390625 418.69921875 240.775390625 418.69921875 c 0
 290.642578125 418.69921875 329.459960938 426.916015625 357.2265625 443.348632812 c 0
 382.7265625 458.6484375 395.4765625 480.749023438 395.4765625 509.6484375 c 2
 395.4765625 512.19921875 l 1
 395.4765625 515.598632812 l 2
 395.4765625 534.866210938 387.543945312 549.033203125 371.676757812 558.099609375 c 0
 352.9765625 568.299804688 325.776367188 573.399414062 290.076171875 573.399414062 c 0
 279.309570312 573.399414062 267.692382812 571.700195312 255.225585938 568.299804688 c 0
 251.826171875 567.166992188 247.859375 565.041992188 243.326171875 561.924804688 c 0
 238.79296875 558.807617188 235.250976562 556.2578125 232.701171875 554.274414062 c 0
 230.150390625 552.291992188 226.750976562 549.033203125 222.500976562 544.500976562 c 0
 218.250976562 539.967773438 215.275390625 536.567382812 213.576171875 534.30078125 c 0
 210.17578125 523.533203125 207.05859375 519.56640625 204.225585938 522.399414062 c 1
 192.892578125 507.666992188 181.275390625 498.883789062 169.375976562 496.05078125 c 0
 165.975585938 494.91796875 162.29296875 494.350585938 158.326171875 494.350585938 c 0
 149.826171875 494.350585938 141.04296875 496.900390625 131.975585938 502.000976562 c 0
 119.508789062 508.233398438 111.859375 518.150390625 109.025390625 531.750976562 c 0
 108.458984375 535.150390625 108.17578125 538.55078125 108.17578125 541.950195312 c 0
 108.17578125 552.150390625 111.008789062 563.200195312 116.67578125 575.100585938 c 0
 128.576171875 599.467773438 146.993164062 620.150390625 171.92578125 637.150390625 c 0
 184.958984375 646.217773438 201.391601562 653.30078125 221.224609375 658.400390625 c 0
 241.057617188 663.500976562 262.590820312 666.05078125 285.82421875 666.05078125 c 0
 360.624023438 666.05078125 415.874023438 652.16796875 451.57421875 624.400390625 c 0
 486.140625 596.633789062 503.423828125 556.116210938 503.423828125 502.849609375 c 2
 503.423828125 499.450195312 l 1
 503.423828125 496.899414062 l 2
 503.423828125 481.033203125 501.015625 466.158203125 496.19921875 452.274414062 c 0
 491.381835938 438.391601562 484.865234375 426.633789062 476.6484375 417.000976562 c 0
 468.431640625 407.3671875 458.65625 398.8671875 447.323242188 391.500976562 c 0
 435.990234375 384.133789062 424.373046875 378.466796875 412.473632812 374.5 c 1
 421.540039062 371.666992188 429.756835938 368.833984375 437.124023438 366.000976562 c 0
 454.69140625 358.633789062 470.1328125 348.716796875 483.450195312 336.25 c 0
 496.766601562 323.783203125 506.541992188 308.340820312 512.775390625 289.923828125 c 0xf0
EndSplineSet
Validated: 524289
EndChar

StartChar: four
Encoding: 52 52 20
Width: 570
VWidth: 902
GlyphClass: 2
Flags: W
HStem: 238.799 76.501<197.683 369.198 455.05 512.992>
VStem: 363.25 75.6494<392.344 553.299> 369.198 92.6514<44.0773 237.95> 369.198 85.002<315.3 551.981>
LayerCount: 2
Fore
SplineSet
460.149414062 102.799804688 m 0x90
 461.283203125 96 461.849609375 89.7666015625 461.849609375 84.099609375 c 0
 461.849609375 72.7666015625 459.583007812 62.849609375 455.049804688 54.349609375 c 0
 447.682617188 40.1826171875 436.916015625 33.099609375 422.749023438 33.099609375 c 0
 410.848632812 33.099609375 399.090820312 37.4921875 387.473632812 46.275390625 c 0
 375.857421875 55.0576171875 369.764648438 64.265625 369.198242188 73.8994140625 c 0xa0
 368.630859375 80.69921875 368.348632812 91.4658203125 368.348632812 106.19921875 c 2
 368.348632812 170.798828125 l 2
 368.348632812 194.032226562 368.630859375 216.69921875 369.198242188 238.798828125 c 1x90
 330.948242188 238.798828125 l 2
 247.081054688 238.798828125 187.864257812 235.116210938 153.296875 227.749023438 c 0
 149.330078125 226.616210938 145.080078125 226.19140625 140.546875 226.473632812 c 0
 136.014648438 226.756835938 131.481445312 227.46484375 126.948242188 228.598632812 c 0
 119.015625 231.431640625 112.640625 235.823242188 107.823242188 241.7734375 c 0
 103.005859375 247.723632812 99.3232421875 254.5234375 96.7734375 262.172851562 c 0
 94.2236328125 269.823242188 92.9482421875 277.615234375 92.9482421875 285.547851562 c 0
 92.9482421875 294.615234375 94.365234375 303.115234375 97.1982421875 311.047851562 c 0
 102.865234375 327.481445312 118.165039062 353.40625 143.098632812 388.823242188 c 0
 168.03125 424.240234375 200.8984375 468.297851562 241.698242188 520.998046875 c 0
 277.96484375 567.46484375 306.865234375 605.432617188 328.3984375 634.899414062 c 0
 336.331054688 645.666015625 345.3984375 654.024414062 355.598632812 659.973632812 c 0
 365.797851562 665.923828125 375.71484375 668.899414062 385.348632812 668.899414062 c 2
 391.297851562 668.899414062 l 2
 401.498046875 668.899414062 410.848632812 666.916015625 419.348632812 662.94921875 c 0
 430.115234375 657.282226562 436.631835938 647.649414062 438.899414062 634.048828125 c 2
 438.899414062 633.19921875 l 1xc0
 442.298828125 613.366210938 445.131835938 583.19140625 447.399414062 542.673828125 c 0
 449.666015625 502.157226562 451.083007812 467.732421875 451.649414062 439.399414062 c 0
 452.216796875 397.465820312 453.06640625 355.81640625 454.200195312 314.44921875 c 1
 462.700195312 313.881835938 472.049804688 313.598632812 482.25 313.598632812 c 0
 496.982421875 313.598632812 507.325195312 310.340820312 513.274414062 303.82421875 c 0
 519.224609375 297.307617188 522.482421875 288.94921875 523.049804688 278.749023438 c 2
 523.049804688 277.900390625 l 2
 523.049804688 266 520.216796875 256.650390625 514.549804688 249.849609375 c 0
 507.75 241.349609375 496.982421875 237.099609375 482.25 237.099609375 c 0
 472.6171875 237.099609375 463.549804688 237.3828125 455.049804688 237.950195312 c 1
 456.182617188 159.182617188 457.8828125 114.1328125 460.149414062 102.799804688 c 0x90
311.399414062 315.299804688 m 2
 369.198242188 315.299804688 l 1x90
 369.198242188 413.333007812 367.216796875 492.666015625 363.25 553.298828125 c 1xc0
 282.783203125 451.866210938 227.25 371.682617188 196.649414062 312.75 c 1
 228.3828125 314.450195312 266.6328125 315.299804688 311.399414062 315.299804688 c 2
EndSplineSet
Validated: 524289
EndChar

StartChar: five
Encoding: 53 53 21
Width: 570
VWidth: 902
GlyphClass: 2
Flags: W
HStem: 36.748 92.6504<213.488 360.991> 398.848 96.0859<244.151 397.054> 567.146 88.3984<197.424 477.402>
VStem: 93.7246 101.149<448.516 564.595> 425.223 105.401<199.306 369.924>
LayerCount: 2
Fore
SplineSet
97.974609375 528.899414062 m 0
 99.107421875 546.465820312 99.669921875 559.493164062 99.669921875 567.993164062 c 1
 93.9560546875 577.342773438 91.099609375 588.12109375 91.099609375 600.327148438 c 0
 91.099609375 611.431640625 91.5498046875 631.234375 108.170898438 646.193359375 c 0
 116.103515625 653.560546875 125.170898438 657.243164062 135.37109375 657.243164062 c 0
 156.337890625 657.243164062 209.037109375 656.676757812 293.470703125 655.543945312 c 0
 379.037109375 654.41015625 442.220703125 653.84375 483.020507812 653.84375 c 0
 493.787109375 653.84375 502.5703125 649.310546875 509.37109375 640.243164062 c 0
 517.87109375 628.91015625 522.12109375 615.02734375 522.12109375 598.594726562 c 0
 522.12109375 581.594726562 517.303710938 570.26171875 507.670898438 564.594726562 c 0
 504.837890625 562.89453125 502.004882812 561.477539062 499.171875 560.344726562 c 0
 496.338867188 559.2109375 492.513671875 558.502929688 487.696289062 558.219726562 c 0
 482.879882812 557.9375 479.479492188 557.794921875 477.49609375 557.794921875 c 0
 475.513671875 557.794921875 472.396484375 557.9375 468.146484375 558.219726562 c 0
 463.896484375 558.502929688 461.204101562 558.645507812 460.071289062 558.645507812 c 1
 452.138671875 558.645507812 437.405273438 559.778320312 415.872070312 562.044921875 c 0
 393.205078125 563.745117188 373.23046875 565.020507812 355.947265625 565.870117188 c 0
 338.6640625 566.719726562 315.431640625 567.145507812 286.248046875 567.145507812 c 0
 257.065429688 567.145507812 227.45703125 566.294921875 197.423828125 564.594726562 c 1
 195.610351562 530.59765625 194.704101562 507.478515625 194.704101562 495.23828125 c 0
 194.704101562 492.176757812 194.760742188 489.795898438 194.874023438 488.094726562 c 0
 194.874023438 477.895507812 194.732421875 470.669921875 194.44921875 466.419921875 c 0
 194.166015625 462.169921875 194.307617188 456.078125 194.875 448.145507812 c 1
 210.174804688 459.478515625 228.591796875 469.395507812 250.125 477.895507812 c 0
 279.874023438 489.25390625 313.237304688 494.93359375 350.215820312 494.93359375 c 0
 351.9765625 494.93359375 353.747070312 494.920898438 355.524414062 494.895507812 c 0
 384.9921875 494.895507812 411.341796875 490.078125 434.575195312 480.4453125 c 0
 456.107421875 470.8125 473.815429688 457.354492188 487.69921875 440.071289062 c 0
 501.58203125 422.788085938 512.20703125 402.955078125 519.57421875 380.572265625 c 0
 526.940429688 358.188476562 530.624023438 333.963867188 530.624023438 307.896484375 c 0
 530.624023438 265.963867188 525.241210938 227.85546875 514.473632812 193.572265625 c 0
 503.70703125 159.290039062 488.264648438 130.672851562 468.1484375 107.72265625 c 0
 448.03125 84.7724609375 422.956054688 67.34765625 392.922851562 55.447265625 c 0
 362.323242188 42.98046875 329.172851562 36.748046875 293.47265625 36.748046875 c 0
 265.139648438 36.748046875 238.790039062 39.5810546875 214.422851562 45.248046875 c 0
 190.623046875 50.9150390625 171.356445312 58.28125 156.623046875 67.3486328125 c 0
 141.889648438 76.4150390625 129.422851562 86.33203125 119.22265625 97.099609375 c 0
 109.0234375 107.866210938 100.5234375 119.19921875 93.72265625 131.099609375 c 0
 87.490234375 144.69921875 84.373046875 156.31640625 84.373046875 165.94921875 c 0
 84.373046875 169.349609375 84.9404296875 172.749023438 86.0732421875 176.149414062 c 0
 88.90625 188.616210938 96.8388671875 198.249023438 109.872070312 205.049804688 c 0
 116.671875 207.8828125 122.197265625 209.865234375 126.447265625 210.998046875 c 0
 130.697265625 212.131835938 134.379882812 212.698242188 137.497070312 212.698242188 c 0
 140.614257812 212.698242188 143.022460938 212.415039062 144.72265625 211.848632812 c 0
 152.088867188 211.28125 158.889648438 208.165039062 165.122070312 202.498046875 c 0
 170.22265625 197.96484375 175.60546875 191.731445312 181.272460938 183.798828125 c 0
 206.772460938 147.53125 241.055664062 129.3984375 284.122070312 129.3984375 c 0
 327.189453125 129.3984375 361.189453125 144.131835938 386.122070312 173.598632812 c 0
 412.189453125 204.198242188 425.22265625 245.565429688 425.22265625 297.698242188 c 0
 425.22265625 329.431640625 417.2890625 354.364257812 401.421875 372.498046875 c 0
 386.689453125 390.064453125 363.456054688 398.84765625 331.72265625 398.84765625 c 0
 316.990234375 398.84765625 301.407226562 397.147460938 284.973632812 393.748046875 c 0
 277.041015625 392.047851562 265.991210938 388.081054688 251.82421875 381.84765625 c 0
 248.423828125 380.147460938 244.032226562 377.314453125 238.649414062 373.34765625 c 0
 233.265625 369.380859375 229.723632812 366.547851562 228.024414062 364.84765625 c 0
 218.390625 356.915039062 210.458007812 350.114257812 204.224609375 344.447265625 c 0
 191.19140625 333.680664062 176.174804688 327.447265625 159.174804688 325.748046875 c 2
 153.224609375 325.748046875 l 2
 145.291992188 325.748046875 137.641601562 327.447265625 130.274414062 330.84765625 c 0
 118.375 335.947265625 109.307617188 346.71484375 103.075195312 363.147460938 c 0
 97.974609375 377.314453125 94.857421875 394.881835938 93.724609375 415.848632812 c 0
 93.44140625 420.381835938 93.2998046875 424.915039062 93.2998046875 429.44921875 c 0
 93.2998046875 433.982421875 93.44140625 438.515625 93.724609375 443.049804688 c 0
 93.724609375 462.8828125 95.1416015625 491.499023438 97.974609375 528.899414062 c 0
EndSplineSet
Validated: 524289
EndChar

StartChar: six
Encoding: 54 54 22
Width: 570
VWidth: 903
GlyphClass: 2
Flags: W
HStem: 34.9199 91.7969<240.535 370.105> 376.618 96.9014<235.897 399.991>
VStem: 82.751 98.5996<191.193 332.616> 428.7 104.551<187.652 347.737>
LayerCount: 2
Fore
SplineSet
520.5 360.471679688 m 0
 529 333.837890625 533.250976562 302.953125 533.250976562 267.819335938 c 0
 533.250976562 235.51953125 527.583984375 205.203125 516.250976562 176.870117188 c 0
 494.151367188 119.069335938 455.618164062 77.703125 400.651367188 52.76953125 c 0
 373.0078125 40.8447265625 343.55078125 34.8828125 312.278320312 34.8828125 c 0
 310.856445312 34.8828125 309.430664062 34.8955078125 308.000976562 34.919921875 c 0
 268.333984375 34.919921875 233.201171875 41.7197265625 202.600585938 55.3193359375 c 0
 173.701171875 69.486328125 150.609375 89.3193359375 133.326171875 114.819335938 c 0
 116.04296875 140.319335938 103.29296875 169.927734375 95.076171875 203.64453125 c 0
 86.859375 237.361328125 82.7509765625 274.336914062 82.7509765625 314.569335938 c 0
 82.7509765625 365.569335938 87.708984375 411.044921875 97.6259765625 450.995117188 c 0
 107.54296875 490.944335938 120.859375 524.377929688 137.577148438 551.294921875 c 0
 154.293945312 578.211914062 175.401367188 600.736328125 200.901367188 618.870117188 c 0
 227.53515625 637.569335938 256.434570312 651.736328125 287.6015625 661.370117188 c 0
 318.768554688 671.002929688 353.051757812 677.235351562 390.452148438 680.069335938 c 2
 399.801757812 680.069335938 l 2
 412.834960938 680.069335938 424.16796875 677.801757812 433.80078125 673.268554688 c 0
 446.833984375 667.036132812 454.484375 657.119140625 456.750976562 643.518554688 c 2
 456.750976562 640.119140625 l 2
 456.750976562 631.619140625 452.500976562 622.8359375 444.000976562 613.768554688 c 0
 434.93359375 604.702148438 424.451171875 598.46875 412.55078125 595.069335938 c 0
 405.750976562 593.369140625 395.267578125 591.244140625 381.100585938 588.694335938 c 0
 366.93359375 586.143554688 355.034179688 583.735351562 345.401367188 581.46875 c 0
 335.767578125 579.202148438 324.717773438 575.801757812 312.250976562 571.268554688 c 0
 287.318359375 562.202148438 262.100585938 544.918945312 236.600585938 519.418945312 c 0
 223.568359375 505.819335938 211.66796875 487.40234375 200.901367188 464.168945312 c 0
 195.80078125 452.268554688 191.267578125 441.21875 187.30078125 431.018554688 c 1
 202.600585938 441.786132812 219.883789062 450.286132812 239.151367188 456.518554688 c 0
 270.883789062 467.286132812 306.583984375 472.953125 346.250976562 473.51953125 c 0
 376.284179688 473.51953125 402.916992188 469.552734375 426.150390625 461.620117188 c 0
 448.25 453.686523438 467.375 441.50390625 483.525390625 425.0703125 c 0
 499.674804688 408.637695312 512 387.104492188 520.5 360.471679688 c 0
265.500976562 134.369140625 m 0
 278.534179688 129.268554688 292.416992188 126.716796875 307.150390625 126.716796875 c 2
 308.850585938 126.716796875 l 1
 309.700195312 126.716796875 l 2
 329.533203125 126.716796875 348.799804688 133.234375 367.5 146.267578125 c 0
 386.200195312 159.299804688 401.075195312 175.875 412.125 195.9921875 c 0
 423.174804688 216.109375 428.700195312 236.651367188 428.700195312 257.618164062 c 0
 428.700195312 306.3515625 419.350585938 338.651367188 400.650390625 354.517578125 c 0
 391.017578125 362.451171875 380.109375 368.118164062 367.92578125 371.517578125 c 0
 355.743164062 374.91796875 340.30078125 376.618164062 321.600585938 376.618164062 c 0
 292.701171875 376.618164062 265.784179688 370.243164062 240.850585938 357.493164062 c 0
 215.91796875 344.743164062 195.80078125 328.451171875 180.500976562 308.618164062 c 1
 180.500976562 287.084960938 180.784179688 269.235351562 181.350585938 255.068359375 c 0
 183.618164062 231.267578125 191.834960938 208.03515625 206.001953125 185.368164062 c 0
 213.369140625 174.03515625 221.869140625 163.9765625 231.501953125 155.194335938 c 0
 241.134765625 146.411132812 252.467773438 139.46875 265.500976562 134.369140625 c 0
EndSplineSet
Validated: 524289
EndChar

StartChar: seven
Encoding: 55 55 23
Width: 570
VWidth: 901
GlyphClass: 2
Flags: W
HStem: 562.675 96.0508<126.722 405.749>
LayerCount: 2
Fore
SplineSet
246.799804688 562.674804688 m 0
 190.69921875 561.541992188 154.431640625 558.994140625 137.999023438 555.02734375 c 0
 134.598632812 553.89453125 130.7734375 553.327148438 126.5234375 553.327148438 c 0
 122.2734375 553.327148438 117.881835938 554.177734375 113.348632812 555.877929688 c 0
 105.982421875 558.7109375 100.315429688 562.9609375 96.34765625 568.627929688 c 0
 88.4150390625 578.827148438 84.1650390625 590.444335938 83.59765625 603.477539062 c 1
 83.59765625 597.810546875 83.59765625 598.09375 83.59765625 604.327148438 c 0
 83.59765625 616.2265625 86.998046875 626.143554688 93.7978515625 634.077148438 c 0
 100.59765625 642.009765625 112.21484375 647.392578125 128.6484375 650.225585938 c 0
 159.248046875 655.892578125 210.53125 658.725585938 282.498046875 658.725585938 c 0
 311.96484375 658.725585938 352.482421875 657.592773438 404.048828125 655.326171875 c 0
 452.782226562 653.625976562 478.282226562 652.776367188 480.548828125 652.776367188 c 0
 487.916015625 652.776367188 495.140625 651.217773438 502.223632812 648.100585938 c 0
 509.306640625 644.984375 515.96484375 640.026367188 522.198242188 633.225585938 c 0
 528.430664062 625.859375 531.831054688 616.225585938 532.3984375 604.326171875 c 0
 532.3984375 594.125976562 529.28125 582.79296875 523.047851562 570.326171875 c 0
 515.115234375 553.326171875 500.665039062 528.250976562 479.698242188 495.100585938 c 0
 458.731445312 461.951171875 436.630859375 428.092773438 413.3984375 393.526367188 c 0
 389.03125 358.958984375 359.28125 312.916992188 324.1484375 255.400390625 c 0
 289.014648438 197.8828125 255.865234375 139.090820312 224.698242188 79.0244140625 c 0
 216.764648438 62.5908203125 205.71484375 50.408203125 191.547851562 42.474609375 c 0
 180.78125 35.6748046875 170.581054688 32.275390625 160.948242188 32.275390625 c 0
 157.547851562 32.275390625 154.1484375 32.55859375 150.748046875 33.125 c 0
 135.448242188 36.525390625 124.680664062 45.025390625 118.448242188 58.625 c 0
 115.615234375 64.8583984375 114.198242188 71.5166015625 114.198242188 78.599609375 c 0
 114.198242188 85.6826171875 116.180664062 93.474609375 120.1484375 101.974609375 c 0
 149.047851562 158.641601562 181.065429688 215.024414062 216.198242188 271.124023438 c 0
 252.46484375 327.224609375 282.357421875 371.70703125 305.874023438 404.57421875 c 0
 329.390625 437.44140625 350.07421875 467.7578125 367.923828125 495.525390625 c 0
 385.7734375 523.291992188 398.381835938 545.674804688 405.749023438 562.674804688 c 1
 381.3828125 563.241210938 355.953125 563.524414062 329.461914062 563.524414062 c 0
 302.970703125 563.524414062 275.416015625 563.241210938 246.799804688 562.674804688 c 0
EndSplineSet
Validated: 524289
EndChar

StartChar: eight
Encoding: 56 56 24
Width: 570
VWidth: 901
GlyphClass: 2
Flags: W
HStem: 27.9492 93.5<220.543 386.659> 580.449 81.6016<237.274 361.757>
VStem: 77.5732 94.3525<164.875 280.772> 100.523 102.853<458.86 548.025> 400.575 99.4502<455.871 543.569> 437.976 99.4482<166.506 285.924>
LayerCount: 2
Fore
SplineSet
238.225585938 134.19921875 m 0xe4
 258.05859375 125.69921875 279.30859375 121.44921875 301.975585938 121.44921875 c 0
 317.842773438 121.44921875 333.850585938 123.715820312 350.000976562 128.249023438 c 0
 366.150390625 132.782226562 380.883789062 139.298828125 394.200195312 147.798828125 c 0
 407.517578125 156.298828125 418.142578125 167.06640625 426.075195312 180.099609375 c 0
 434.008789062 193.131835938 437.975585938 207.298828125 437.975585938 222.599609375 c 0
 437.975585938 231.099609375 437.125976562 239.032226562 435.42578125 246.399414062 c 0
 433.725585938 253.765625 430.325195312 262.265625 425.225585938 271.899414062 c 0
 420.125976562 281.532226562 413.04296875 290.599609375 403.975585938 299.099609375 c 0
 394.908203125 307.599609375 382.30078125 316.381835938 366.150390625 325.44921875 c 0
 350.000976562 334.515625 330.875976562 342.733398438 308.775390625 350.099609375 c 1
 267.975585938 339.900390625 234.825195312 322.6171875 209.325195312 298.25 c 0
 184.392578125 273.8828125 171.92578125 247.81640625 171.92578125 220.048828125 c 0
 171.92578125 201.349609375 177.875976562 184.349609375 189.775390625 169.048828125 c 0
 202.80859375 153.749023438 218.958984375 142.131835938 238.225585938 134.19921875 c 0xe4
231.848632812 554.524414062 m 0
 212.866210938 537.241210938 203.375976562 518.682617188 203.375976562 498.849609375 c 0
 203.375976562 482.983398438 211.592773438 468.81640625 228.025390625 456.349609375 c 0
 245.025390625 443.31640625 273.642578125 429.999023438 313.875976562 416.399414062 c 1
 337.108398438 425.465820312 357.3671875 437.366210938 374.649414062 452.099609375 c 0
 391.932617188 466.83203125 400.575195312 479.58203125 400.575195312 490.349609375 c 0xd8
 400.575195312 504.515625 396.182617188 518.399414062 387.399414062 531.999023438 c 0
 378.6171875 545.599609375 366.291992188 557.07421875 350.424804688 566.423828125 c 0
 334.557617188 575.774414062 317.840820312 580.44921875 300.274414062 580.44921875 c 2
 298.57421875 580.44921875 l 2
 273.07421875 580.44921875 250.83203125 571.807617188 231.848632812 554.524414062 c 0
534.450195312 260.849609375 m 0
 536.432617188 250.650390625 537.423828125 239.881835938 537.423828125 228.548828125 c 0
 537.423828125 209.849609375 534.874023438 191.432617188 529.774414062 173.298828125 c 0
 524.673828125 155.166015625 516.173828125 137.173828125 504.274414062 119.32421875 c 0
 492.374023438 101.474609375 477.640625 86.0322265625 460.07421875 72.9990234375 c 0
 442.506835938 59.9658203125 419.415039062 49.19921875 390.797851562 40.69921875 c 0
 362.181640625 32.19921875 331.014648438 27.94921875 297.296875 27.94921875 c 0
 263.580078125 27.94921875 233.405273438 31.916015625 206.772460938 39.849609375 c 0
 181.272460938 47.7822265625 160.73046875 58.1240234375 145.147460938 70.8740234375 c 0
 129.564453125 83.6240234375 116.53125 98.640625 106.047851562 115.923828125 c 0
 95.5654296875 133.20703125 88.1982421875 150.631835938 83.9482421875 168.19921875 c 0
 79.6982421875 185.765625 77.5732421875 204.182617188 77.5732421875 223.450195312 c 0xe4
 77.5732421875 242.716796875 82.6728515625 263.541992188 92.873046875 285.924804688 c 0
 103.073242188 308.307617188 118.08984375 329.1328125 137.922851562 348.400390625 c 0
 151.5234375 362 166.255859375 372.766601562 182.123046875 380.700195312 c 1
 159.456054688 393.733398438 141.323242188 409.31640625 127.72265625 427.44921875 c 0
 109.58984375 451.249023438 100.5234375 475.616210938 100.5234375 500.548828125 c 0
 100.5234375 507.916015625 101.08984375 515.56640625 102.22265625 523.499023438 c 0
 103.356445312 531.432617188 105.764648438 540.782226562 109.447265625 551.548828125 c 0
 113.129882812 562.31640625 117.805664062 572.657226562 123.47265625 582.57421875 c 0
 129.139648438 592.491210938 136.931640625 602.408203125 146.84765625 612.325195312 c 0
 156.764648438 622.2421875 167.95703125 630.600585938 180.423828125 637.400390625 c 0
 194.590820312 644.767578125 211.874023438 650.717773438 232.274414062 655.250976562 c 0
 252.673828125 659.784179688 275.056640625 662.05078125 299.423828125 662.05078125 c 0
 323.791015625 662.05078125 346.173828125 659.784179688 366.57421875 655.250976562 c 0
 386.973632812 650.717773438 404.256835938 645.05078125 418.423828125 638.250976562 c 0
 432.590820312 630.883789062 444.6328125 622.2421875 454.549804688 612.325195312 c 0
 464.466796875 602.408203125 472.258789062 592.491210938 477.92578125 582.57421875 c 0
 483.592773438 572.657226562 488.125976562 562.173828125 491.525390625 551.124023438 c 0
 494.92578125 540.07421875 497.192382812 530.44140625 498.325195312 522.224609375 c 0
 499.458984375 514.006835938 500.025390625 505.932617188 500.025390625 497.999023438 c 0
 500.025390625 490.06640625 499.033203125 482.557617188 497.05078125 475.474609375 c 0
 495.067382812 468.391601562 492.659179688 462.016601562 489.826171875 456.349609375 c 0
 486.993164062 450.682617188 483.025390625 444.875 477.92578125 438.924804688 c 0
 472.825195312 432.974609375 468.151367188 428.016601562 463.901367188 424.049804688 c 0
 459.651367188 420.083007812 454.268554688 415.549804688 447.750976562 410.450195312 c 0
 441.234375 405.349609375 435.9921875 401.666992188 432.025390625 399.400390625 c 0
 428.05859375 397.1328125 422.958984375 393.733398438 416.725585938 389.200195312 c 1
 432.592773438 382.400390625 446.475585938 374.75 458.375976562 366.25 c 0
 474.80859375 354.916992188 487.983398438 343.442382812 497.900390625 331.825195312 c 0
 507.817382812 320.208007812 515.892578125 308.025390625 522.125976562 295.275390625 c 0
 528.358398438 282.525390625 532.466796875 271.049804688 534.450195312 260.849609375 c 0
EndSplineSet
Validated: 524289
EndChar

StartChar: nine
Encoding: 57 57 25
Width: 570
VWidth: 903
GlyphClass: 2
Flags: W
HStem: 243.252 96.0537<228.068 394.156> 589.205 92.6445<241.537 375.664>
VStem: 82.75 103.701<381.195 533.164> 436.352 96.8975<373.882 521.272>
LayerCount: 2
Fore
SplineSet
203.450195312 525.454101562 m 0
 192.1171875 506.1875 186.451171875 486.356445312 186.451171875 465.956054688 c 0
 186.451171875 381.5234375 226.400390625 339.305664062 306.299804688 339.305664062 c 0
 331.799804688 339.305664062 356.451171875 344.40625 380.251953125 354.606445312 c 0
 404.051757812 364.805664062 422.751953125 377.838867188 436.3515625 393.706054688 c 1
 436.3515625 401.356445312 l 2
 436.3515625 416.65625 435.501953125 436.7734375 433.801757812 461.706054688 c 0
 431.534179688 485.505859375 423.317382812 508.739257812 409.150390625 531.40625 c 0
 401.784179688 542.739257812 393.42578125 552.796875 384.076171875 561.580078125 c 0
 374.725585938 570.36328125 363.392578125 577.163085938 350.076171875 581.98046875 c 0
 336.758789062 586.796875 323.016601562 589.205078125 308.849609375 589.205078125 c 2
 306.299804688 589.205078125 l 2
 285.900390625 589.205078125 266.4921875 583.397460938 248.075195312 571.780273438 c 0
 229.658203125 560.163085938 214.783203125 544.721679688 203.450195312 525.454101562 c 0
203.450195312 35 m 0
 200.6171875 35 197.784179688 34.7216796875 194.951171875 34.154296875 c 0
 182.483398438 34.154296875 171.43359375 36.7041015625 161.80078125 41.8046875 c 0
 148.767578125 48.037109375 141.400390625 57.9541015625 139.701171875 71.5546875 c 0
 139.701171875 72.6875 139.41796875 73.537109375 138.850585938 74.1044921875 c 0
 138.850585938 83.171875 143.243164062 92.0966796875 152.025390625 100.879882812 c 0
 160.80859375 109.662109375 170.583984375 115.754882812 181.350585938 119.154296875 c 0
 188.150390625 120.854492188 199.342773438 123.12109375 214.92578125 125.954101562 c 0
 230.508789062 128.787109375 244.250976562 131.620117188 256.150390625 134.454101562 c 0
 268.05078125 137.287109375 281.083984375 140.969726562 295.250976562 145.502929688 c 0
 325.284179688 155.703125 351.633789062 171.852539062 374.30078125 193.953125 c 0
 389.034179688 209.252929688 402.350585938 226.819335938 414.250976562 246.65234375 c 0
 418.784179688 254.5859375 422.750976562 262.518554688 426.150390625 270.452148438 c 1
 413.68359375 263.65234375 400.083984375 258.268554688 385.350585938 254.301757812 c 0
 357.583984375 247.501953125 323.30078125 243.819335938 282.500976562 243.251953125 c 0
 253.600585938 243.251953125 226.118164062 249.202148438 200.05078125 261.1015625 c 0
 175.118164062 273.001953125 154.29296875 288.869140625 137.576171875 308.702148438 c 0
 120.858398438 328.53515625 107.541992188 351.342773438 97.625 377.125976562 c 0
 87.7080078125 402.909179688 82.75 429.1171875 82.75 455.75 c 0
 82.75 488.05078125 88.275390625 518.225585938 99.3251953125 546.275390625 c 0
 110.375 574.325195312 125.391601562 598.267578125 144.375 618.100585938 c 0
 163.358398438 637.93359375 187.015625 653.516601562 215.348632812 664.849609375 c 0
 244.249023438 676.182617188 274.848632812 681.849609375 307.149414062 681.849609375 c 0
 387.048828125 681.849609375 445.131835938 654.649414062 481.399414062 600.249023438 c 0
 515.399414062 549.249023438 532.682617188 477.282226562 533.249023438 384.349609375 c 0
 533.249023438 335.616210938 527.58203125 292.549804688 516.249023438 255.149414062 c 0
 504.916015625 217.749023438 489.7578125 186.157226562 470.775390625 160.374023438 c 0
 451.791992188 134.591796875 428.416992188 112.633789062 400.650390625 94.5 c 0
 371.75 76.3671875 341.0078125 62.625 308.424804688 53.275390625 c 0
 275.841796875 43.92578125 240.849609375 37.8330078125 203.450195312 35 c 0
EndSplineSet
Validated: 524289
EndChar

StartChar: colon
Encoding: 58 58 26
Width: 570
VWidth: 887
GlyphClass: 2
Flags: W
HStem: 60.5264 153<255.427 358.751> 288.326 152.149<267.681 354.963>
VStem: 242.55 131.75<76.6232 199.31 307.22 427.652>
LayerCount: 2
Fore
SplineSet
371.75 380.975585938 m 0
 371.75 364.541992188 369.200195312 347.543945312 364.099609375 329.9765625 c 0
 360.700195312 315.809570312 353.049804688 305.04296875 341.150390625 297.67578125 c 0
 330.950195312 291.443359375 320.75 288.326171875 310.549804688 288.326171875 c 2
 308 288.326171875 l 2
 291 289.458984375 277.400390625 292.859375 267.200195312 298.526367188 c 0
 253.033203125 307.026367188 245.099609375 319.776367188 243.400390625 336.776367188 c 1
 242.266601562 346.975585938 241.700195312 357.17578125 241.700195312 367.375976562 c 0
 241.700195312 378.142578125 241.983398438 388.059570312 242.549804688 397.126953125 c 0
 243.1171875 406.193359375 245.950195312 414.126953125 251.049804688 420.926757812 c 0
 256.150390625 427.16015625 262.3828125 431.693359375 269.75 434.526367188 c 0
 277.1171875 437.359375 283.633789062 439.05859375 289.30078125 439.625976562 c 0
 294.967773438 440.193359375 299.217773438 440.475585938 302.05078125 440.475585938 c 0
 311.68359375 440.475585938 319.900390625 439.909179688 326.701171875 438.776367188 c 0
 332.93359375 437.642578125 339.166992188 435.375976562 345.400390625 431.975585938 c 0
 352.200195312 428.576171875 358.150390625 423.475585938 363.25 416.67578125 c 0
 367.783203125 409.875976562 370.333007812 401.943359375 370.900390625 392.875976562 c 0
 371.466796875 388.909179688 371.75 384.942382812 371.75 380.975585938 c 0
374.299804688 142.9765625 m 0
 374.299804688 129.376953125 372.317382812 115.494140625 368.350585938 101.327148438 c 0
 364.951171875 87.16015625 356.16796875 76.6767578125 342.000976562 69.876953125 c 0
 330.100585938 64.2099609375 318.767578125 61.0927734375 308.000976562 60.5263671875 c 0
 293.833984375 60.5263671875 279.951171875 64.7763671875 266.350585938 73.2763671875 c 0
 252.750976562 81.7763671875 245.383789062 93.67578125 244.250976562 108.975585938 c 0
 243.68359375 124.842773438 243.1171875 133.91015625 242.549804688 136.176757812 c 0
 242.549804688 138.443359375 242.833007812 143.543945312 243.400390625 151.4765625 c 0
 243.966796875 159.41015625 244.534179688 165.642578125 245.100585938 170.17578125 c 0
 245.100585938 179.243164062 247.650390625 187.17578125 252.750976562 193.975585938 c 0
 257.850585938 200.776367188 264.650390625 205.30859375 273.150390625 207.576171875 c 0
 284.484375 211.54296875 295.534179688 213.526367188 306.30078125 213.526367188 c 0
 316.500976562 213.526367188 325.567382812 212.392578125 333.500976562 210.125976562 c 0
 341.43359375 207.859375 349.3671875 202.758789062 357.299804688 194.826171875 c 0
 365.233398438 187.458984375 370.049804688 178.109375 371.75 166.776367188 c 0
 373.450195312 158.842773438 374.299804688 150.91015625 374.299804688 142.9765625 c 0
EndSplineSet
Validated: 524289
EndChar

StartChar: semicolon
Encoding: 59 59 27
Width: 570
VWidth: 864
GlyphClass: 2
Flags: W
HStem: 229.675 153.001<281.933 380.562>
VStem: 267.197 130.049<246.048 371.193>
LayerCount: 2
Fore
SplineSet
397.24609375 323.174804688 m 2
 397.24609375 306.7421875 394.6953125 289.458984375 389.595703125 271.326171875 c 0
 386.1953125 257.159179688 378.545898438 246.391601562 366.645507812 239.025390625 c 0
 356.4453125 232.791992188 346.245117188 229.674804688 336.045898438 229.674804688 c 0
 328.112304688 229.674804688 319.329101562 231.375 309.696289062 234.775390625 c 0
 300.063476562 238.174804688 291.280273438 243.275390625 283.346679688 250.075195312 c 0
 274.846679688 258.0078125 270.030273438 267.358398438 268.897460938 278.125 c 1
 267.763671875 288.325195312 267.197265625 298.80859375 267.197265625 309.575195312 c 0
 267.197265625 320.341796875 267.48046875 329.974609375 268.046875 338.474609375 c 0
 268.614257812 347.541992188 271.447265625 355.474609375 276.546875 362.275390625 c 0
 281.647460938 369.075195312 287.879882812 373.608398438 295.247070312 375.875 c 0
 307.713867188 379.841796875 319.614257812 382.109375 330.947265625 382.67578125 c 0
 339.447265625 382.67578125 346.530273438 381.826171875 352.197265625 380.125976562 c 0
 358.4296875 378.993164062 364.947265625 376.725585938 371.747070312 373.326171875 c 0
 378.546875 369.92578125 384.213867188 365.109375 388.747070312 358.875976562 c 0
 393.280273438 351.508789062 396.11328125 343.291992188 397.24609375 334.224609375 c 2
 397.24609375 323.174804688 l 2
380.245117188 81.775390625 m 2
 380.24609375 76.6748046875 l 2
 378.545898438 57.974609375 360.12890625 -16.5419921875 324.99609375 -146.875 c 0
 321.029296875 -161.041992188 313.662109375 -171.525390625 302.895507812 -178.325195312 c 0
 293.262695312 -184.557617188 283.62890625 -187.674804688 273.99609375 -187.674804688 c 0
 259.263671875 -187.674804688 245.946289062 -183.424804688 234.045898438 -174.924804688 c 0
 223.818359375 -167.388671875 218.704101562 -157.294921875 218.704101562 -144.64453125 c 0
 218.704101562 -128.515625 227.631835938 -82.0458984375 235.74609375 -41.4736328125 c 0
 247.079101562 14.6259765625 256.146484375 56.55859375 262.946289062 84.326171875 c 0
 265.212890625 93.958984375 268.330078125 102.17578125 272.296875 108.975585938 c 0
 276.830078125 115.776367188 281.9296875 120.026367188 287.596679688 121.725585938 c 0
 295.530273438 124.55859375 303.1796875 126.258789062 310.546875 126.826171875 c 0
 313.379882812 126.826171875 316.212890625 126.54296875 319.045898438 125.975585938 c 0
 330.946289062 125.975585938 343.12890625 123.142578125 355.596679688 117.475585938 c 0
 363.529296875 114.076171875 369.762695312 108.692382812 374.295898438 101.326171875 c 0
 378.262695312 95.6591796875 380.245117188 89.1416015625 380.245117188 81.775390625 c 2
EndSplineSet
Validated: 524289
EndChar

StartChar: less
Encoding: 60 60 28
Width: 570
VWidth: 902
GlyphClass: 2
Flags: W
LayerCount: 2
Fore
SplineSet
474.599609375 31.25 m 0
 465.533203125 31.25 455.333007812 33.2373046875 444 37.2041015625 c 0
 428.700195312 41.7373046875 410.283203125 51.9375 388.75 67.8046875 c 0
 367.216796875 83.671875 344.266601562 102.37109375 319.900390625 123.904296875 c 0
 295.533203125 145.4375 271.450195312 167.254882812 247.650390625 189.354492188 c 0
 223.849609375 211.454101562 198.916992188 234.12109375 172.849609375 257.354492188 c 0
 146.783203125 280.587890625 124.682617188 299.004882812 106.549804688 312.604492188 c 0
 97.4833984375 319.404296875 91.25 328.754882812 87.849609375 340.654296875 c 0
 86.716796875 345.754882812 86.150390625 351.421875 86.150390625 357.654296875 c 0
 86.150390625 363.321289062 87 369.271484375 88.7001953125 375.504882812 c 0
 92.099609375 387.404296875 98.3330078125 395.904296875 107.400390625 401.004882812 c 0
 139.1328125 424.8046875 176.81640625 454.5546875 220.44921875 490.254882812 c 0
 263.515625 526.521484375 303.182617188 559.104492188 339.450195312 588.004882812 c 0
 375.716796875 617.471679688 408.299804688 640.704101562 437.200195312 657.704101562 c 0
 448.533203125 665.071289062 459.866210938 668.754882812 471.19921875 668.754882812 c 0
 479.69921875 668.754882812 487.06640625 666.771484375 493.298828125 662.8046875 c 0
 505.765625 655.4375 514.833007812 645.520507812 520.5 633.053710938 c 0
 523.333007812 627.38671875 524.75 621.153320312 524.75 614.353515625 c 0
 524.75 607.553710938 522.766601562 600.470703125 518.799804688 593.103515625 c 0
 512 581.770507812 498.1171875 569.020507812 477.150390625 554.853515625 c 0
 445.983398438 532.75390625 400.650390625 498.470703125 341.150390625 452.00390625 c 0
 281.650390625 405.537109375 241.416992188 374.370117188 220.450195312 358.502929688 c 1
 239.716796875 343.203125 261.817382812 324.219726562 286.75 301.552734375 c 0
 312.25 278.885742188 335.200195312 257.918945312 355.599609375 238.65234375 c 0
 376 219.384765625 398.099609375 199.551757812 421.900390625 179.15234375 c 0
 445.700195312 158.751953125 466.666992188 142.884765625 484.799804688 131.551757812 c 0
 503.5 119.65234375 516.25 108.319335938 523.049804688 97.5517578125 c 0
 527.583007812 90.751953125 529.849609375 83.6689453125 529.849609375 76.3017578125 c 0
 529.849609375 70.634765625 528.716796875 64.9677734375 526.450195312 59.30078125 c 0
 519.083007812 43.4345703125 504.349609375 34.3671875 482.25 32.1005859375 c 0
 479.983398438 31.533203125 477.432617188 31.25 474.599609375 31.25 c 0
EndSplineSet
Validated: 524289
EndChar

StartChar: equal
Encoding: 61 61 29
Width: 570
VWidth: 908
GlyphClass: 2
Flags: W
HStem: 257.95 90.9502<148.627 469.177> 427.95 90.0996<150.381 469.178>
LayerCount: 2
Fore
SplineSet
434.650390625 518.049804688 m 0
 451.083007812 518.049804688 462.700195312 514.083007812 469.5 506.150390625 c 0
 476.299804688 498.216796875 480.266601562 488.299804688 481.400390625 476.400390625 c 2
 481.400390625 475.549804688 l 2
 481.400390625 469.317382812 480.833007812 463.650390625 479.700195312 458.549804688 c 0
 478.56640625 453.450195312 476.299804688 448.349609375 472.900390625 443.25 c 0
 469.5 438.150390625 464.1171875 433.900390625 456.75 430.5 c 0
 451.650390625 428.233398438 446.266601562 427.3828125 440.599609375 427.950195312 c 2
 433.799804688 427.950195312 l 2
 413.400390625 428.516601562 392.432617188 428.799804688 370.900390625 428.799804688 c 2
 277.400390625 426.25 l 2
 237.733398438 425.1171875 208.549804688 424.549804688 189.849609375 424.549804688 c 0
 173.416992188 424.549804688 160.099609375 428.799804688 149.900390625 437.299804688 c 0
 139.700195312 445.799804688 134.599609375 456.567382812 134.599609375 469.599609375 c 2
 134.599609375 472.150390625 l 2
 134.599609375 484.049804688 138.56640625 494.817382812 146.5 504.450195312 c 0
 155 513.516601562 167.182617188 518.049804688 183.049804688 518.049804688 c 2
 186.450195312 518.049804688 l 2
 220.109375 517.030273438 256.930664062 516.520507812 296.913085938 516.520507812 c 0
 323.5703125 516.520507812 351.631835938 516.747070312 381.099609375 517.200195312 c 0
 410.56640625 517.766601562 428.416992188 518.049804688 434.650390625 518.049804688 c 0
440.599609375 261.349609375 m 2
 433.799804688 261.349609375 l 2
 420.766601562 261.916992188 408.8671875 262.200195312 398.099609375 262.200195312 c 0
 374.299804688 262.200195312 337.75 261.6328125 288.450195312 260.5 c 0
 239.150390625 258.799804688 205.716796875 257.950195312 188.150390625 257.950195312 c 0
 170.583007812 257.950195312 157.265625 262.483398438 148.19921875 271.549804688 c 0
 139.131835938 280.6171875 134.598632812 291.666992188 134.598632812 304.700195312 c 2
 134.598632812 306.400390625 l 2
 134.598632812 318.299804688 139.131835938 328.5 148.19921875 337 c 0
 157.265625 344.932617188 170.015625 348.900390625 186.44921875 348.900390625 c 2
 201.749023438 348.900390625 l 2
 213.84375 348.7109375 227.19921875 348.616210938 241.815429688 348.616210938 c 0
 271.025390625 348.616210938 305.26953125 348.994140625 344.548828125 349.749023438 c 2
 434.649414062 351.44921875 l 2
 451.08203125 351.44921875 462.69921875 347.482421875 469.499023438 339.548828125 c 0
 476.298828125 331.616210938 480.265625 321.69921875 481.399414062 309.798828125 c 2
 481.399414062 308.94921875 l 2
 481.399414062 302.715820312 480.83203125 297.333007812 479.69921875 292.799804688 c 0
 478.56640625 287.700195312 476.298828125 282.599609375 472.899414062 277.5 c 0
 469.499023438 271.833007812 464.116210938 267.299804688 456.749023438 263.900390625 c 0
 452.215820312 262.200195312 446.833007812 261.349609375 440.599609375 261.349609375 c 2
EndSplineSet
Validated: 524289
EndChar

StartChar: greater
Encoding: 62 62 30
Width: 570
VWidth: 903
GlyphClass: 2
Flags: W
LayerCount: 2
Fore
SplineSet
144.799804688 38.25 m 0
 136.8671875 38.25 129.498046875 40.2294921875 122.698242188 44.1962890625 c 0
 116.46484375 48.1630859375 110.797851562 52.6962890625 105.698242188 57.796875 c 0
 101.165039062 62.896484375 97.765625 68.5634765625 95.498046875 74.796875 c 0
 92.6650390625 80.4638671875 90.96484375 86.4130859375 90.3984375 92.646484375 c 0
 90.3984375 99.4462890625 92.6650390625 106.529296875 97.1982421875 113.896484375 c 0
 103.998046875 125.229492188 117.598632812 137.979492188 137.998046875 152.146484375 c 0
 169.165039062 174.247070312 214.782226562 208.529296875 274.848632812 254.997070312 c 0
 334.348632812 301.463867188 374.58203125 332.630859375 395.548828125 348.497070312 c 1
 376.282226562 363.797851562 353.899414062 382.780273438 328.399414062 405.447265625 c 0
 302.899414062 428.114257812 280.232421875 449.081054688 260.399414062 468.348632812 c 0
 239.999023438 487.615234375 217.899414062 507.448242188 194.098632812 527.848632812 c 0
 170.298828125 548.248046875 149.33203125 564.115234375 131.19921875 575.448242188 c 0
 112.499023438 587.348632812 99.7490234375 598.681640625 92.94921875 609.448242188 c 0
 88.416015625 616.248046875 86.1494140625 623.615234375 86.1494140625 631.547851562 c 0
 86.1494140625 637.21484375 87.2822265625 642.598632812 89.548828125 647.698242188 c 0
 96.916015625 663.565429688 111.649414062 672.631835938 133.749023438 674.899414062 c 0
 136.58203125 675.465820312 139.131835938 675.749023438 141.399414062 675.749023438 c 0
 150.465820312 675.749023438 160.666015625 673.765625 171.999023438 669.798828125 c 0
 187.298828125 665.265625 205.715820312 655.06640625 227.249023438 639.19921875 c 0
 248.782226562 623.33203125 271.732421875 604.631835938 296.098632812 583.098632812 c 0
 320.465820312 561.56640625 344.548828125 539.749023438 368.348632812 517.649414062 c 0
 392.149414062 495.548828125 417.08203125 472.881835938 443.149414062 449.649414062 c 0
 469.215820312 426.416015625 491.31640625 408.283203125 509.44921875 395.25 c 0
 518.515625 388.450195312 524.749023438 378.81640625 528.149414062 366.349609375 c 0
 529.282226562 361.25 529.848632812 355.583007812 529.848632812 349.349609375 c 0
 529.848632812 343.682617188 528.999023438 337.733398438 527.298828125 331.5 c 0
 523.899414062 319.599609375 517.666015625 311.099609375 508.598632812 306 c 0
 476.866210938 282.766601562 439.182617188 253.016601562 395.549804688 216.75 c 0
 352.482421875 180.483398438 312.81640625 147.900390625 276.548828125 119 c 0
 240.282226562 90.099609375 207.69921875 66.8671875 178.798828125 49.2998046875 c 0
 167.465820312 41.9326171875 156.1328125 38.25 144.799804688 38.25 c 0
EndSplineSet
Validated: 524289
EndChar

StartChar: question
Encoding: 63 63 31
Width: 570
VWidth: 903
GlyphClass: 2
Flags: W
HStem: 31.0029 151.302<235.707 342.998> 584.355 92.709<254.857 372.37>
VStem: 209.402 158.951<57.1695 156.658> 237.452 107.097<235.433 326.936> 388.782 106.217<461.381 567.451>
LayerCount: 2
Fore
SplineSet
296.950195312 223.955078125 m 0xd8
 291.849609375 223.955078125 286.469726562 224.520507812 280.802734375 225.653320312 c 0
 252.469726562 233.020507812 238.01953125 250.586914062 237.452148438 278.354492188 c 0
 237.452148438 286.287109375 238.869140625 294.787109375 241.702148438 303.854492188 c 0
 245.668945312 320.287109375 251.619140625 335.586914062 259.552734375 349.75390625 c 0
 267.485351562 363.920898438 276.268554688 376.104492188 285.901367188 386.3046875 c 0
 294.96875 396.50390625 304.6015625 405.854492188 314.801757812 414.354492188 c 0
 325.001953125 423.420898438 334.634765625 431.637695312 343.701171875 439.004882812 c 0
 352.768554688 446.372070312 360.701171875 454.022460938 367.501953125 461.955078125 c 0
 381.688476562 477.234375 388.782226562 493.038085938 388.782226562 509.3671875 c 0
 388.782226562 524.568359375 387.392578125 551.442382812 367.500976562 567.35546875 c 0
 352.896484375 578.713867188 331.838867188 584.393554688 304.326171875 584.393554688 c 0
 303.015625 584.393554688 301.690429688 584.380859375 300.350585938 584.35546875 c 0
 293.55078125 584.35546875 287.034179688 582.938476562 280.80078125 580.10546875 c 0
 274.000976562 576.705078125 267.767578125 573.022460938 262.100585938 569.0546875 c 0
 257.000976562 565.087890625 251.333984375 559.420898438 245.100585938 552.0546875 c 0
 238.868164062 544.6875 234.05078125 538.454101562 230.650390625 533.354492188 c 0
 227.250976562 528.25390625 222.717773438 522.021484375 217.05078125 514.654296875 c 0
 211.951171875 506.720703125 206.284179688 500.204101562 200.05078125 495.104492188 c 0
 194.383789062 490.00390625 188.150390625 486.887695312 181.350585938 485.75390625 c 2
 173.701171875 485.75390625 l 2
 170.868164062 485.75390625 167.467773438 486.321289062 163.500976562 487.454101562 c 0
 159.534179688 488.586914062 153.8671875 490.5703125 146.5 493.403320312 c 0
 134.033203125 500.203125 126.099609375 509.836914062 122.700195312 522.303710938 c 2
 121 532.502929688 l 2
 121 542.13671875 124.1171875 553.752929688 130.349609375 567.353515625 c 0
 136.583007812 579.8203125 144.515625 591.720703125 154.149414062 603.053710938 c 0
 163.782226562 614.953125 175.399414062 626.5703125 188.999023438 637.903320312 c 0
 202.598632812 649.803710938 218.749023438 659.436523438 237.44921875 666.803710938 c 0
 254.8125 673.643554688 273.153320312 677.064453125 292.471679688 677.064453125 c 0
 293.958007812 677.064453125 295.451171875 677.043945312 296.94921875 677.002929688 c 0
 360.982421875 677.002929688 409.999023438 661.986328125 443.999023438 631.953125 c 0
 477.999023438 601.919921875 494.999023438 556.870117188 494.999023438 496.803710938 c 0
 494.999023438 480.370117188 492.166015625 465.353515625 486.499023438 451.752929688 c 0
 481.399414062 438.153320312 474.598632812 426.252929688 466.098632812 416.053710938 c 0
 457.598632812 406.419921875 448.249023438 397.637695312 438.048828125 389.704101562 c 2
 407.44921875 365.904296875 l 2
 397.249023438 357.970703125 387.899414062 350.038085938 379.399414062 342.10546875 c 0
 370.899414062 334.171875 363.532226562 324.254882812 357.298828125 312.35546875 c 0
 351.06640625 301.022460938 346.81640625 288.272460938 344.548828125 274.10546875 c 0
 341.715820312 257.10546875 335.483398438 244.072265625 325.849609375 235.004882812 c 0
 318.483398438 227.637695312 308.849609375 223.955078125 296.950195312 223.955078125 c 0xd8
282.501953125 31.0029296875 m 2
 262.668945312 31.0029296875 245.952148438 37.802734375 232.352539062 51.40234375 c 0
 217.052734375 67.26953125 209.40234375 85.6865234375 209.40234375 106.653320312 c 0
 209.40234375 127.620117188 217.619140625 145.1875 234.052734375 159.354492188 c 0
 251.619140625 174.654296875 271.736328125 182.3046875 294.403320312 182.3046875 c 0
 315.370117188 182.3046875 332.653320312 175.50390625 346.252929688 161.904296875 c 0
 360.986328125 147.170898438 368.353515625 129.604492188 368.353515625 109.204101562 c 0xe8
 368.353515625 88.2373046875 361.270507812 70.669921875 347.103515625 56.5029296875 c 0
 332.936523438 42.3369140625 314.51953125 33.8369140625 291.852539062 31.0029296875 c 2
 282.501953125 31.0029296875 l 2
EndSplineSet
Validated: 524289
EndChar

StartChar: at
Encoding: 64 64 32
Width: 570
VWidth: 892
GlyphClass: 2
Flags: W
HStem: -77.7207 93.5<247.072 386.053> 132.23 89.249<274.644 328.687> 356.63 85.8506<282.537 371.428> 553.83 96.8984<265.51 391.698>
VStem: 78.5 94.3467<113.872 419.334> 183.05 85.8486<223.19 344.153> 337.749 89.0801<226.031 329.915> 455.048 82.4512<206.652 462.493>
LayerCount: 2
Fore
SplineSet
370.049804688 168.775390625 m 1
 353.6171875 144.408203125 330.099609375 132.23046875 299.5 132.23046875 c 0
 262.666992188 132.23046875 234.049804688 143.84765625 213.650390625 167.080078125 c 0
 193.25 190.313476562 183.049804688 224.880859375 183.049804688 270.780273438 c 0
 183.049804688 293.447265625 185.599609375 314.130859375 190.700195312 332.830078125 c 0
 195.799804688 352.09765625 202.599609375 368.530273438 211.099609375 382.130859375 c 0
 220.166992188 395.73046875 230.650390625 407.34765625 242.549804688 416.98046875 c 0
 264.083007812 433.98046875 289.299804688 442.48046875 318.200195312 442.48046875 c 0
 335.766601562 442.48046875 353.049804688 439.36328125 370.049804688 433.130859375 c 0
 384.783203125 427.463867188 396.400390625 419.530273438 404.900390625 409.330078125 c 0
 411.700195312 401.397460938 415.099609375 393.747070312 415.099609375 386.380859375 c 0
 415.099609375 382.4140625 413.966796875 378.1640625 411.700195312 373.630859375 c 0
 409.432617188 369.09765625 406.31640625 364.84765625 402.348632812 360.880859375 c 0
 398.381835938 356.9140625 393.848632812 354.080078125 388.749023438 352.380859375 c 0
 381.381835938 350.11328125 375.71484375 348.98046875 371.748046875 348.98046875 c 0
 364.948242188 348.98046875 356.731445312 350.11328125 347.098632812 352.380859375 c 0
 344.265625 352.947265625 340.015625 354.080078125 334.348632812 355.780273438 c 0
 328.115234375 356.9140625 322.165039062 357.196289062 316.498046875 356.629882812 c 0
 310.831054688 356.0625 305.1640625 354.080078125 299.497070312 350.6796875 c 0
 293.830078125 347.279296875 288.73046875 342.747070312 284.197265625 337.080078125 c 0
 279.6640625 331.413085938 275.981445312 323.762695312 273.1484375 314.129882812 c 0
 270.315429688 304.497070312 268.8984375 293.446289062 268.8984375 280.979492188 c 0
 268.8984375 274.1796875 269.46484375 267.663085938 270.598632812 261.4296875 c 0
 271.165039062 255.196289062 272.58203125 248.6796875 274.848632812 241.879882812 c 0
 279.381835938 228.279296875 286.749023438 221.479492188 296.94921875 221.479492188 c 0
 303.182617188 221.479492188 308.848632812 222.61328125 313.94921875 224.879882812 c 0
 319.048828125 227.146484375 323.015625 231.11328125 325.848632812 236.780273438 c 0
 332.649414062 249.247070312 336.616210938 270.780273438 337.749023438 301.380859375 c 0
 338.31640625 314.98046875 347.666015625 325.463867188 365.798828125 332.830078125 c 0
 375.369140625 336.859375 384.04296875 338.874023438 391.822265625 338.874023438 c 0
 392.794921875 338.874023438 393.75390625 338.842773438 394.69921875 338.779296875 c 0
 401.499023438 338.779296875 407.44921875 337.9296875 412.548828125 336.229492188 c 0
 423.881835938 331.696289062 429.83203125 323.479492188 430.399414062 311.580078125 c 0
 430.399414062 310.446289062 430.116210938 309.313476562 429.548828125 308.180664062 c 0
 427.735351562 292.315429688 426.829101562 278.444335938 426.829101562 266.567382812 c 0
 426.829101562 263.596679688 426.885742188 260.750976562 426.999023438 258.030273438 c 0
 426.999023438 242.1640625 428.416015625 229.130859375 431.249023438 218.930664062 c 0
 432.381835938 214.963867188 433.515625 212.130859375 434.6484375 210.430664062 c 0
 436.348632812 207.59765625 438.615234375 206.180664062 441.448242188 206.180664062 c 0
 442.581054688 207.313476562 443.71484375 209.013671875 444.84765625 211.280273438 c 0
 447.680664062 218.080078125 449.947265625 226.86328125 451.647460938 237.630859375 c 0
 453.9140625 258.030273438 455.047851562 276.73046875 455.047851562 293.73046875 c 0
 455.047851562 322.063476562 453.630859375 348.4140625 450.797851562 372.780273438 c 0
 448.530273438 396.580078125 445.413085938 416.98046875 441.446289062 433.98046875 c 0
 437.479492188 450.98046875 432.663085938 465.997070312 426.99609375 479.030273438 c 0
 420.762695312 492.630859375 415.379882812 503.397460938 410.846679688 511.330078125 c 0
 405.747070312 519.263671875 399.513671875 526.063476562 392.146484375 531.73046875 c 0
 384.779296875 537.397460938 378.546875 541.647460938 373.446289062 544.48046875 c 0
 368.346679688 547.313476562 362.396484375 549.296875 355.596679688 550.4296875 c 0
 348.796875 552.129882812 343.413085938 552.979492188 339.446289062 552.979492188 c 0
 336.046875 552.979492188 331.513671875 553.262695312 325.846679688 553.830078125 c 0
 305.446289062 553.830078125 286.1796875 547.3125 268.046875 534.279296875 c 0
 249.913085938 521.247070312 233.763671875 502.546875 219.596679688 478.1796875 c 0
 205.4296875 453.8125 194.096679688 423.49609375 185.596679688 387.228515625 c 0
 177.096679688 350.961914062 172.846679688 311.01171875 172.846679688 267.37890625 c 0
 172.846679688 229.412109375 175.6796875 195.412109375 181.346679688 165.37890625 c 0
 187.013671875 135.345703125 194.380859375 111.262695312 203.447265625 93.1298828125 c 0
 212.514648438 74.9970703125 222.997070312 59.9794921875 234.897460938 48.080078125 c 0
 246.797851562 36.1796875 258.4140625 27.6796875 269.747070312 22.580078125 c 0
 281.080078125 18.046875 293.547851562 15.779296875 307.147460938 15.779296875 c 0
 320.747070312 15.779296875 333.21484375 17.1962890625 344.547851562 20.029296875 c 0
 355.880859375 22.86328125 365.23046875 25.9794921875 372.59765625 29.3798828125 c 0
 379.96484375 32.779296875 386.764648438 37.5966796875 392.997070312 43.830078125 c 0
 399.797851562 50.0625 405.180664062 56.0126953125 409.147460938 61.6796875 c 0
 413.114257812 67.3466796875 417.647460938 74.146484375 422.747070312 82.080078125 c 0
 425.014648438 86.61328125 426.997070312 90.0126953125 428.697265625 92.279296875 c 0
 430.397460938 94.546875 432.6640625 97.3798828125 435.497070312 100.779296875 c 0
 437.764648438 104.1796875 440.03125 107.012695312 442.297851562 109.279296875 c 0
 444.565429688 110.979492188 447.3984375 112.6796875 450.797851562 114.379882812 c 0
 454.198242188 116.080078125 458.165039062 116.9296875 462.698242188 116.9296875 c 0
 466.665039062 116.9296875 470.915039062 116.080078125 475.448242188 114.379882812 c 0
 481.115234375 112.11328125 485.932617188 109.279296875 489.899414062 105.879882812 c 0
 493.866210938 102.479492188 496.983398438 98.2294921875 499.25 93.1298828125 c 0
 501.516601562 88.5966796875 502.3671875 83.779296875 501.799804688 78.6796875 c 0
 501.799804688 69.046875 499.25 57.4296875 494.150390625 43.830078125 c 0
 490.75 35.330078125 487.6328125 27.962890625 484.799804688 21.7294921875 c 0
 481.400390625 15.4970703125 476.8671875 7.8466796875 471.200195312 -1.220703125 c 0
 465.533203125 -10.287109375 459.299804688 -18.220703125 452.5 -25.0205078125 c 0
 445.700195312 -31.8203125 437.483398438 -38.6201171875 427.849609375 -45.419921875 c 0
 417.650390625 -52.220703125 406.599609375 -58.169921875 394.700195312 -63.2705078125 c 0
 382.799804688 -67.8037109375 369.200195312 -71.203125 353.900390625 -73.470703125 c 0
 338.599609375 -76.3037109375 322.733398438 -77.720703125 306.299804688 -77.720703125 c 2
 301.200195312 -77.720703125 l 2
 269.466796875 -77.720703125 240 -69.787109375 212.799804688 -53.919921875 c 0
 185.033203125 -38.0537109375 161.233398438 -16.5205078125 141.400390625 10.6796875 c 0
 121.56640625 37.8798828125 106.266601562 71.029296875 95.5 110.129882812 c 0
 84.1669921875 149.229492188 78.5 191.446289062 78.5 236.779296875 c 0
 78.5 287.212890625 82.466796875 334.24609375 90.400390625 377.87890625 c 0
 98.3330078125 421.51171875 109.3828125 460.044921875 123.549804688 493.478515625 c 0
 138.283203125 526.344726562 155.56640625 554.677734375 175.399414062 578.478515625 c 0
 195.232421875 602.278320312 217.33203125 620.127929688 241.69921875 632.028320312 c 0
 266.06640625 643.927734375 292.1328125 650.161132812 319.900390625 650.728515625 c 0
 339.733398438 650.728515625 357.583007812 649.028320312 373.450195312 645.627929688 c 0
 389.8828125 642.794921875 405.75 637.6953125 421.049804688 630.328125 c 0
 436.349609375 622.39453125 449.950195312 612.1953125 461.849609375 599.728515625 c 0
 473.75 587.260742188 484.516601562 571.677734375 494.150390625 552.978515625 c 0
 503.783203125 534.278320312 511.715820312 512.4609375 517.94921875 487.528320312 c 0
 530.982421875 435.39453125 537.499023438 370.228515625 537.499023438 292.028320312 c 0
 537.499023438 248.9609375 531.265625 210.994140625 518.798828125 178.126953125 c 0
 511.999023438 160.560546875 502.08203125 146.393554688 489.048828125 135.625976562 c 0
 476.015625 124.859375 460.432617188 119.192382812 442.299804688 118.625976562 c 0
 416.233398438 118.625976562 396.400390625 127.408203125 382.799804688 144.975585938 c 0
 377.700195312 151.775390625 373.450195312 159.708984375 370.049804688 168.775390625 c 1
EndSplineSet
Validated: 524289
EndChar

StartChar: A
Encoding: 65 65 33
Width: 570
VWidth: 903
GlyphClass: 2
Flags: W
HStem: 267.275 78.1982<255.053 387.896>
LayerCount: 2
Fore
SplineSet
252.745117188 336.124023438 m 1
 302.045898438 341.223632812 347.095703125 344.340820312 387.895507812 345.473632812 c 1
 345.395507812 537.57421875 l 1
 321.028320312 496.20703125 290.145507812 429.057617188 252.745117188 336.124023438 c 1
157.549804688 95.5751953125 m 0
 151.31640625 75.1748046875 141.6796875 61.57421875 128.646484375 54.7744140625 c 0
 121.279296875 50.8076171875 114.196289062 48.826171875 107.396484375 48.826171875 c 0
 100.596679688 48.826171875 94.0791015625 50.2412109375 87.8466796875 53.07421875 c 0
 77.646484375 57.607421875 70.279296875 64.6904296875 65.74609375 74.3232421875 c 0
 62.3466796875 81.6904296875 60.646484375 89.765625 60.646484375 98.5478515625 c 0
 60.646484375 107.331054688 61.779296875 116.823242188 64.0458984375 127.0234375 c 0
 67.4462890625 144.58984375 83.029296875 185.390625 110.795898438 249.422851562 c 1
 102.86328125 256.790039062 98.330078125 265.857421875 97.197265625 276.624023438 c 2
 97.197265625 278.32421875 l 2
 97.197265625 287.95703125 102.013671875 297.024414062 111.647460938 305.524414062 c 0
 119.580078125 312.890625 129.497070312 318.557617188 141.397460938 322.525390625 c 1
 214.497070312 477.791992188 271.1640625 581.775390625 311.397460938 634.474609375 c 0
 321.030273438 646.375 330.096679688 655.158203125 338.596679688 660.825195312 c 0
 347.096679688 667.057617188 356.73046875 670.174804688 367.497070312 670.174804688 c 2
 374.296875 670.174804688 l 2
 385.629882812 670.174804688 395.830078125 667.625 404.897460938 662.525390625 c 0
 417.364257812 655.724609375 425.013671875 644.958007812 427.846679688 630.224609375 c 0
 440.314453125 562.224609375 460.713867188 466.174804688 489.046875 342.075195312 c 0
 504.9140625 272.94140625 517.380859375 222.083984375 526.448242188 189.500976562 c 0
 535.514648438 156.91796875 542.314453125 136.942382812 546.84765625 129.576171875 c 0
 552.514648438 119.375976562 555.34765625 109.743164062 555.34765625 100.67578125 c 2
 555.34765625 95.5751953125 l 2
 554.21484375 85.375 550.672851562 76.5927734375 544.72265625 69.2255859375 c 0
 538.772460938 61.8583984375 531.831054688 56.4736328125 523.897460938 53.07421875 c 0
 514.264648438 50.2412109375 508.032226562 48.826171875 505.19921875 48.826171875 c 0
 497.83203125 48.826171875 490.46484375 50.8076171875 483.09765625 54.7744140625 c 0
 470.064453125 61.5751953125 459.58203125 74.892578125 451.6484375 94.7255859375 c 0
 443.715820312 112.858398438 428.69921875 170.375976562 406.598632812 267.275390625 c 1
 335.765625 264.442382812 271.732421875 258.775390625 214.5 250.275390625 c 1
 195.232421875 205.508789062 176.25 153.94140625 157.549804688 95.5751953125 c 0
EndSplineSet
Validated: 524289
EndChar

StartChar: B
Encoding: 66 66 34
Width: 570
VWidth: 901
GlyphClass: 2
Flags: W
HStem: 43.2471 76.6309<227.564 261.869> 293.703 81.9814<186.45 357.419> 565.703 88.3994<190.303 358.36>
VStem: 81.0498 102.851<121.248 293.703 377.002 560.653> 399.801 101.15<414.582 528.804> 431.25 105.401<182.073 247.902>
LayerCount: 2
Fore
SplineSet
83.599609375 86.2998046875 m 2xf4
 84.7333984375 102.733398438 85.5830078125 130.786132812 86.150390625 170.453125 c 0
 86.150390625 244.686523438 84.4501953125 326.853515625 81.0498046875 416.953125 c 1
 79.9169921875 453.786132812 79.349609375 478.578125 79.349609375 491.328125 c 0
 79.349609375 504.078125 79.775390625 521.078125 80.625 542.328125 c 0
 81.474609375 563.578125 81.900390625 578.453125 81.900390625 586.953125 c 0
 82.466796875 604.520507812 87.708984375 617.978515625 97.6259765625 627.328125 c 0
 107.54296875 636.678710938 119.868164062 641.353515625 134.600585938 641.353515625 c 2
 137.151367188 641.353515625 l 1
 152.451171875 645.88671875 171.43359375 649.286132812 194.100585938 651.553710938 c 0
 203.16796875 652.686523438 212.942382812 653.39453125 223.42578125 653.677734375 c 0
 233.909179688 653.9609375 241.984375 654.102539062 247.651367188 654.102539062 c 2
 266.350585938 654.102539062 l 1
 276.55078125 654.102539062 l 2
 320.18359375 654.102539062 359.284179688 647.01953125 393.850585938 632.852539062 c 0
 427.850585938 618.120117188 453.91796875 597.15234375 472.05078125 569.953125 c 0
 491.317382812 541.620117188 500.951171875 508.469726562 500.951171875 470.502929688 c 0xf8
 500.951171875 438.203125 493.017578125 410.15234375 477.151367188 386.352539062 c 0
 464.68359375 368.219726562 449.100585938 353.76953125 430.401367188 343.002929688 c 1
 442.868164062 337.3359375 455.05078125 330.818359375 466.951171875 323.452148438 c 0
 486.217773438 310.985351562 502.651367188 296.818359375 516.250976562 280.951171875 c 0
 529.850585938 265.083984375 536.651367188 249.500976562 536.651367188 234.201171875 c 2
 536.651367188 233.350585938 l 2
 536.651367188 211.250976562 530.842773438 189.434570312 519.225585938 167.901367188 c 0
 507.609375 146.368164062 490.891601562 126.67578125 469.075195312 108.826171875 c 0
 447.2578125 90.9755859375 418.215820312 75.818359375 381.94921875 63.3505859375 c 0
 345.682617188 50.8837890625 305.732421875 42.951171875 262.099609375 39.55078125 c 1
 257.171875 42.0146484375 252.190429688 43.2470703125 247.15625 43.2470703125 c 0
 240.611328125 43.2470703125 233.975585938 41.1650390625 227.249023438 37.0009765625 c 1
 197.782226562 34.734375 179.649414062 33.3173828125 172.849609375 32.75 c 0
 165.482421875 32.18359375 158.682617188 31.900390625 152.44921875 31.900390625 c 0
 146.215820312 31.900390625 139.983398438 32.466796875 133.75 33.6005859375 c 2
 132.049804688 33.6005859375 l 2
 117.8828125 33.6005859375 105.983398438 38.4169921875 96.349609375 48.0498046875 c 0
 87.849609375 56.5498046875 83.599609375 67.6005859375 83.599609375 81.2001953125 c 2
 83.599609375 86.2998046875 l 2xf4
183.900390625 394.00390625 m 2
 183.900390625 377.001953125 l 1
 208.833007812 376.434570312 231.5 376.009765625 251.900390625 375.7265625 c 0
 253.938476562 375.698242188 255.948242188 375.684570312 257.926757812 375.684570312 c 0
 275.752929688 375.684570312 291.168945312 376.83203125 304.174804688 379.126953125 c 0
 318.625 381.676757812 330.666992188 384.934570312 340.299804688 388.90234375 c 0
 349.93359375 392.869140625 358.43359375 397.685546875 365.799804688 403.352539062 c 0
 373.166992188 409.01953125 378.833984375 414.686523438 382.80078125 420.353515625 c 0
 386.767578125 426.020507812 390.026367188 432.395507812 392.576171875 439.478515625 c 0
 395.125976562 446.561523438 396.967773438 452.936523438 398.100585938 458.603515625 c 0
 399.234375 464.270507812 399.80078125 470.220703125 399.80078125 476.453125 c 0
 399.80078125 488.920898438 396.967773438 500.395507812 391.30078125 510.87890625 c 0
 385.633789062 521.361328125 378.409179688 530.00390625 369.625976562 536.803710938 c 0
 360.842773438 543.603515625 350.78515625 549.270507812 339.452148438 553.803710938 c 0
 320.327148438 561.772460938 300.20703125 565.756835938 279.08984375 565.756835938 c 0
 277.681640625 565.756835938 276.268554688 565.739257812 274.8515625 565.703125 c 0
 245.384765625 565.703125 216.767578125 563.153320312 189.000976562 558.053710938 c 1
 188.43359375 547.853515625 187.8671875 532.553710938 187.299804688 512.153320312 c 0
 185.033203125 470.786132812 183.900390625 431.403320312 183.900390625 394.00390625 c 2
418.924804688 192.126953125 m 0
 427.141601562 202.610351562 431.25 212.104492188 431.25 220.604492188 c 0xf4
 431.25 225.137695312 428.416992188 230.520507812 422.75 236.75390625 c 0
 417.083007812 242.986328125 408.016601562 249.64453125 395.548828125 256.727539062 c 0
 383.08203125 263.810546875 365.232421875 270.752929688 341.999023438 277.552734375 c 0
 318.766601562 284.352539062 292.1328125 289.735351562 262.099609375 293.703125 c 1
 186.450195312 293.703125 l 1
 188.716796875 215.502929688 190.700195312 157.419921875 192.400390625 119.453125 c 1
 198.6328125 119.453125 207.700195312 119.594726562 219.599609375 119.877929688 c 0
 231.5 120.161132812 241.700195312 120.5859375 250.200195312 121.15234375 c 0
 277.400390625 122.286132812 302.900390625 126.536132812 326.700195312 133.90234375 c 0
 350.5 141.26953125 369.766601562 150.194335938 384.5 160.677734375 c 0
 399.233398438 171.161132812 410.708007812 181.643554688 418.924804688 192.126953125 c 0
EndSplineSet
Validated: 524289
EndChar

StartChar: C
Encoding: 67 67 35
Width: 570
VWidth: 903
GlyphClass: 2
Flags: W
HStem: 26.9014 96.9014<228.605 394.381> 473.155 209.945<447.203 529.629> 570.055 89.2461<326.154 440.066>
VStem: 68.3008 105.4<183.225 378.686> 438.902 107.949<489.399 549.739>
LayerCount: 2
Fore
SplineSet
540.049804688 641.450195312 m 0xd8
 545.150390625 619.350585938 547.702148438 595.837890625 547.702148438 570.905273438 c 0
 547.702148438 553.905273438 547.418945312 543.705078125 546.8515625 540.3046875 c 0
 546.8515625 526.138671875 541.751953125 511.830078125 531.551757812 497.379882812 c 0
 521.3515625 482.9296875 510.301757812 475.138671875 498.40234375 474.004882812 c 0
 496.134765625 473.438476562 493.584960938 473.155273438 490.751953125 473.155273438 c 0xd8
 480.551757812 473.155273438 470.3515625 476.5546875 460.15234375 483.35546875 c 0
 445.985351562 492.421875 438.90234375 504.60546875 438.90234375 519.905273438 c 0
 438.90234375 523.872070312 439.46875 534.072265625 440.6015625 550.504882812 c 1
 432.668945312 555.60546875 427.568359375 558.721679688 425.301757812 559.85546875 c 0
 423.03515625 560.98828125 419.91796875 562.688476562 415.951171875 564.955078125 c 0
 408.583984375 568.35546875 401.216796875 570.0546875 393.850585938 570.0546875 c 0
 376.850585938 570.0546875 358.150390625 564.955078125 337.75 554.754882812 c 0
 317.350585938 544.5546875 297.517578125 529.6796875 278.25 510.129882812 c 0
 258.983398438 490.580078125 241.55859375 468.197265625 225.975585938 442.98046875 c 0
 210.392578125 417.763671875 197.784179688 389.146484375 188.151367188 357.12890625 c 0
 178.517578125 325.112304688 173.701171875 292.954101562 173.701171875 260.654296875 c 0
 173.701171875 237.987304688 178.80078125 216.170898438 189.000976562 195.203125 c 0
 199.201171875 174.236328125 213.225585938 157.094726562 231.076171875 143.77734375 c 0
 248.92578125 130.4609375 267.484375 123.802734375 286.750976562 123.802734375 c 0
 306.017578125 123.802734375 324.717773438 125.64453125 342.850585938 129.328125 c 0
 360.984375 133.010742188 377.276367188 137.685546875 391.725585938 143.352539062 c 0
 406.17578125 149.01953125 418.642578125 154.828125 429.125976562 160.77734375 c 0
 439.609375 166.727539062 448.817382812 172.819335938 456.75 179.052734375 c 0
 464.68359375 184.719726562 471.766601562 188.969726562 477.999023438 191.802734375 c 0
 484.799804688 195.203125 492.307617188 196.90234375 500.524414062 196.90234375 c 0
 508.741210938 196.90234375 516.533203125 194.352539062 523.900390625 189.252929688 c 0
 536.3671875 179.619140625 542.600585938 168.14453125 542.600585938 154.828125 c 0
 542.600585938 141.510742188 535.517578125 126.918945312 521.350585938 111.051757812 c 0
 472.049804688 54.9521484375 393.283203125 26.9013671875 285.049804688 26.9013671875 c 2
 276.549804688 26.9013671875 l 2
 249.916992188 26.9013671875 224.984375 30.869140625 201.750976562 38.8017578125 c 0
 178.517578125 46.7353515625 158.967773438 57.642578125 143.100585938 71.5263671875 c 0
 127.234375 85.4091796875 113.633789062 101.133789062 102.30078125 118.701171875 c 0
 90.9677734375 136.267578125 82.4677734375 154.826171875 76.80078125 174.375976562 c 0
 71.1337890625 193.92578125 68.30078125 213.618164062 68.30078125 233.451171875 c 0
 68.30078125 274.250976562 72.693359375 313.776367188 81.4755859375 352.026367188 c 0
 90.2587890625 390.276367188 102.017578125 424.701171875 116.75 455.30078125 c 0
 131.483398438 485.901367188 148.766601562 514.234375 168.599609375 540.30078125 c 0
 190.1328125 566.368164062 212.799804688 587.901367188 236.599609375 604.901367188 c 0
 260.399414062 621.901367188 285.33203125 635.217773438 311.399414062 644.850585938 c 0
 337.466796875 654.484375 362.68359375 659.30078125 387.049804688 659.30078125 c 0xb8
 406.8828125 659.30078125 425.299804688 657.600585938 442.299804688 654.201171875 c 1
 445.700195312 660.43359375 449.950195312 665.817382812 455.049804688 670.350585938 c 0
 462.983398438 677.150390625 471.766601562 681.1171875 481.399414062 682.25 c 0
 485.366210938 682.817382812 487.6328125 683.100585938 488.200195312 683.100585938 c 2
 489.049804688 683.100585938 l 2
 498.1171875 683.100585938 507.466796875 680.267578125 517.100585938 674.600585938 c 0
 529 666.666992188 536.650390625 655.6171875 540.049804688 641.450195312 c 0xd8
EndSplineSet
Validated: 524289
EndChar

StartChar: D
Encoding: 68 68 36
Width: 570
VWidth: 901
GlyphClass: 2
Flags: W
HStem: 24.875 93.498<186.237 390.547>
VStem: 66.0488 103.255<138.841 143.022 144.199 361.635 494.887 572.757> 447.36 101.993<187.987 388.972>
LayerCount: 2
Fore
SplineSet
70.8046875 103.924804688 m 2
 71.9384765625 123.192382812 72.5087890625 153.506835938 72.5087890625 194.873046875 c 0
 72.5087890625 269.673828125 70.80859375 358.356445312 67.408203125 460.923828125 c 1
 66.841796875 491.5234375 66.4169921875 511.78125 66.1337890625 521.698242188 c 0
 66.0771484375 523.680664062 66.048828125 525.866210938 66.048828125 528.255859375 c 0
 66.048828125 537.822265625 66.501953125 550.653320312 67.408203125 566.749023438 c 0
 68.5419921875 586.866210938 69.1083984375 599.19140625 69.1083984375 603.724609375 c 1
 69.67578125 621.291015625 74.775390625 634.608398438 84.408203125 643.674804688 c 0
 94.0419921875 653.307617188 106.224609375 658.125 120.958007812 658.125 c 0
 140.224609375 658.125 165.724609375 655.291992188 197.458007812 649.625 c 0
 217.291015625 646.224609375 237.548828125 641.549804688 258.231445312 635.599609375 c 0
 278.915039062 629.650390625 301.297851562 621.291992188 325.380859375 610.525390625 c 0
 349.463867188 599.7578125 372.272460938 587.432617188 393.8046875 573.549804688 c 0
 415.337890625 559.666992188 436.021484375 541.958984375 455.854492188 520.42578125 c 0
 474.5546875 499.458984375 490.846679688 476.3671875 504.729492188 451.150390625 c 0
 518.612304688 425.932617188 529.520507812 396.182617188 537.453125 361.900390625 c 0
 545.38671875 327.6171875 549.353515625 290.641601562 549.353515625 250.974609375 c 0
 549.353515625 231.141601562 546.520507812 210.7421875 540.853515625 189.775390625 c 0
 535.186523438 168.807617188 526.686523438 148.69140625 515.353515625 129.423828125 c 0
 504.020507812 110.157226562 490.5625 92.732421875 474.979492188 77.1494140625 c 0
 459.396484375 61.56640625 439.98828125 48.9580078125 416.754882812 39.3251953125 c 0
 392.955078125 29.6923828125 367.73828125 24.875 341.10546875 24.875 c 2
 332.60546875 24.875 l 2
 304.837890625 24.875 276.788085938 26.150390625 248.455078125 28.7001953125 c 0
 220.122070312 31.25 197.455078125 34.224609375 180.455078125 37.625 c 0
 163.455078125 41.025390625 149.4296875 44.1416015625 138.379882812 46.974609375 c 0
 127.330078125 49.8076171875 120.671875 51.224609375 118.405273438 51.224609375 c 0
 104.23828125 51.224609375 92.337890625 56.0419921875 82.705078125 65.6748046875 c 0
 74.736328125 73.6435546875 70.751953125 83.6044921875 70.751953125 95.556640625 c 0
 70.751953125 96.3544921875 70.76953125 97.16015625 70.8046875 97.974609375 c 2
 70.8046875 103.924804688 l 2
250.583007812 124.322265625 m 0
 276.366210938 120.35546875 306.259765625 118.373046875 340.259765625 118.373046875 c 0
 354.993164062 118.373046875 369.018554688 123.190429688 382.334960938 132.823242188 c 0
 395.65234375 142.456054688 406.985351562 155.064453125 416.334960938 170.647460938 c 0
 425.685546875 186.23046875 433.193359375 203.655273438 438.860351562 222.922851562 c 0
 444.52734375 242.189453125 447.360351562 260.889648438 447.360351562 279.022460938 c 0
 447.360351562 381.58984375 402.02734375 460.072265625 311.360351562 514.47265625 c 0
 279.060546875 533.739257812 232.02734375 553.572265625 170.259765625 573.97265625 c 1
 169.623046875 548.048828125 169.303710938 521.6875 169.303710938 494.88671875 c 0
 169.303710938 450.216796875 170.189453125 404.328125 171.959960938 357.22265625 c 0
 173.092773438 332.85546875 174.2265625 297.297851562 175.359375 250.547851562 c 0
 176.4921875 203.797851562 177.625 167.955078125 178.758789062 143.022460938 c 1
 200.858398438 134.522460938 224.80078125 128.2890625 250.583007812 124.322265625 c 0
EndSplineSet
Validated: 524289
EndChar

StartChar: E
Encoding: 69 69 37
Width: 570
VWidth: 901
GlyphClass: 2
Flags: W
HStem: 34.2998 95.2012<185.419 477.992> 46.2002 97.75<238.961 526.93> 307.151 92.6494<181.382 353.865> 322.451 90.1006<182.913 515.522> 552.8 91.7998<185.798 529.125>
VStem: 76.8311 105.401<132.211 307.151 399.801 546.301>
LayerCount: 2
Fore
SplineSet
133.780273438 649.700195312 m 2x8c
 147.947265625 649.700195312 159.852539062 645.166015625 169.485351562 636.099609375 c 1
 218.21875 641.765625 280.833007812 644.599609375 357.333007812 644.599609375 c 0
 377.166015625 644.599609375 395.584960938 644.31640625 412.584960938 643.749023438 c 0
 447.71875 642.616210938 475.201171875 640.916015625 495.034179688 638.649414062 c 0
 510.901367188 636.94921875 522.376953125 632.557617188 529.459960938 625.474609375 c 0
 536.54296875 618.390625 540.3671875 608.899414062 540.934570312 596.999023438 c 0
 540.934570312 590.765625 540.2265625 584.958007812 538.809570312 579.575195312 c 0
 537.392578125 574.192382812 535.267578125 569.234375 532.434570312 564.701171875 c 0
 529.034179688 559.034179688 523.651367188 554.784179688 516.284179688 551.951171875 c 0
 511.184570312 549.68359375 505.801757812 548.55078125 500.134765625 548.55078125 c 0
 497.8671875 548.55078125 495.600585938 548.833984375 493.333984375 549.400390625 c 0
 460.75390625 551.76171875 426.796875 552.94140625 391.461914062 552.94140625 c 0
 384.391601562 552.94140625 377.264648438 552.89453125 370.083984375 552.799804688 c 2
 324.18359375 552.799804688 l 2
 270.350585938 551.666992188 223.600585938 548.833984375 183.93359375 544.30078125 c 1
 181.666992188 495.000976562 180.534179688 446.833984375 180.534179688 399.80078125 c 1xac
 224.166992188 400.368164062 283.099609375 402.634765625 357.333007812 406.6015625 c 0
 430.432617188 410.568359375 471.515625 412.551757812 480.58203125 412.551757812 c 0
 497.015625 412.551757812 508.774414062 408.584960938 515.857421875 400.651367188 c 0
 522.940429688 392.71875 526.482421875 382.801757812 526.482421875 370.901367188 c 0
 526.482421875 357.301757812 523.649414062 346.53515625 517.982421875 338.6015625 c 0
 510.048828125 328.401367188 497.58203125 323.018554688 480.58203125 322.451171875 c 0x1c
 470.381835938 322.451171875 426.46484375 320.184570312 348.83203125 315.651367188 c 0
 269.499023438 310.551757812 213.681640625 307.71875 181.381835938 307.151367188 c 1
 181.94921875 292.984375 182.232421875 279.243164062 182.232421875 265.92578125 c 2
 182.232421875 223.850585938 l 2
 182.798828125 185.883789062 183.931640625 159.534179688 185.631835938 144.80078125 c 0
 186.19921875 139.701171875 186.765625 135.451171875 187.333007812 132.05078125 c 0
 198.666015625 130.350585938 215.524414062 129.500976562 237.907226562 129.500976562 c 0xac
 260.290039062 129.500976562 288.482421875 130.067382812 322.482421875 131.201171875 c 0
 401.815429688 134.034179688 451.681640625 137.716796875 472.08203125 142.25 c 0
 480.58203125 143.3828125 488.374023438 143.950195312 495.45703125 143.950195312 c 0
 502.540039062 143.950195312 508.7734375 142.533203125 514.15625 139.700195312 c 0
 519.5390625 136.8671875 523.931640625 133.891601562 527.331054688 130.775390625 c 0
 530.731445312 127.658203125 533.422851562 123.833007812 535.40625 119.299804688 c 0
 537.389648438 114.766601562 538.806640625 110.799804688 539.65625 107.400390625 c 0
 540.505859375 104 540.934570312 100.317382812 540.934570312 96.349609375 c 0
 540.934570312 82.75 536.3984375 70.849609375 527.331054688 60.650390625 c 0
 518.831054688 51.0166015625 506.931640625 45.9169921875 491.630859375 45.349609375 c 1
 487.098632812 52.716796875 482.565429688 53 478.032226562 46.2001953125 c 1
 475.482421875 46.2001953125 l 2x4c
 462.44921875 46.2001953125 437.798828125 45.0673828125 401.532226562 42.7998046875 c 0
 364.131835938 40.533203125 326.024414062 38.5498046875 287.20703125 36.849609375 c 0
 248.390625 35.150390625 219.065429688 34.2998046875 199.232421875 34.2998046875 c 0
 179.96484375 34.2998046875 164.098632812 34.8671875 151.630859375 36 c 0
 135.764648438 37.1328125 120.463867188 44.5 105.731445312 58.099609375 c 0
 90.998046875 71.7001953125 82.498046875 87.849609375 80.2314453125 106.549804688 c 0
 78.53125 120.150390625 77.3984375 143.950195312 76.8310546875 177.950195312 c 0
 76.8310546875 209.1171875 77.1142578125 240.424804688 77.681640625 271.875 c 0
 78.248046875 303.325195312 78.53125 329.958007812 78.53125 351.775390625 c 0
 78.53125 373.591796875 77.9638671875 404.049804688 76.8310546875 443.150390625 c 0
 76.2646484375 476.016601562 75.8388671875 497.974609375 75.556640625 509.025390625 c 0
 75.5 511.233398438 75.4716796875 513.62890625 75.4716796875 516.211914062 c 0
 75.4716796875 526.547851562 75.9248046875 539.877929688 76.8310546875 556.200195312 c 0
 77.9638671875 576.599609375 78.53125 589.349609375 78.53125 594.450195312 c 2
 78.53125 595.299804688 l 2
 79.0986328125 612.8671875 84.1982421875 626.325195312 93.8310546875 635.674804688 c 0
 103.463867188 645.025390625 115.647460938 649.700195312 130.380859375 649.700195312 c 2
 133.780273438 649.700195312 l 2x8c
EndSplineSet
Validated: 524289
EndChar

StartChar: F
Encoding: 70 70 38
Width: 570
VWidth: 901
GlyphClass: 2
Flags: W
HStem: 310.372 85.4258<468.092 498.517> 318.448 90.5264<181.35 490.763> 559.425 92.7344<187.272 528.187>
VStem: 76.7998 103.486<85.5457 316.219 405.575 552.625> 80.2002 108.799<48.9484 311.167>
LayerCount: 2
Fore
SplineSet
134.599609375 659.724609375 m 0x70
 149.333007812 659.724609375 161.233398438 654.907226562 170.299804688 645.274414062 c 1
 236.087890625 649.864257812 300.26953125 652.159179688 362.84375 652.159179688 c 0
 369.798828125 652.159179688 376.734375 652.130859375 383.650390625 652.07421875 c 0
 428.983398438 652.07421875 466.099609375 650.94140625 495 648.673828125 c 0
 510.8671875 647.541015625 522.341796875 643.291015625 529.424804688 635.923828125 c 0
 536.5078125 628.556640625 540.333007812 618.923828125 540.900390625 607.024414062 c 2
 540.900390625 606.173828125 l 2
 540.900390625 593.140625 536.791992188 581.807617188 528.575195312 572.174804688 c 0
 520.358398438 562.541992188 508.033203125 557.724609375 491.599609375 557.724609375 c 2
 489.900390625 557.724609375 l 2
 466.525390625 559 442.03515625 559.637695312 416.430664062 559.637695312 c 0
 407.89453125 559.637695312 399.234375 559.56640625 390.450195312 559.424804688 c 0
 324.716796875 559.424804688 255.8671875 557.158203125 183.900390625 552.625 c 1
 183.333007812 544.125 182.765625 531.091796875 182.19921875 513.524414062 c 0
 180.923828125 488.451171875 180.286132812 464.651367188 180.286132812 442.126953125 c 0
 180.286132812 434.618164062 180.357421875 427.250976562 180.499023438 420.024414062 c 2
 180.499023438 405.575195312 l 1
 203.732421875 407.841796875 228.94921875 408.974609375 256.149414062 408.974609375 c 0x70
 263.515625 408.974609375 270.8828125 408.69140625 278.25 408.125 c 0
 319.049804688 407.557617188 355.8828125 406.140625 388.75 403.874023438 c 0
 422.182617188 401.607421875 447.2578125 398.915039062 463.974609375 395.797851562 c 0
 480.692382812 392.681640625 492.30859375 387.864257812 498.826171875 381.34765625 c 0
 505.342773438 374.830078125 509.16796875 365.905273438 510.30078125 354.572265625 c 0
 510.30078125 342.671875 507.467773438 332.189453125 501.80078125 323.122070312 c 0
 497.833984375 317.455078125 492.166992188 313.205078125 484.799804688 310.372070312 c 0xb0
 479.700195312 308.671875 474.033203125 307.822265625 467.799804688 307.822265625 c 2
 461.849609375 307.822265625 l 2
 444.283203125 310.655273438 418.783203125 313.205078125 385.349609375 315.47265625 c 0
 353.612304688 317.487304688 320.98046875 318.495117188 287.451171875 318.495117188 c 0
 283.264648438 318.495117188 279.064453125 318.479492188 274.849609375 318.448242188 c 0
 236.8828125 318.165039062 205.715820312 316.889648438 181.349609375 314.623046875 c 1
 184.182617188 240.956054688 186.732421875 163.323242188 188.999023438 81.7236328125 c 0
 187.298828125 66.4228515625 179.932617188 54.5234375 166.899414062 46.0234375 c 0
 155.56640625 38.08984375 143.381835938 33.83984375 130.349609375 33.2734375 c 0
 129.215820312 33.2734375 128.3671875 33.556640625 127.799804688 34.123046875 c 0
 113.6328125 34.123046875 101.733398438 38.9404296875 92.099609375 48.5732421875 c 0
 84.1318359375 56.5419921875 80.146484375 66.7509765625 80.146484375 79.2021484375 c 0
 80.146484375 80.0322265625 80.1650390625 80.873046875 80.2001953125 81.7236328125 c 2
 80.2001953125 86.8232421875 l 2x68
 81.3330078125 104.390625 81.900390625 133.857421875 81.900390625 175.223632812 c 0
 81.900390625 253.423828125 80.2001953125 340.124023438 76.7998046875 435.32421875 c 0
 75.6669921875 472.157226562 75.099609375 496.94921875 75.099609375 509.69921875 c 0
 75.099609375 522.44921875 75.525390625 539.44921875 76.375 560.69921875 c 0
 77.224609375 581.94921875 77.9326171875 596.541015625 78.5 604.473632812 c 0
 79.0673828125 622.041015625 84.1669921875 635.357421875 93.7998046875 644.424804688 c 0
 103.432617188 654.057617188 115.616210938 658.875 130.349609375 658.875 c 0
 132.616210938 659.44140625 134.033203125 659.724609375 134.599609375 659.724609375 c 0x70
EndSplineSet
Validated: 524289
EndChar

StartChar: G
Encoding: 71 71 39
Width: 570
VWidth: 901
GlyphClass: 2
Flags: W
HStem: 25.6299 96.8975<227.28 341.579> 578.13 89.249<325.574 454.475>
VStem: 66.6045 105.398<182.086 381.419>
LayerCount: 2
Fore
SplineSet
345.400390625 38.3759765625 m 0
 322.733398438 29.8759765625 300.071289062 25.6298828125 277.404296875 25.6298828125 c 0
 249.637695312 25.6298828125 223.854492188 29.5966796875 200.0546875 37.5302734375 c 0
 176.821289062 45.462890625 157.413085938 56.37109375 141.830078125 70.25390625 c 0
 126.247070312 84.13671875 112.647460938 99.8623046875 101.030273438 117.428710938 c 0
 89.4130859375 134.99609375 80.771484375 153.553710938 75.1044921875 173.103515625 c 0
 69.4375 192.654296875 66.6044921875 212.345703125 66.6044921875 232.178710938 c 0
 66.6044921875 273.545898438 70.9970703125 313.779296875 79.779296875 352.87890625 c 0
 88.5625 391.978515625 100.3203125 427.112304688 115.053710938 458.279296875 c 0
 129.787109375 489.446289062 147.0703125 518.345703125 166.903320312 544.978515625 c 0
 188.436523438 571.045898438 211.244140625 593.00390625 235.327148438 610.853515625 c 0
 259.41015625 628.704101562 284.202148438 642.446289062 309.702148438 652.079101562 c 0
 335.76953125 662.279296875 361.551757812 667.37890625 387.051757812 667.37890625 c 0
 412.551757812 667.37890625 441.168945312 661.711914062 472.90234375 650.37890625 c 0
 503.501953125 639.045898438 523.619140625 628.5625 533.251953125 618.9296875 c 0
 543.452148438 608.729492188 548.834960938 596.546875 549.40234375 582.379882812 c 0
 549.40234375 575.580078125 547.985351562 568.212890625 545.15234375 560.280273438 c 0
 541.751953125 550.080078125 534.384765625 542.712890625 523.051757812 538.1796875 c 0
 517.384765625 535.913085938 511.71875 534.780273438 506.051757812 534.780273438 c 0
 499.818359375 534.780273438 494.435546875 535.629882812 489.90234375 537.330078125 c 0
 485.369140625 539.030273438 476.869140625 543.5625 464.40234375 550.9296875 c 0
 451.935546875 558.296875 439.185546875 564.671875 426.15234375 570.0546875 c 0
 413.119140625 575.4375 401.786132812 578.129882812 392.153320312 578.129882812 c 0
 375.153320312 578.129882812 356.453125 572.887695312 336.052734375 562.405273438 c 0
 315.653320312 551.921875 295.9609375 536.622070312 276.977539062 516.504882812 c 0
 257.995117188 496.387695312 240.5703125 473.295898438 224.703125 447.228515625 c 0
 208.8359375 421.162109375 196.0859375 391.6953125 186.453125 358.828125 c 0
 176.8203125 325.9609375 172.002929688 293.094726562 172.002929688 260.227539062 c 0
 172.002929688 237.560546875 177.102539062 215.602539062 187.302734375 194.352539062 c 0
 197.502929688 173.102539062 211.528320312 155.819335938 229.377929688 142.501953125 c 0
 247.227539062 129.185546875 266.0703125 122.52734375 285.903320312 122.52734375 c 0
 298.936523438 122.52734375 312.252929688 126.352539062 325.852539062 134.001953125 c 0
 339.453125 141.65234375 352.203125 151.709960938 364.102539062 164.177734375 c 0
 376.002929688 176.64453125 387.3359375 190.811523438 398.102539062 206.677734375 c 0
 414.536132812 231.044921875 427.569335938 255.978515625 437.202148438 281.478515625 c 1
 404.334960938 279.778320312 371.185546875 276.802734375 337.751953125 272.552734375 c 0
 304.319335938 268.302734375 281.0859375 263.061523438 268.052734375 256.828125 c 0
 261.252929688 253.427734375 254.453125 251.728515625 247.653320312 251.728515625 c 0
 240.852539062 251.728515625 234.052734375 253.7109375 227.252929688 257.677734375 c 0
 214.786132812 264.478515625 207.418945312 274.111328125 205.15234375 286.578125 c 0
 204.584960938 289.411132812 204.301757812 292.244140625 204.301757812 295.077148438 c 0
 204.301757812 306.977539062 209.119140625 317.744140625 218.751953125 327.376953125 c 0
 225.551757812 334.177734375 234.90234375 340.126953125 246.801757812 345.227539062 c 0
 265.501953125 353.727539062 304.03515625 359.959960938 362.40234375 363.927734375 c 0
 404.334960938 366.760742188 439.46875 368.177734375 467.801757812 368.177734375 c 2
 495.8515625 368.177734375 l 2
 512.284179688 367.043945312 524.184570312 363.64453125 531.551757812 357.977539062 c 0
 541.184570312 350.610351562 546.000976562 338.993164062 546.000976562 323.126953125 c 0
 546.000976562 306.126953125 539.768554688 293.943359375 527.301757812 286.576171875 c 0
 527.301757812 284.876953125 526.734375 281.4765625 525.6015625 276.376953125 c 0
 525.034179688 273.54296875 524.467773438 268.7265625 523.900390625 261.926757812 c 0
 521.067382812 237.559570312 509.734375 206.392578125 489.901367188 168.42578125 c 0
 480.268554688 150.858398438 468.368164062 133.575195312 454.201171875 116.575195312 c 0
 439.46875 99.5751953125 423.318359375 84.41796875 405.750976562 71.1005859375 c 0
 388.184570312 57.7841796875 368.067382812 46.8759765625 345.400390625 38.3759765625 c 0
EndSplineSet
Validated: 524289
EndChar

StartChar: H
Encoding: 72 72 40
Width: 570
VWidth: 901
GlyphClass: 2
Flags: W
HStem: 317.102 73.1035<195.797 399.81>
VStem: 89.5479 104.55<48.8747 317.102 390.205 604.958> 416.799 108.801<45.2183 341.512> 423.598 105.685<54.4858 341.751 408.929 643.898>
LayerCount: 2
Fore
SplineSet
84.4482421875 79.9501953125 m 2xe0
 84.4482421875 86.7548828125 l 2
 85.5810546875 102.0546875 86.1484375 140.021484375 86.1484375 200.654296875 c 0
 86.1484375 235.221679688 86.8564453125 277.296875 88.2734375 326.879882812 c 0
 89.6904296875 376.462890625 90.3984375 406.212890625 90.3984375 416.129882812 c 2
 90.3984375 445.879882812 l 2
 90.3984375 455.796875 90.255859375 472.37109375 89.97265625 495.604492188 c 0
 89.6904296875 518.837890625 89.5478515625 534.279296875 89.5478515625 541.9296875 c 0
 89.5478515625 549.579101562 89.6904296875 557.37109375 89.97265625 565.3046875 c 0
 90.255859375 573.237304688 90.3984375 578.0546875 90.3984375 579.754882812 c 0
 90.3984375 581.454101562 90.5400390625 583.721679688 90.8232421875 586.5546875 c 0
 91.1064453125 589.387695312 91.248046875 592.079101562 91.248046875 594.629882812 c 2
 91.248046875 601.4296875 l 1
 91.248046875 604.404296875 l 2
 91.8154296875 621.971679688 97.1982421875 635.286132812 107.3984375 644.352539062 c 0
 117.03125 653.986328125 129.213867188 658.802734375 143.947265625 658.802734375 c 2
 146.497070312 658.802734375 l 2
 160.09765625 658.802734375 171.713867188 654.8359375 181.34765625 646.90234375 c 0
 192.680664062 637.8359375 198.629882812 623.955078125 199.197265625 605.254882812 c 0
 199.197265625 599.022460938 198.34765625 586.555664062 196.647460938 567.85546875 c 0
 194.947265625 549.155273438 194.09765625 532.296875 194.09765625 517.280273438 c 0
 194.09765625 502.263671875 194.379882812 481.155273438 194.947265625 453.955078125 c 0
 195.514648438 426.754882812 195.796875 405.504882812 195.796875 390.205078125 c 1
 245.09765625 391.337890625 305.1640625 396.438476562 375.997070312 405.504882812 c 0
 396.963867188 408.337890625 412.831054688 410.321289062 423.59765625 411.454101562 c 0
 423.59765625 413.721679688 423.456054688 417.546875 423.172851562 422.9296875 c 0
 422.889648438 428.3125 422.607421875 440.920898438 422.32421875 460.75390625 c 0
 422.041015625 480.586914062 421.899414062 496.028320312 421.899414062 507.079101562 c 0
 421.899414062 518.12890625 422.323242188 535.553710938 423.172851562 559.353515625 c 0
 424.0234375 583.153320312 424.732421875 597.603515625 425.298828125 602.704101562 c 0
 425.866210938 620.836914062 430.965820312 634.719726562 440.598632812 644.352539062 c 0
 450.798828125 653.986328125 462.982421875 658.802734375 477.149414062 658.802734375 c 2
 479.69921875 658.802734375 l 2
 493.866210938 658.802734375 505.765625 654.8359375 515.399414062 646.90234375 c 0
 526.166015625 637.8359375 531.548828125 624.518554688 531.548828125 606.952148438 c 0
 531.548828125 596.184570312 531.265625 574.65234375 530.69921875 542.3515625 c 0
 530.131835938 502.684570312 529.70703125 467.126953125 529.423828125 435.676757812 c 0
 529.330078125 425.204101562 529.282226562 415.453125 529.282226562 406.42578125 c 0xd0
 529.282226562 388.34375 529.471679688 373.161132812 529.849609375 360.876953125 c 0
 530.416992188 342.459960938 530.69921875 325.318359375 530.69921875 309.451171875 c 0
 530.69921875 278.284179688 529.849609375 238.4765625 528.149414062 190.026367188 c 0
 526.450195312 141.576171875 525.599609375 107.717773438 525.599609375 88.451171875 c 2
 525.599609375 81.6513671875 l 2
 523.899414062 66.3515625 517.099609375 54.451171875 505.200195312 45.951171875 c 0
 493.8671875 38.0185546875 481.399414062 33.7685546875 467.799804688 33.201171875 c 0
 466.666992188 33.201171875 465.81640625 33.484375 465.25 34.05078125 c 0
 451.083007812 34.05078125 439.465820312 38.8681640625 430.399414062 48.5009765625 c 0
 421.33203125 57.0009765625 416.798828125 68.333984375 416.798828125 82.5009765625 c 2
 416.798828125 88.451171875 l 1
 422.465820312 159.8515625 425.298828125 239.184570312 425.298828125 326.451171875 c 2
 425.298828125 341.750976562 l 1
 406.598632812 340.05078125 370.473632812 335.659179688 316.923828125 328.576171875 c 0
 263.374023438 321.493164062 222.149414062 317.66796875 193.249023438 317.1015625 c 1
 193.249023438 309.451171875 l 2
 191.548828125 281.118164062 190.69921875 248.250976562 190.69921875 210.8515625 c 0
 190.69921875 173.451171875 191.548828125 130.66796875 193.249023438 82.5009765625 c 0
 191.548828125 66.6337890625 184.181640625 54.451171875 171.149414062 45.951171875 c 0
 159.815429688 38.0185546875 147.6328125 33.7685546875 134.599609375 33.201171875 c 0
 133.466796875 33.201171875 132.6171875 33.484375 132.049804688 34.05078125 c 0
 117.8828125 34.05078125 105.982421875 38.8681640625 96.349609375 48.5009765625 c 0
 88.4169921875 56.4345703125 84.4482421875 66.9169921875 84.4482421875 79.9501953125 c 2xe0
EndSplineSet
Validated: 524289
EndChar

StartChar: I
Encoding: 73 73 41
Width: 570
VWidth: 902
GlyphClass: 2
Flags: W
HStem: 42.8486 87.5498<89.1291 249.046 363.25 491.6 494.151 529.939> 562.198 93.501<95.5168 252.752>
VStem: 250.202 116.448<131.248 560.499>
LayerCount: 2
Fore
SplineSet
205.150390625 42 m 1
 167.75 40.8671875 141.967773438 40.2978515625 127.80078125 40.2978515625 c 0
 110.80078125 40.2978515625 97.767578125 43.9814453125 88.701171875 51.34765625 c 0
 79.0673828125 58.71484375 74.2509765625 68.34765625 74.2509765625 80.248046875 c 2
 74.2509765625 82.7978515625 l 2
 74.2509765625 94.130859375 78.359375 104.047851562 86.576171875 112.547851562 c 0
 94.79296875 121.047851562 107.684570312 125.581054688 125.251953125 126.1484375 c 0
 147.918945312 127.28125 188.71875 128.4140625 247.651367188 129.546875 c 1
 251.618164062 188.48046875 253.6015625 249.680664062 253.6015625 313.147460938 c 0
 253.6015625 346.580078125 253.03515625 380.580078125 251.901367188 415.147460938 c 0
 250.768554688 439.514648438 250.202148438 465.864257812 250.202148438 494.197265625 c 2
 250.202148438 512.046875 l 2
 250.202148438 517.713867188 250.626953125 526.356445312 251.4765625 537.97265625 c 0
 252.327148438 549.58984375 252.751953125 557.665039062 252.751953125 562.198242188 c 1
 219.884765625 562.764648438 195.517578125 563.047851562 179.650390625 563.047851562 c 0
 164.91796875 563.047851562 149.900390625 562.764648438 134.600585938 562.198242188 c 2
 132.900390625 562.198242188 l 2
 117.034179688 562.198242188 104.42578125 566.165039062 95.076171875 574.09765625 c 0
 85.7255859375 582.03125 80.767578125 592.797851562 80.201171875 606.3984375 c 2
 80.201171875 608.09765625 l 2
 80.201171875 619.998046875 84.5927734375 630.481445312 93.3759765625 639.547851562 c 0
 102.159179688 648.615234375 115.333984375 653.431640625 132.900390625 653.999023438 c 0
 181.633789062 655.131835938 228.383789062 655.69921875 273.150390625 655.69921875 c 0
 362.118164062 655.69921875 434.932617188 653.149414062 491.599609375 648.048828125 c 0
 504.6328125 646.916015625 515.118164062 643.232421875 523.05078125 637 c 0
 533.817382812 629.06640625 539.484375 618.016601562 540.051757812 603.849609375 c 2
 540.051757812 603 l 2
 540.051757812 590.533203125 536.368164062 578.916015625 529.001953125 568.149414062 c 0
 525.03515625 561.916015625 519.368164062 557.098632812 512.000976562 553.69921875 c 0
 507.467773438 551.431640625 502.368164062 550.298828125 496.701171875 550.298828125 c 0
 493.868164062 550.298828125 490.467773438 550.866210938 486.500976562 551.999023438 c 0
 470.633789062 554.265625 431.534179688 557.098632812 369.201171875 560.499023438 c 1
 369.201171875 554.265625 368.633789062 542.932617188 367.500976562 526.5 c 0
 366.93359375 510.6328125 366.650390625 498.307617188 366.650390625 489.524414062 c 2
 366.650390625 463.599609375 l 2
 366.650390625 430.166992188 366.93359375 402.541992188 367.500976562 380.724609375 c 0
 368.067382812 358.908203125 368.350585938 336.666015625 368.350585938 313.999023438 c 0
 368.350585938 291.33203125 367.642578125 259.315429688 366.225585938 217.948242188 c 0
 364.80859375 176.581054688 363.817382812 147.681640625 363.25 131.248046875 c 1
 387.049804688 131.248046875 406.599609375 130.96484375 421.900390625 130.3984375 c 2
 491.599609375 130.3984375 l 1
 491.599609375 134.931640625 491.8828125 134.931640625 492.450195312 130.3984375 c 1
 492.450195312 134.931640625 492.732421875 134.931640625 493.298828125 130.3984375 c 1
 493.298828125 134.931640625 493.583007812 134.931640625 494.150390625 130.3984375 c 1
 494.150390625 134.931640625 494.432617188 134.931640625 495 130.3984375 c 1
 511.432617188 130.3984375 523.19140625 126.573242188 530.274414062 118.922851562 c 0
 537.357421875 111.2734375 541.182617188 101.78125 541.749023438 90.4482421875 c 2
 541.749023438 89.5986328125 l 2
 541.749023438 83.931640625 541.184570312 78.548828125 540.051757812 73.44921875 c 0
 538.918945312 68.3486328125 536.932617188 63.2490234375 534.099609375 58.1494140625 c 0
 530.1328125 51.916015625 524.465820312 47.666015625 517.099609375 45.3994140625 c 0
 512.56640625 43.69921875 508.31640625 42.8486328125 504.349609375 42.8486328125 c 2
 493.298828125 42.8486328125 l 2
 477.999023438 45.1162109375 452.499023438 46.2490234375 416.798828125 46.2490234375 c 0
 379.399414062 46.2490234375 345.682617188 45.9658203125 315.649414062 45.3994140625 c 1
 300.301757812 47.7607421875 284.953125 48.94140625 269.60546875 48.94140625 c 0
 205.150390625 42 l 1
EndSplineSet
Validated: 524289
EndChar

StartChar: J
Encoding: 74 74 42
Width: 570
VWidth: 900
GlyphClass: 2
Flags: W
HStem: 20.875 107.099<213.165 294.692> 560.623 93.502<99.3288 305.452 408.3 499.968>
VStem: 72.1279 97.3242<174.058 270.348> 305.239 103.061<129.043 359.62 360.434 557.226>
LayerCount: 2
Fore
SplineSet
412.549804688 235.075195312 m 0
 402.916992188 136.474609375 382.802734375 73.0078125 352.203125 44.6748046875 c 0
 335.76953125 28.8076171875 316.219726562 20.875 293.552734375 20.875 c 0
 270.885742188 20.875 248.927734375 24.5576171875 227.677734375 31.9248046875 c 0
 206.427734375 39.2919921875 188.15234375 48.6416015625 172.852539062 59.974609375 c 0
 158.120117188 71.875 144.661132812 84.7666015625 132.478515625 98.650390625 c 0
 120.295898438 112.533203125 110.095703125 126.275390625 101.87890625 139.875 c 0
 93.6611328125 153.474609375 87.14453125 165.942382812 82.328125 177.275390625 c 0
 77.5107421875 188.608398438 74.5361328125 197.674804688 73.40234375 204.474609375 c 0
 71.703125 210.708007812 71.27734375 217.650390625 72.1279296875 225.299804688 c 0
 72.9775390625 232.950195312 74.2529296875 240.174804688 75.953125 246.974609375 c 0
 78.2197265625 254.908203125 82.7529296875 261.991210938 89.552734375 268.224609375 c 0
 96.3525390625 274.45703125 105.135742188 278.423828125 115.90234375 280.124023438 c 0
 119.302734375 280.69140625 122.703125 280.974609375 126.102539062 280.974609375 c 0
 137.435546875 280.974609375 147.068359375 277.57421875 155.001953125 270.774414062 c 0
 164.634765625 261.70703125 169.452148438 250.08984375 169.452148438 235.923828125 c 0
 169.452148438 222.323242188 173.985351562 206.173828125 183.051757812 187.473632812 c 0
 188.71875 176.706054688 195.518554688 167.073242188 203.452148438 158.573242188 c 0
 211.384765625 150.073242188 222.15234375 142.848632812 235.751953125 136.8984375 c 0
 249.3515625 130.948242188 264.65234375 127.973632812 281.65234375 127.973632812 c 0
 282.21875 127.973632812 282.786132812 128.256835938 283.352539062 128.823242188 c 0
 287.319335938 131.65625 291.002929688 138.173828125 294.40234375 148.373046875 c 0
 302.3359375 172.740234375 306.869140625 209.573242188 308.001953125 258.873046875 c 2
 308.001953125 260.573242188 l 1
 308.001953125 277.998046875 l 2
 308.001953125 288.481445312 307.71875 316.673828125 307.15234375 362.573242188 c 0
 305.876953125 413.572265625 305.239257812 463.455078125 305.239257812 512.221679688 c 0
 305.239257812 528.479492188 305.310546875 544.61328125 305.452148438 560.623046875 c 1
 273.435546875 561.473632812 243.47265625 561.8984375 215.564453125 561.8984375 c 0
 187.65625 561.8984375 161.801757812 561.473632812 138.001953125 560.623046875 c 2
 136.301757812 560.623046875 l 2
 120.434570312 560.623046875 107.967773438 564.58984375 98.9013671875 572.5234375 c 0
 89.833984375 580.456054688 85.017578125 591.223632812 84.4501953125 604.823242188 c 0
 84.4501953125 605.390625 84.1669921875 605.95703125 83.6005859375 606.524414062 c 0
 83.6005859375 618.423828125 88.1328125 628.907226562 97.2001953125 637.974609375 c 0
 106.267578125 647.041015625 119.583984375 651.858398438 137.151367188 652.424804688 c 0
 186.451171875 653.557617188 233.201171875 654.125 277.401367188 654.125 c 0
 365.80078125 654.125 438.333984375 651.575195312 495.000976562 646.474609375 c 0
 508.034179688 645.341796875 518.517578125 641.659179688 526.450195312 635.42578125 c 0
 537.216796875 627.493164062 543.166992188 616.16015625 544.299804688 601.426757812 c 0
 544.299804688 588.959960938 540.6171875 577.342773438 533.25 566.576171875 c 0
 529.283203125 560.342773438 523.333007812 555.525390625 515.400390625 552.125976562 c 0
 510.8671875 549.859375 505.767578125 548.725585938 500.100585938 548.725585938 c 0
 497.267578125 548.725585938 494.150390625 549.29296875 490.75 550.42578125 c 0
 473.18359375 553.258789062 445.700195312 555.525390625 408.299804688 557.225585938 c 1
 408.299804688 543.05859375 410.283203125 493.475585938 414.25 408.475585938 c 0
 415.157226562 389.88671875 415.610351562 373.655273438 415.610351562 359.782226562 c 0
 415.610351562 356.31640625 415.58203125 352.997070312 415.525390625 349.826171875 c 0
 415.2421875 333.958984375 415.100585938 324.041992188 415.100585938 320.075195312 c 0
 415.100585938 284.375 414.25 256.041992188 412.549804688 235.075195312 c 0
EndSplineSet
Validated: 524289
EndChar

StartChar: K
Encoding: 75 75 43
Width: 570
VWidth: 901
GlyphClass: 2
Flags: W
VStem: 83.6162 99.4492<114.256 282.326 437.024 647.424>
LayerCount: 2
Fore
SplineSet
132.065429688 33.275390625 m 0
 130.931640625 33.275390625 129.799804688 33.55859375 128.666992188 34.1259765625 c 0
 114.5 34.1259765625 102.8828125 37.80859375 93.81640625 45.17578125 c 0
 85.31640625 51.9755859375 81.06640625 61.04296875 81.06640625 72.3759765625 c 0
 81.06640625 74.642578125 81.3486328125 76.91015625 81.916015625 79.1767578125 c 0
 83.048828125 97.3095703125 83.6162109375 127.342773438 83.6162109375 169.275390625 c 0
 83.6162109375 250.30859375 81.916015625 339.841796875 78.515625 437.875 c 0
 77.3828125 474.141601562 76.81640625 498.791992188 76.81640625 511.825195312 c 0
 76.81640625 524.858398438 77.3828125 543.275390625 78.515625 567.075195312 c 0
 79.6494140625 591.442382812 80.2158203125 606.7421875 80.2158203125 612.974609375 c 1
 80.783203125 627.708007812 85.8828125 639.325195312 95.515625 647.825195312 c 0
 104.506835938 655.228515625 115.717773438 658.930664062 129.151367188 658.930664062 c 0
 130.111328125 658.930664062 131.08203125 658.912109375 132.065429688 658.874023438 c 2
 134.615234375 658.874023438 l 2
 148.21484375 658.874023438 160.115234375 655.756835938 170.315429688 649.524414062 c 0
 181.108398438 642.5078125 186.504882812 631.895507812 186.504882812 617.68359375 c 0
 186.504882812 605.494140625 185.963867188 577.376953125 184.764648438 534.774414062 c 0
 183.630859375 495.107421875 182.78125 462.524414062 182.213867188 437.024414062 c 1
 203.181640625 454.024414062 233.213867188 478.390625 272.314453125 510.124023438 c 0
 356.181640625 585.491210938 405.764648438 629.408203125 421.064453125 641.875 c 0
 430.697265625 649.2421875 440.047851562 654.341796875 449.114257812 657.174804688 c 0
 454.78125 658.875 459.598632812 659.724609375 463.565429688 659.724609375 c 0
 467.532226562 659.724609375 471.21484375 659.442382812 474.615234375 658.875 c 0
 481.982421875 657.174804688 488.499023438 653.775390625 494.166015625 648.674804688 c 0
 502.098632812 641.875 506.06640625 634.5078125 506.06640625 626.575195312 c 0
 506.06640625 611.275390625 499.833007812 594.841796875 487.366210938 577.275390625 c 0
 478.866210938 566.5078125 448.265625 535.625 395.56640625 484.625 c 1
 341.166015625 437.025390625 293.283203125 395.658203125 251.916015625 360.525390625 c 1
 273.44921875 340.125 307.732421875 309.807617188 354.765625 269.575195312 c 0
 401.797851562 231.608398438 442.598632812 197.325195312 477.165039062 166.724609375 c 0
 496.431640625 148.025390625 510.598632812 133.291992188 519.666015625 122.525390625 c 0
 529.298828125 109.4921875 534.965820312 100.424804688 536.666015625 95.3251953125 c 0
 538.932617188 87.9580078125 539.783203125 80.875 539.215820312 74.0751953125 c 0
 539.215820312 69.5419921875 538.366210938 65.0087890625 536.666015625 60.4755859375 c 0
 532.69921875 52.54296875 526.181640625 46.3095703125 517.115234375 41.7763671875 c 0
 504.751953125 36.625 496.369140625 34.0498046875 491.966796875 34.0498046875 c 0
 491.526367188 34.0498046875 491.125976562 34.0751953125 490.765625 34.126953125 c 2
 489.915039062 34.126953125 l 2
 474.615234375 34.126953125 460.165039062 41.2099609375 446.565429688 55.376953125 c 0
 440.8984375 62.1767578125 419.365234375 81.7265625 381.96484375 114.026367188 c 0
 344.565429688 145.759765625 303.765625 180.892578125 259.565429688 219.42578125 c 0
 227.83203125 244.359375 202.33203125 265.326171875 183.065429688 282.326171875 c 1
 190.71484375 73.2255859375 l 2
 189.015625 60.7587890625 181.6484375 50.841796875 168.615234375 43.474609375 c 0
 157.848632812 36.6748046875 145.665039062 33.275390625 132.065429688 33.275390625 c 0
EndSplineSet
Validated: 524289
EndChar

StartChar: L
Encoding: 76 76 44
Width: 570
VWidth: 901
GlyphClass: 2
Flags: W
HStem: 39.0762 99.4463<185.604 186.441 187.292 452.638>
VStem: 76.7939 108.797<133.423 322.191> 101.727 100.868<164.67 637.46>
LayerCount: 2
Fore
SplineSet
191.544921875 229.475585938 m 0xa0
 188.145507812 188.674804688 186.158203125 156.655273438 185.590820312 133.422851562 c 1
 185.874023438 136.822265625 186.158203125 138.522460938 186.44140625 138.522460938 c 0
 187.291992188 133.422851562 l 1
 236.024414062 133.422851562 292.974609375 136.255859375 358.141601562 141.922851562 c 0
 422.174804688 147.58984375 464.391601562 153.256835938 484.791992188 158.923828125 c 0
 487.965820312 159.830078125 491.139648438 160.283203125 494.313476562 160.283203125 c 0
 496.692382812 160.198242188 l 0
 500.659179688 159.915039062 504.626953125 158.923828125 508.59375 157.223632812 c 0
 515.959960938 154.390625 522.193359375 149.857421875 527.29296875 143.624023438 c 0
 531.260742188 137.95703125 534.09375 132.0078125 535.79296875 125.774414062 c 0
 538.060546875 118.974609375 539.193359375 113.024414062 539.193359375 107.923828125 c 0
 539.193359375 94.8916015625 535.79296875 84.408203125 528.993164062 76.4755859375 c 0
 522.193359375 68.5419921875 510.576171875 63.1591796875 494.143554688 60.326171875 c 0
 455.04296875 52.958984375 392.8515625 47.576171875 307.568359375 44.17578125 c 0
 222.28515625 40.7763671875 161.227539062 39.076171875 124.39453125 39.076171875 c 0
 110.227539062 39.076171875 98.3271484375 43.892578125 88.6943359375 53.5263671875 c 0
 80.7255859375 61.494140625 76.7412109375 71.7041015625 76.7412109375 84.1552734375 c 0
 76.7412109375 84.9853515625 76.7587890625 85.8251953125 76.7939453125 86.67578125 c 2
 76.7939453125 94.326171875 l 2xc0
 76.7939453125 97.7255859375 80.052734375 128.609375 86.5693359375 186.975585938 c 0
 93.0859375 245.342773438 97.7607421875 301.443359375 100.594726562 355.276367188 c 0
 101.349609375 366.228515625 101.7265625 378.817382812 101.7265625 393.04296875 c 0
 101.7265625 400.161132812 101.6328125 407.688476562 101.443359375 415.625976562 c 0
 101.443359375 436.592773438 100.876953125 496.943359375 99.7431640625 596.67578125 c 2
 99.7431640625 597.526367188 l 2
 100.310546875 615.092773438 105.552734375 628.55078125 115.469726562 637.901367188 c 0
 125.385742188 647.250976562 137.427734375 651.92578125 151.594726562 651.92578125 c 2
 154.145507812 651.92578125 l 2
 167.745117188 651.92578125 179.927734375 647.958984375 190.6953125 640.026367188 c 0
 202.053710938 631.37109375 207.733398438 618.844726562 207.733398438 602.4453125 c 0
 207.733398438 601.775390625 207.725585938 577.740234375 206.844726562 535.475585938 c 0
 205.711914062 498.642578125 204.294921875 464.075195312 202.594726562 431.775390625 c 0
 200.895507812 396.075195312 199.478515625 360.375 198.344726562 324.674804688 c 0
 197.211914062 302.0078125 194.9453125 270.275390625 191.544921875 229.475585938 c 0xa0
EndSplineSet
Validated: 524289
EndChar

StartChar: M
Encoding: 77 77 45
Width: 570
VWidth: 902
GlyphClass: 2
Flags: W
VStem: 61.4961 91.7998<66.1749 360.8> 426.149 128.35<86.0938 480.495>
LayerCount: 2
Fore
SplineSet
153.295898438 106.494140625 m 2
 153.295898438 97.1435546875 l 2
 153.295898438 81.84375 148.763671875 69.09375 139.696289062 58.8935546875 c 0
 129.49609375 48.6943359375 117.313476562 43.59375 103.146484375 43.59375 c 2
 102.295898438 43.59375 l 2
 96.0634765625 43.59375 90.396484375 44.7265625 85.2958984375 46.994140625 c 0
 77.9296875 50.3935546875 71.9794921875 56.626953125 67.4462890625 65.6943359375 c 0
 63.4794921875 75.8935546875 61.49609375 89.494140625 61.49609375 106.494140625 c 0
 61.49609375 113.861328125 62.3466796875 126.043945312 64.0458984375 143.043945312 c 0
 65.74609375 159.4765625 67.7294921875 181.293945312 69.99609375 208.494140625 c 0
 72.8291015625 237.393554688 75.9462890625 271.676757812 79.3466796875 311.34375 c 0
 82.74609375 351.577148438 85.2958984375 383.309570312 86.99609375 406.54296875 c 0
 94.36328125 488.143554688 100.879882812 544.526367188 106.546875 575.693359375 c 0
 110.513671875 595.526367188 114.763671875 609.409179688 119.296875 617.341796875 c 0
 126.096679688 629.2421875 136.580078125 638.025390625 150.747070312 643.692382812 c 0
 162.647460938 648.225585938 174.546875 650.493164062 186.447265625 650.493164062 c 2
 191.546875 650.493164062 l 2
 205.713867188 650.493164062 217.331054688 648.508789062 226.3984375 644.541992188 c 0
 238.865234375 639.442382812 247.365234375 630.942382812 251.8984375 619.041992188 c 0
 259.264648438 594.109375 267.198242188 553.026367188 275.698242188 495.79296875 c 0
 284.198242188 438.559570312 293.264648438 373.110351562 302.8984375 299.443359375 c 0
 305.165039062 283.009765625 306.865234375 268.27734375 307.998046875 255.244140625 c 1
 311.96484375 296.043945312 315.931640625 334.010742188 319.8984375 369.143554688 c 0
 325.565429688 416.176757812 333.215820312 463.209960938 342.848632812 510.243164062 c 0
 352.481445312 557.276367188 360.69921875 593.541992188 367.499023438 619.041992188 c 0
 370.33203125 627.541992188 376.848632812 634.625976562 387.048828125 640.29296875 c 0
 396.116210938 645.393554688 405.749023438 648.509765625 415.94921875 649.643554688 c 0
 422.181640625 650.776367188 427.423828125 651.201171875 431.673828125 650.91796875 c 0
 435.923828125 650.634765625 439.465820312 650.493164062 442.298828125 650.493164062 c 2
 444.848632812 650.493164062 l 1
 458.0234375 650.493164062 l 2
 461.70703125 650.493164062 466.665039062 649.643554688 472.8984375 647.943359375 c 0
 479.130859375 646.809570312 484.373046875 645.110351562 488.623046875 642.842773438 c 0
 492.873046875 640.576171875 496.981445312 637.17578125 500.948242188 632.643554688 c 0
 504.915039062 627.54296875 507.46484375 621.592773438 508.59765625 614.79296875 c 0
 510.865234375 597.79296875 517.381835938 515.342773438 528.1484375 367.443359375 c 0
 538.916015625 220.110351562 546.565429688 136.809570312 551.098632812 117.54296875 c 0
 553.366210938 106.209960938 554.499023438 95.7265625 554.499023438 86.09375 c 0
 554.499023438 78.1611328125 552.798828125 71.361328125 549.3984375 65.6943359375 c 0
 544.866210938 57.7607421875 537.215820312 52.09375 526.44921875 48.6943359375 c 0
 520.215820312 46.994140625 513.69921875 46.001953125 506.8984375 45.71875 c 0
 500.098632812 45.435546875 493.015625 46.994140625 485.6484375 50.3935546875 c 0
 472.616210938 56.060546875 462.982421875 67.677734375 456.75 85.2451171875 c 0
 445.416992188 119.245117188 435.216796875 250.995117188 426.149414062 480.495117188 c 1
 418.782226562 436.861328125 413.682617188 395.495117188 410.849609375 356.39453125 c 0
 405.182617188 291.794921875 397.532226562 230.594726562 387.899414062 172.794921875 c 0
 378.266601562 114.995117188 370.616210938 79.578125 364.94921875 66.544921875 c 0
 356.44921875 52.9443359375 336.049804688 46.14453125 303.75 46.14453125 c 2
 299.5 46.14453125 l 2
 287.599609375 46.14453125 277.116210938 47.8447265625 268.049804688 51.2451171875 c 0
 257.282226562 55.2119140625 250.482421875 60.87890625 247.649414062 68.2451171875 c 0
 240.282226562 95.4453125 228.099609375 157.495117188 211.099609375 254.395507812 c 0
 199.766601562 320.6953125 189 385.012695312 178.799804688 447.345703125 c 1
 177.666992188 436.012695312 176.25 415.612304688 174.549804688 386.145507812 c 2
 171.149414062 341.095703125 l 1
 166.049804688 267.145507812 l 2
 164.349609375 243.912109375 162.366210938 219.545898438 160.099609375 194.045898438 c 0
 158.399414062 174.778320312 156.416992188 154.662109375 154.149414062 133.694335938 c 0
 153.583007812 121.794921875 153.295898438 112.7265625 153.295898438 106.494140625 c 2
EndSplineSet
Validated: 524289
EndChar

StartChar: N
Encoding: 78 78 46
Width: 570
VWidth: 901
GlyphClass: 2
Flags: W
VStem: 77.5752 91.7998<57.3814 464.925> 446.758 90.665<211.052 610.117>
LayerCount: 2
Fore
SplineSet
173.625 464.924804688 m 1
 174.7578125 439.424804688 175.325195312 418.177734375 175.325195312 401.177734375 c 0
 175.325195312 383.044921875 175.041992188 357.544921875 174.474609375 324.677734375 c 0
 173.908203125 292.944335938 173.057617188 253.844726562 171.924804688 207.377929688 c 0
 170.224609375 160.911132812 169.375 131.443359375 169.375 118.9765625 c 2
 169.375 96.02734375 l 1
 169.375 89.2265625 l 2
 169.375 73.9267578125 164.841796875 62.02734375 155.774414062 53.52734375 c 0
 146.141601562 45.59375 134.524414062 41.626953125 120.924804688 41.626953125 c 0
 103.357421875 41.626953125 91.4580078125 46.7265625 85.224609375 56.9267578125 c 0
 80.125 66.5595703125 77.5751953125 80.443359375 77.5751953125 98.576171875 c 0
 77.5751953125 109.909179688 78.4248046875 153.826171875 80.125 230.326171875 c 0
 82.9580078125 348.193359375 84.375 429.225585938 84.375 473.42578125 c 0
 84.375 517.059570312 83.8076171875 557.291992188 82.6748046875 594.125 c 2
 82.6748046875 601.775390625 l 2
 82.6748046875 610.275390625 84.091796875 617.924804688 86.9248046875 624.725585938 c 0
 91.4580078125 632.658203125 97.69140625 638.325195312 105.624023438 641.725585938 c 0
 116.95703125 647.958007812 129.70703125 651.075195312 143.874023438 651.075195312 c 0
 146.70703125 651.075195312 149.82421875 650.791992188 153.223632812 650.225585938 c 0
 165.69140625 650.225585938 176.458007812 648.2421875 185.524414062 644.275390625 c 0
 197.9921875 639.174804688 206.774414062 630.674804688 211.875 618.775390625 c 0
 224.908203125 582.5078125 260.325195312 515.358398438 318.125 417.325195312 c 0
 367.424804688 334.591796875 409.924804688 265.458984375 445.625 209.92578125 c 1
 446.379882812 242.407226562 446.7578125 281.55859375 446.7578125 327.380859375 c 0
 446.7578125 350.309570312 446.663085938 374.907226562 446.473632812 401.17578125 c 0
 445.340820312 501.475585938 442.791015625 567.776367188 438.82421875 600.076171875 c 0
 438.256835938 603.475585938 437.973632812 606.875976562 437.973632812 610.276367188 c 0
 437.973632812 620.475585938 441.657226562 629.54296875 449.024414062 637.475585938 c 0
 458.090820312 646.54296875 469.991210938 651.076171875 484.723632812 651.076171875 c 0
 498.32421875 651.076171875 509.374023438 648.809570312 517.874023438 644.276367188 c 0
 522.407226562 642.008789062 525.524414062 638.609375 527.223632812 634.076171875 c 0
 528.923828125 629.54296875 530.340820312 625.576171875 531.473632812 622.17578125 c 0
 532.607421875 618.208984375 533.740234375 612.258789062 534.873046875 604.326171875 c 0
 536.573242188 594.693359375 537.422851562 549.360351562 537.422851562 468.327148438 c 2
 537.422851562 432.626953125 l 2
 537.422851562 361.793945312 536.573242188 288.693359375 534.873046875 213.327148438 c 0
 533.740234375 164.59375 531.756835938 128.327148438 528.923828125 104.52734375 c 0
 526.657226562 81.8603515625 524.107421875 67.41015625 521.274414062 61.1767578125 c 0
 513.340820312 47.5771484375 494.357421875 40.494140625 464.325195312 39.9267578125 c 2
 460.924804688 39.9267578125 l 2
 450.158203125 39.9267578125 440.524414062 41.91015625 432.024414062 45.876953125 c 0
 421.825195312 50.41015625 415.024414062 56.0771484375 411.625 62.876953125 c 0
 405.958007812 74.2099609375 391.224609375 99.142578125 367.424804688 137.67578125 c 0
 342.4921875 177.909179688 317.841796875 216.442382812 293.474609375 253.275390625 c 0
 267.974609375 295.208007812 241.057617188 341.958007812 212.724609375 393.525390625 c 0
 197.424804688 419.025390625 184.391601562 442.825195312 173.625 464.924804688 c 1
EndSplineSet
Validated: 524289
EndChar

StartChar: O
Encoding: 79 79 47
Width: 570
VWidth: 902
GlyphClass: 2
Flags: W
HStem: 31.6543 91.7998<224.338 363.666> 572.256 90.0957<253.234 382.924>
VStem: 79.3555 102.85<176.648 476.162> 434.654 102.054<196.161 515.156>
LayerCount: 2
Fore
SplineSet
241.705078125 131.955078125 m 0
 251.904296875 126.288085938 263.521484375 123.454101562 276.5546875 123.454101562 c 0
 308.854492188 123.454101562 337.471679688 130.538085938 362.404296875 144.704101562 c 0
 375.4375 151.504882812 387.0546875 160.99609375 397.254882812 173.1796875 c 0
 407.455078125 185.362304688 415.387695312 199.387695312 421.0546875 215.254882812 c 0
 423.321289062 221.487304688 425.729492188 237.212890625 428.279296875 262.4296875 c 0
 430.830078125 287.646484375 432.955078125 317.821289062 434.654296875 352.954101562 c 0
 434.938476562 358.0546875 435.080078125 363.154296875 435.080078125 368.254882812 c 0
 435.080078125 373.354492188 434.938476562 378.454101562 434.654296875 383.5546875 c 0
 434.654296875 407.921875 433.521484375 432.288085938 431.254882812 456.655273438 c 0
 427.854492188 490.088867188 415.671875 517.85546875 394.705078125 539.955078125 c 0
 374.3046875 561.48828125 349.229492188 572.255859375 319.479492188 572.255859375 c 0
 289.729492188 572.255859375 264.654296875 562.622070312 244.254882812 543.35546875 c 0
 223.288085938 522.955078125 207.98828125 494.622070312 198.354492188 458.35546875 c 0
 187.587890625 417.555664062 182.205078125 370.805664062 182.205078125 318.10546875 c 0
 182.205078125 285.23828125 183.904296875 256.338867188 187.3046875 231.405273438 c 0
 189.571289062 217.23828125 193.254882812 203.213867188 198.354492188 189.330078125 c 0
 203.455078125 175.447265625 209.404296875 163.830078125 216.205078125 154.48046875 c 0
 223.004882812 145.130859375 231.504882812 137.622070312 241.705078125 131.955078125 c 0
532.404296875 460.05078125 m 0
 535.2734375 424.668945312 536.708007812 389.647460938 536.708007812 354.984375 c 0
 536.708007812 328.024414062 535.83984375 301.282226562 534.104492188 274.755859375 c 0
 531.837890625 241.322265625 527.87109375 215.5390625 522.204101562 197.40625 c 0
 514.836914062 170.7734375 505.487304688 147.823242188 494.154296875 128.556640625 c 0
 482.821289062 109.2890625 470.212890625 93.421875 456.330078125 80.955078125 c 0
 442.446289062 68.48828125 425.588867188 58.5712890625 405.755859375 51.2041015625 c 0
 385.922851562 43.837890625 365.947265625 38.7373046875 345.831054688 35.904296875 c 0
 325.713867188 33.0712890625 302.622070312 31.654296875 276.5546875 31.654296875 c 0
 236.321289062 32.2216796875 200.338867188 42.98828125 168.60546875 63.955078125 c 0
 139.138671875 85.48828125 116.755859375 113.821289062 101.456054688 148.954101562 c 0
 86.72265625 182.954101562 79.35546875 219.788085938 79.35546875 259.454101562 c 2
 79.35546875 263.704101562 l 1
 79.35546875 278.154296875 l 2
 79.35546875 303.087890625 79.4970703125 322.920898438 79.7802734375 337.653320312 c 0
 80.0634765625 352.38671875 81.0556640625 372.219726562 82.755859375 397.153320312 c 0
 86.1552734375 445.885742188 96.072265625 491.21875 112.505859375 533.15234375 c 1
 112.505859375 534.000976562 l 1
 127.805664062 571.967773438 154.438476562 602.8515625 192.405273438 626.651367188 c 0
 233.206054688 650.451171875 279.388671875 662.3515625 330.956054688 662.3515625 c 0
 357.022460938 662.3515625 381.956054688 657.534179688 405.755859375 647.901367188 c 0
 429.555664062 638.833984375 450.23828125 625.942382812 467.805664062 609.225585938 c 0
 485.372070312 592.508789062 499.822265625 571.400390625 511.155273438 545.900390625 c 0
 522.48828125 520.400390625 529.571289062 491.783203125 532.404296875 460.05078125 c 0
EndSplineSet
Validated: 524289
EndChar

StartChar: P
Encoding: 80 80 48
Width: 570
VWidth: 901
GlyphClass: 2
Flags: W
HStem: 237.2 90.0303<197.923 375.852> 566.153 90.0996<201.006 390.327>
VStem: 95.4951 99.4502<79.2502 244 330.923 561.434> 99.7461 110.499<49.7263 242.485> 430.396 98.5957<379.586 529.548>
LayerCount: 2
Fore
SplineSet
204.29296875 144.55078125 m 0xe8
 208.259765625 103.75 210.245117188 81.9365234375 210.245117188 79.103515625 c 0
 210.245117188 64.9365234375 203.162109375 54.169921875 188.995117188 46.802734375 c 0
 177.662109375 39.435546875 165.478515625 35.7529296875 152.446289062 35.7529296875 c 0
 136.579101562 35.7529296875 123.545898438 40.2861328125 113.345703125 49.3525390625 c 0
 104.279296875 57.2861328125 99.74609375 67.76953125 99.74609375 80.8017578125 c 0
 99.74609375 83.0693359375 100.029296875 86.751953125 100.595703125 91.8525390625 c 0
 101.163085938 99.78515625 101.446289062 113.384765625 101.446289062 132.65234375 c 0
 101.446289062 164.384765625 100.87890625 208.018554688 99.74609375 263.55078125 c 0xd8
 97.478515625 357.618164062 96.0615234375 413.435546875 95.4951171875 431.001953125 c 0
 95.3056640625 445.931640625 95.2119140625 461.208007812 95.2119140625 476.831054688 c 0
 95.2119140625 508.053710938 95.5888671875 540.66015625 96.34375 574.65234375 c 1
 95.77734375 570.119140625 95.2099609375 570.685546875 94.6435546875 576.352539062 c 1
 94.6435546875 571.8203125 94.3603515625 571.8203125 93.79296875 576.352539062 c 0
 88.693359375 583.719726562 86.4267578125 591.086914062 86.9931640625 598.454101562 c 2
 86.9931640625 605.25390625 l 2
 88.693359375 613.75390625 92.66015625 621.403320312 98.8935546875 628.204101562 c 0
 105.125976562 635.00390625 112.209960938 639.25390625 120.142578125 640.954101562 c 0
 141.109375 645.486328125 172.276367188 649.169921875 213.643554688 652.002929688 c 0
 257.276367188 654.8359375 287.875976562 656.252929688 305.443359375 656.252929688 c 0
 349.643554688 656.252929688 389.026367188 649.453125 423.59375 635.852539062 c 0
 455.326171875 621.685546875 480.684570312 600.293945312 499.66796875 571.676757812 c 0
 518.650390625 543.060546875 528.42578125 509.202148438 528.9921875 470.102539062 c 1
 528.9921875 438.369140625 523.609375 408.194335938 512.842773438 379.577148438 c 0
 502.075195312 350.959960938 487.342773438 326.16796875 468.642578125 305.201171875 c 0
 449.942382812 284.234375 425.859375 267.517578125 396.392578125 255.05078125 c 0
 367.666015625 243.125976562 336.865234375 237.163085938 303.990234375 237.163085938 c 0
 302.495117188 237.163085938 300.99609375 237.17578125 299.4921875 237.200195312 c 0
 258.125976562 237.200195312 223.842773438 239.467773438 196.642578125 244 c 1
 198.342773438 211.700195312 200.892578125 178.55078125 204.29296875 144.55078125 c 0xe8
194.094726562 335.803710938 m 1
 214.354492188 330.08984375 237.712890625 327.23046875 264.163085938 327.23046875 c 0
 266.56640625 327.23046875 268.995117188 327.25390625 271.450195312 327.30078125 c 0
 288.450195312 327.30078125 304.033203125 328.434570312 318.200195312 330.701171875 c 0
 332.3671875 332.967773438 344.549804688 335.80078125 354.75 339.201171875 c 0
 364.950195312 342.6015625 373.875 347.134765625 381.525390625 352.80078125 c 0
 389.174804688 358.467773438 395.692382812 364.134765625 401.075195312 369.801757812 c 0
 406.458007812 375.46875 410.991210938 382.126953125 414.673828125 389.77734375 c 0
 418.357421875 397.426757812 421.190429688 404.369140625 423.173828125 410.602539062 c 0
 425.15625 416.834960938 426.71484375 424.342773438 427.84765625 433.125976562 c 0
 428.98046875 441.909179688 429.688476562 449.134765625 429.971679688 454.80078125 c 0
 430.254882812 460.467773438 430.396484375 466.985351562 430.396484375 474.352539062 c 0
 430.396484375 488.518554688 427.563476562 500.986328125 421.896484375 511.752929688 c 0
 416.229492188 522.51953125 409.146484375 531.162109375 400.646484375 537.678710938 c 0
 392.146484375 544.1953125 382.088867188 549.720703125 370.471679688 554.25390625 c 0
 358.854492188 558.787109375 347.663085938 561.903320312 336.895507812 563.603515625 c 0
 326.12890625 565.303710938 315.645507812 566.153320312 305.446289062 566.153320312 c 0
 285.61328125 566.153320312 250.196289062 564.170898438 199.196289062 560.204101562 c 1
 196.928710938 492.204101562 195.51171875 446.586914062 194.9453125 423.353515625 c 0xe8
 194.377929688 392.186523438 194.094726562 363.00390625 194.094726562 335.803710938 c 1
EndSplineSet
Validated: 524289
EndChar

StartChar: Q
Encoding: 81 81 49
Width: 570
VWidth: 887
GlyphClass: 2
Flags: W
HStem: 558.15 90.0996<249.012 379.986>
VStem: 75.0977 102.809<166.567 458.332> 255.297 90.1006<149.54 216.819> 433.797 100.424<147.301 493.138>
LayerCount: 2
Fore
SplineSet
515.399414062 -135.450195312 m 0
 508.033203125 -139.983398438 500.09765625 -142.25 491.59765625 -142.25 c 0
 487.630859375 -142.25 483.09765625 -141.682617188 477.998046875 -140.549804688 c 0
 464.96484375 -137.150390625 454.482421875 -130.067382812 446.548828125 -119.299804688 c 0
 437.482421875 -108.533203125 422.889648438 -89.5498046875 402.7734375 -62.349609375 c 0
 382.65625 -35.150390625 363.248046875 -7.6669921875 344.547851562 20.099609375 c 1
 329.815429688 18.400390625 313.948242188 17.5498046875 296.948242188 17.5498046875 c 0
 268.047851562 17.5498046875 241.415039062 21.7998046875 217.047851562 30.2998046875 c 0
 192.680664062 38.2333984375 172.28125 49.56640625 155.84765625 64.298828125 c 0
 139.415039062 79.0322265625 125.248046875 96.0322265625 113.34765625 115.298828125 c 0
 90.6806640625 152.69921875 78.2138671875 197.465820312 75.947265625 249.599609375 c 0
 75.3798828125 264.33203125 75.09765625 278.499023438 75.09765625 292.099609375 c 0
 75.09765625 381.06640625 86.7138671875 455.583007812 109.947265625 515.650390625 c 1
 125.247070312 553.6171875 152.1640625 585.349609375 190.697265625 610.849609375 c 0
 231.497070312 635.783203125 277.114257812 648.25 327.546875 648.25 c 0
 381.379882812 648.25 426.430664062 632.099609375 462.697265625 599.799804688 c 0
 480.264648438 583.932617188 494.856445312 562.825195312 506.47265625 536.474609375 c 0
 518.08984375 510.125 525.881835938 479.950195312 529.848632812 445.950195312 c 0
 532.762695312 419.72265625 534.220703125 389.748046875 534.220703125 356.02734375 c 0
 534.220703125 350.40625 534.1796875 344.6796875 534.098632812 338.849609375 c 0
 534.098632812 266.8828125 530.416015625 213.333007812 523.048828125 178.200195312 c 0
 511.1484375 120.400390625 484.798828125 77.900390625 443.999023438 50.7001953125 c 1
 462.131835938 25.7666015625 484.232421875 -2.849609375 510.298828125 -35.150390625 c 0
 526.166015625 -54.9833984375 534.098632812 -65.1826171875 534.098632812 -65.75 c 0
 538.631835938 -72.5498046875 540.8984375 -79.6328125 540.8984375 -87 c 0
 540.8984375 -89.2666015625 540.616210938 -91.25 540.048828125 -92.9501953125 c 0
 538.916015625 -101.450195312 536.083007812 -109.666992188 531.549804688 -117.599609375 c 0
 526.450195312 -125.533203125 521.06640625 -131.483398438 515.399414062 -135.450195312 c 0
264.6484375 134.849609375 m 0
 258.415039062 149.583007812 255.296875 162.900390625 255.296875 174.799804688 c 0
 255.296875 192.932617188 262.6640625 207.099609375 277.397460938 217.299804688 c 0
 285.897460938 223.533203125 294.963867188 226.932617188 304.59765625 227.5 c 0
 312.530273438 227.5 320.180664062 224.950195312 327.546875 219.849609375 c 0
 334.9140625 214.75 340.864257812 206.817382812 345.397460938 196.049804688 c 0
 355.030273438 171.1171875 368.629882812 144.200195312 386.197265625 115.299804688 c 1
 404.897460938 130.033203125 417.647460938 151.849609375 424.447265625 180.75 c 0
 426.147460938 188.682617188 427.989257812 205.400390625 429.97265625 230.900390625 c 0
 431.955078125 256.400390625 433.23046875 288.416992188 433.796875 326.950195312 c 2
 433.796875 340.549804688 l 2
 433.796875 373.983398438 431.814453125 406 427.84765625 436.599609375 c 0
 422.747070312 474.567382812 410.280273438 504.599609375 390.447265625 526.700195312 c 0
 371.180664062 547.666992188 346.388671875 558.150390625 316.071289062 558.150390625 c 0
 285.754882812 558.150390625 260.396484375 548.233398438 239.99609375 528.400390625 c 0
 219.029296875 508 203.729492188 478.817382812 194.096679688 440.849609375 c 0
 183.303710938 399.295898438 177.90625 355.942382812 177.90625 310.790039062 c 0
 177.90625 308.53125 177.919921875 306.267578125 177.947265625 304 c 0
 177.947265625 287 178.514648438 269.432617188 179.647460938 251.299804688 c 1
 181.9140625 220.1328125 188.430664062 192.224609375 199.198242188 167.575195312 c 0
 209.96484375 142.924804688 223.84765625 123.516601562 240.84765625 109.349609375 c 0
 255.014648438 98.0166015625 270.59765625 91.5 287.59765625 89.7998046875 c 1
 277.3984375 107.932617188 269.748046875 122.950195312 264.6484375 134.849609375 c 0
EndSplineSet
Validated: 524289
EndChar

